<svg width="29" height="16" viewBox="0 0 29 16" fill="none" xmlns="http://www.w3.org/2000/svg">
<path d="M17.9682 10.2063L17.9681 10.2074C19.4175 10.5392 20.5907 11.5934 21.0773 12.967L21.0785 12.9704C21.2396 13.4148 21.3255 13.8971 21.3255 14.4C21.3255 15.0056 20.8327 15.5 20.2144 15.5H8.93663C8.31836 15.5 7.82552 15.0056 7.82552 14.4C7.82552 13.9002 7.91537 13.4164 8.0739 12.9665C8.54693 11.634 9.6652 10.6028 11.0551 10.2392C11.4086 10.1493 11.7795 10.1 12.1639 10.1H16.9972C17.333 10.1 17.6612 10.1359 17.9682 10.2063ZM7.72613 1.29203C8.23626 1.79865 8.52222 2.48504 8.52222 3.2C8.52222 3.91496 8.23626 4.60135 7.72613 5.10797C7.21587 5.6147 6.52309 5.9 5.8 5.9C5.07691 5.9 4.38413 5.6147 3.87387 5.10797C3.36374 4.60135 3.07778 3.91496 3.07778 3.2C3.07778 2.48504 3.36374 1.79865 3.87387 1.29203C4.38413 0.785298 5.07691 0.5 5.8 0.5C6.52309 0.5 7.21587 0.785298 7.72613 1.29203ZM1.61111 12.3C0.99284 12.3 0.5 11.8056 0.5 11.2C0.5 9.7144 1.71784 8.5 3.22222 8.5H8.05556C8.20766 8.5 8.35695 8.51227 8.5023 8.5359C7.11342 9.39246 6.0506 10.7227 5.5451 12.3H1.61111ZM27.3889 12.3H23.6159C23.1061 10.7112 22.0324 9.37405 20.6307 8.51745C20.7336 8.50592 20.8382 8.5 20.9444 8.5H25.7778C27.2822 8.5 28.5 9.7144 28.5 11.2C28.5 11.8056 28.0072 12.3 27.3889 12.3ZM25.4484 1.29203C25.9585 1.79865 26.2444 2.48504 26.2444 3.2C26.2444 3.91496 25.9585 4.60135 25.4484 5.10797C24.9381 5.6147 24.2453 5.9 23.5222 5.9C22.7991 5.9 22.1063 5.6147 21.5961 5.10797C21.086 4.60135 20.8 3.91496 20.8 3.2C20.8 2.48504 21.086 1.79865 21.5961 1.29203C22.1063 0.785298 22.7991 0.5 23.5222 0.5C24.2453 0.5 24.9381 0.785298 25.4484 1.29203ZM17.0763 6.47365C16.415 7.13042 15.5173 7.5 14.5806 7.5C13.6438 7.5 12.7461 7.13042 12.0848 6.47365C11.4236 5.817 11.0528 4.92714 11.0528 4C11.0528 3.07286 11.4236 2.183 12.0848 1.52635C12.7461 0.869583 13.6438 0.5 14.5806 0.5C15.5173 0.5 16.415 0.869584 17.0763 1.52635C17.7375 2.183 18.1083 3.07286 18.1083 4C18.1083 4.92714 17.7375 5.817 17.0763 6.47365Z" stroke="#1B7692"/>
</svg>
