<svg width="22" height="22" viewBox="0 0 22 22" fill="none" xmlns="http://www.w3.org/2000/svg">
<path d="M21.5 17.1048V21.5H17V19.25V18.75H16.5H14.25V16.5V16H13.75H11.5V14.2764V13.4477L10.7669 13.834C10.2727 14.0945 9.75572 14.2912 9.2151 14.4247C8.67451 14.5582 8.12395 14.625 7.5625 14.625C6.91132 14.625 6.28684 14.5412 5.68753 14.3747C5.08379 14.207 4.52278 13.9696 4.00302 13.6631C3.48071 13.355 3.0057 12.9871 2.57719 12.5586C2.14866 12.13 1.77665 11.651 1.46095 11.1203C1.14776 10.5939 0.911341 10.0346 0.75131 9.44111C0.591315 8.84779 0.506948 8.22124 0.5 7.55995C0.500219 6.90969 0.584058 6.28605 0.750314 5.68753C0.918021 5.08379 1.1554 4.52278 1.46193 4.00302C1.76996 3.48071 2.13793 3.0057 2.56644 2.57719C2.99497 2.14866 3.47402 1.77665 4.00467 1.46095C4.53111 1.14776 5.09044 0.911341 5.68389 0.75131C6.27721 0.591315 6.90376 0.506948 7.56505 0.5C8.21531 0.500219 8.83895 0.584058 9.43747 0.750314C10.0412 0.918021 10.6022 1.1554 11.122 1.46193C11.6443 1.76996 12.1193 2.13793 12.5478 2.56644C12.9763 2.99497 13.3483 3.47402 13.664 4.00467C13.9772 4.53111 14.2137 5.09044 14.3737 5.68389C14.5337 6.27721 14.6181 6.90377 14.625 7.56507C14.6249 7.90316 14.5983 8.23754 14.5453 8.56847C14.4918 8.90296 14.415 9.23042 14.3148 9.55106L14.2244 9.84007L14.4387 10.054L21.5 17.1048ZM5.5 8.0625C5.85069 8.0625 6.18661 7.99637 6.50262 7.86094C6.80962 7.72937 7.08171 7.54727 7.31449 7.31449C7.54727 7.08171 7.72937 6.80962 7.86094 6.50262C7.99637 6.18661 8.0625 5.85069 8.0625 5.5C8.0625 5.14931 7.99637 4.81339 7.86094 4.49738C7.72937 4.19038 7.54727 3.91829 7.31449 3.68551C7.08171 3.45273 6.80962 3.27063 6.50262 3.13906C6.18661 3.00363 5.85069 2.9375 5.5 2.9375C5.14931 2.9375 4.81339 3.00363 4.49738 3.13906C4.19038 3.27063 3.91829 3.45273 3.68551 3.68551C3.45273 3.91829 3.27063 4.19038 3.13906 4.49738C3.00363 4.81339 2.9375 5.14931 2.9375 5.5C2.9375 5.85069 3.00363 6.18661 3.13906 6.50262C3.27063 6.80962 3.45273 7.08171 3.68551 7.31449C3.91829 7.54727 4.19038 7.72937 4.49738 7.86094C4.81339 7.99637 5.14931 8.0625 5.5 8.0625Z" stroke="#1B7692"/>
</svg>
