<svg width="18" height="24" viewBox="0 0 18 24" fill="none" xmlns="http://www.w3.org/2000/svg">
<path d="M4.6979 0.122853L3.65825 0.436053C2.73254 0.715219 1.90584 1.25302 1.27545 1.98616C0.645066 2.7193 0.237231 3.61726 0.0999491 4.57435C-0.330701 7.57295 0.632099 11.0791 2.95355 15.0999C5.2692 19.1106 7.8183 21.6945 10.624 22.8255C11.5256 23.1888 12.5124 23.2857 13.4674 23.1044C14.4223 22.9232 15.3051 22.4716 16.0108 21.8033L16.7967 21.058C17.307 20.575 17.6246 19.9231 17.6905 19.2236C17.7564 18.524 17.566 17.8244 17.1549 17.2546L15.1887 14.5286C14.9228 14.1606 14.5485 13.885 14.1182 13.7404C13.6878 13.5958 13.223 13.5895 12.7889 13.7224L9.81495 14.6316L9.7381 14.6461C9.4104 14.6939 8.6535 13.9849 7.711 12.3522C6.725 10.6441 6.522 9.645 6.79315 9.3869L8.3055 7.97605C8.85855 7.46052 9.23633 6.78479 9.38586 6.04366C9.53539 5.30253 9.44915 4.53319 9.13925 3.84355L8.17935 1.7106C7.89071 1.06875 7.37851 0.553761 6.73823 0.261636C6.09796 -0.0304895 5.37185 -0.0798156 4.6979 0.122853ZM6.85985 2.3051L7.81685 4.43805C8.00323 4.85164 8.05534 5.31322 7.96588 5.75796C7.87641 6.20269 7.64986 6.60821 7.31805 6.91755L5.80135 8.32985C4.82985 9.24915 5.15175 10.8181 6.45675 13.0772C7.68345 15.2029 8.80285 16.2527 10.0063 16.07L10.1861 16.0323L13.2137 15.1086C13.3585 15.0642 13.5135 15.0661 13.657 15.1142C13.8006 15.1623 13.9254 15.2542 14.0141 15.3769L15.9803 18.1029C16.1862 18.3877 16.2816 18.7376 16.2488 19.0876C16.216 19.4375 16.0572 19.7636 15.802 20.0053L15.0147 20.7506C14.5105 21.2276 13.8801 21.55 13.1982 21.6793C12.5162 21.8086 11.8115 21.7394 11.1678 21.4799C8.7057 20.4881 6.37845 18.129 4.2107 14.3749C2.03715 10.6122 1.157 7.412 1.53545 4.78025C1.63341 4.09648 1.92471 3.45492 2.37503 2.93113C2.82535 2.40734 3.41595 2.02312 4.0773 1.8237L5.11695 1.5105C5.45401 1.40922 5.81641 1.43399 6.13656 1.58019C6.45671 1.72639 6.71275 1.98404 6.85695 2.3051" fill="#1B7692"/>
</svg>
