<svg width="16" height="20" viewBox="0 0 16 20" fill="none" xmlns="http://www.w3.org/2000/svg">
<path d="M2.89474 4.78947H4.78947V2.42105M1 4.31579L4.31579 1H14.2632V19H1V4.31579Z" stroke="#1B7692" stroke-width="1.5"/>
<path d="M13.3158 2.89453H11.4211L10.9474 4.78927L10 5.26295L8.57897 4.31558L6.68424 5.73664L7.6316 7.15769L7.15792 8.57874L5.26318 9.05243V10.9472L7.15792 11.4208L7.6316 12.8419L6.68424 14.263L8.10529 15.684L10 14.7366L11.4211 15.2103V17.1051H12.8421" stroke="#1B7692" stroke-width="1.5"/>
<path d="M13.3158 6.6847C12.8421 6.21104 10.9474 5.73719 10 7.15831" stroke="#1B7692" stroke-width="1.5"/>
<path d="M9.5264 8.10547C9.05272 10.0002 9.14746 13.6949 13.3159 13.316" stroke="#1B7692" stroke-width="1.5"/>
</svg>
