<svg width="21" height="20" viewBox="0 0 21 20" fill="none" xmlns="http://www.w3.org/2000/svg">
<path d="M8.88738 9.7452C8.88738 11.6253 7.35702 13.1564 5.47166 13.1564C3.59238 13.1564 2.06201 11.6253 2.06201 9.7452C2.06201 7.85959 3.59238 6.33398 5.47166 6.33398C5.87701 6.33398 6.27144 6.40258 6.6428 6.53979C6.90009 6.63146 7.0257 6.90525 6.93407 7.16266C6.84244 7.41399 6.5627 7.54573 6.31149 7.44859C6.04328 7.35146 5.76293 7.29986 5.47166 7.29986C4.12941 7.29986 3.0329 8.39686 3.0329 9.7452C3.0329 11.0881 4.12941 12.1851 5.47166 12.1851C6.81938 12.1851 7.91589 11.0881 7.91589 9.7452C7.91589 9.47687 8.13312 9.25953 8.40133 9.25953C8.66954 9.25953 8.88738 9.47626 8.88738 9.7452Z" fill="#1B7692"/>
<path d="M14.7648 0.969515C15.7928 0.969515 16.6265 1.80972 16.6265 2.83205C16.6265 3.86046 15.7928 4.69459 14.7648 4.69459C13.7424 4.69459 12.9032 3.86046 12.9032 2.83205C12.9032 1.80972 13.7424 0.969515 14.7648 0.969515ZM14.7648 14.7922C15.7928 14.7922 16.6265 15.6264 16.6265 16.6548C16.6265 17.6832 15.7928 18.5173 14.7648 18.5173C13.7424 18.5173 12.9032 17.6832 12.9032 16.6548C12.9032 15.6264 13.7424 14.7922 14.7648 14.7922ZM14.4906 19.4607C14.5822 19.4723 14.6732 19.4893 14.7648 19.4893C16.3298 19.4893 17.5974 18.215 17.5974 16.6554C17.5974 15.0897 16.3292 13.8215 14.7648 13.8215C13.817 13.8215 12.9827 14.2956 12.4687 15.0102L10.0415 12.753C10.5269 12.016 10.8412 11.1588 10.9207 10.233H15.2042C15.4323 11.5644 16.5919 12.5812 17.9858 12.5812C19.5507 12.5812 20.8184 11.307 20.8184 9.74736C20.8184 8.18169 19.5501 6.91349 17.9858 6.91349C16.5919 6.91349 15.4329 7.93035 15.2042 9.26169H10.9207C10.8406 8.33589 10.5269 7.47322 10.0415 6.73622L12.4687 4.47907C12.9827 5.19908 13.8164 5.66775 14.7648 5.66775C16.3298 5.66775 17.5974 4.39894 17.5974 2.83387C17.5974 1.27366 16.3292 0 14.7648 0C14.6732 0 14.5822 0.0230693 14.4906 0.028533C14.0773 0.085599 13.5197 0.302936 13.5197 0.302936C12.5828 0.771605 11.9317 1.72594 11.9317 2.83448C11.9317 3.08581 11.9772 3.32015 12.0342 3.55448L9.43525 5.97736C8.43584 4.93196 7.03047 4.26902 5.47158 4.26902C2.45575 4.26902 0 6.7259 0 9.74858C0 12.7658 2.45575 15.2227 5.47158 15.2227C7.03108 15.2227 8.43584 14.5658 9.43525 13.5143L12.0342 15.9427C11.9772 16.1709 11.9317 16.4053 11.9317 16.6572C11.9317 17.7712 12.5828 18.7255 13.5197 19.1887M9.97895 9.74675C9.97895 12.2267 7.95707 14.2495 5.4728 14.2495C2.99399 14.2495 0.972106 12.2267 0.972106 9.74675C0.972106 7.26135 2.99399 5.23854 5.4728 5.23854C7.95707 5.23793 9.97895 7.26074 9.97895 9.74675ZM17.9864 11.6093C16.9585 11.6093 16.1247 10.7691 16.1247 9.74675C16.1247 8.71835 16.9585 7.88422 17.9864 7.88422C19.0143 7.88422 19.8481 8.71835 19.8481 9.74675C19.8481 10.7697 19.0143 11.6093 17.9864 11.6093Z" fill="#1B7692"/>
<path d="M8.2275 8.04082L5.63461 11.1837C5.53752 11.2978 5.40645 11.361 5.25778 11.361C5.11518 11.361 4.97804 11.2978 4.88642 11.1898L3.78385 9.88151C3.60666 9.67571 3.63518 9.36731 3.84089 9.19611C4.04659 9.02491 4.34939 9.04737 4.52597 9.25317L5.25111 10.1219L7.4787 7.41917C7.64982 7.21337 7.95868 7.18483 8.16378 7.35603C8.3701 7.52662 8.39862 7.82956 8.2275 8.04082Z" fill="#1B7692"/>
</svg>
