<svg width="17" height="18" viewBox="0 0 17 18" fill="none" xmlns="http://www.w3.org/2000/svg">
<path d="M16.4574 2.82353H12.6596V1.94118C12.6596 1.42634 12.45 0.932599 12.0769 0.568558C11.7038 0.204516 11.1978 0 10.6702 0H6.32979C5.80218 0 5.29617 0.204516 4.9231 0.568558C4.55002 0.932599 4.34043 1.42634 4.34043 1.94118V2.82353H0.542553C0.398659 2.82353 0.260659 2.87931 0.15891 2.97859C0.0571616 3.07787 0 3.21253 0 3.35294C0 3.49335 0.0571616 3.62801 0.15891 3.72729C0.260659 3.82658 0.398659 3.88235 0.542553 3.88235H1.44681V16.7647C1.44681 17.0923 1.58019 17.4065 1.8176 17.6382C2.05501 17.8699 2.37701 18 2.71277 18H14.2872C14.623 18 14.945 17.8699 15.1824 17.6382C15.4198 17.4065 15.5532 17.0923 15.5532 16.7647V3.88235H16.4574C16.6013 3.88235 16.7393 3.82658 16.8411 3.72729C16.9428 3.62801 17 3.49335 17 3.35294C17 3.21253 16.9428 3.07787 16.8411 2.97859C16.7393 2.87931 16.6013 2.82353 16.4574 2.82353ZM5.42553 1.94118C5.42553 1.70716 5.5208 1.48273 5.69038 1.31726C5.85996 1.15179 6.08996 1.05882 6.32979 1.05882H10.6702C10.91 1.05882 11.14 1.15179 11.3096 1.31726C11.4792 1.48273 11.5745 1.70716 11.5745 1.94118V2.82353H5.42553V1.94118ZM14.4681 16.7647C14.4681 16.8115 14.449 16.8564 14.4151 16.8895C14.3812 16.9226 14.3352 16.9412 14.2872 16.9412H2.71277C2.6648 16.9412 2.6188 16.9226 2.58488 16.8895C2.55097 16.8564 2.53191 16.8115 2.53191 16.7647V3.88235H14.4681V16.7647ZM6.87234 7.58824V13.2353C6.87234 13.3757 6.81518 13.5104 6.71343 13.6096C6.61168 13.7089 6.47368 13.7647 6.32979 13.7647C6.18589 13.7647 6.04789 13.7089 5.94614 13.6096C5.8444 13.5104 5.78723 13.3757 5.78723 13.2353V7.58824C5.78723 7.44783 5.8444 7.31317 5.94614 7.21389C6.04789 7.1146 6.18589 7.05882 6.32979 7.05882C6.47368 7.05882 6.61168 7.1146 6.71343 7.21389C6.81518 7.31317 6.87234 7.44783 6.87234 7.58824ZM11.2128 7.58824V13.2353C11.2128 13.3757 11.1556 13.5104 11.0539 13.6096C10.9521 13.7089 10.8141 13.7647 10.6702 13.7647C10.5263 13.7647 10.3883 13.7089 10.2866 13.6096C10.1848 13.5104 10.1277 13.3757 10.1277 13.2353V7.58824C10.1277 7.44783 10.1848 7.31317 10.2866 7.21389C10.3883 7.1146 10.5263 7.05882 10.6702 7.05882C10.8141 7.05882 10.9521 7.1146 11.0539 7.21389C11.1556 7.31317 11.2128 7.44783 11.2128 7.58824Z" fill="#707070"/>
</svg>
