<svg width="33" height="35" viewBox="0 0 33 35" fill="none" xmlns="http://www.w3.org/2000/svg">
<path d="M27.0417 0C28.6219 0 30.1374 0.665796 31.2548 1.85092C32.3722 3.03605 33 4.64342 33 6.31944V28.6806C33 30.3566 32.3722 31.964 31.2548 33.1491C30.1374 34.3342 28.6219 35 27.0417 35H5.95833C4.37809 35 2.86256 34.3342 1.74516 33.1491C0.627751 31.964 0 30.3566 0 28.6806V6.31944C0 4.64342 0.627751 3.03605 1.74516 1.85092C2.86256 0.665796 4.37809 0 5.95833 0H27.0417ZM28.105 31.8908L17.4625 20.8347C17.2303 20.5934 16.925 20.4471 16.6008 20.4218C16.2766 20.3965 15.9544 20.4939 15.6915 20.6967L15.5375 20.8328L4.89133 31.8908C5.22622 32.0166 5.58189 32.0807 5.95833 32.0833H27.0417C27.4138 32.0833 27.7732 32.0153 28.105 31.8908ZM27.0417 2.91667H5.95833C5.10743 2.91667 4.29138 3.27517 3.6897 3.91332C3.08802 4.55146 2.75 5.41697 2.75 6.31944V28.6806C2.75122 29.0863 2.81417 29.4713 2.93883 29.8356L13.6143 18.7503C14.3461 17.9904 15.3183 17.5465 16.3416 17.5048C17.365 17.4631 18.3664 17.8267 19.151 18.5247L19.3857 18.7503L30.0593 29.8375C30.184 29.4745 30.2476 29.0889 30.25 28.6806V6.31944C30.25 5.41697 29.912 4.55146 29.3103 3.91332C28.7086 3.27517 27.8926 2.91667 27.0417 2.91667ZM22.462 6.80556C23.557 6.80556 24.6071 7.2669 25.3814 8.0881C26.1557 8.9093 26.5907 10.0231 26.5907 11.1844C26.5907 12.3458 26.1557 13.4596 25.3814 14.2808C24.6071 15.102 23.557 15.5633 22.462 15.5633C21.367 15.5633 20.3169 15.102 19.5426 14.2808C18.7683 13.4596 18.3333 12.3458 18.3333 11.1844C18.3333 10.0231 18.7683 8.9093 19.5426 8.0881C20.3169 7.2669 21.367 6.80556 22.462 6.80556ZM22.462 9.72222C22.0964 9.72222 21.7457 9.87628 21.4871 10.1505C21.2286 10.4247 21.0833 10.7966 21.0833 11.1844C21.0833 11.5722 21.2286 11.9442 21.4871 12.2184C21.7457 12.4926 22.0964 12.6467 22.462 12.6467C22.8276 12.6467 23.1783 12.4926 23.4369 12.2184C23.6954 11.9442 23.8407 11.5722 23.8407 11.1844C23.8407 10.7966 23.6954 10.4247 23.4369 10.1505C23.1783 9.87628 22.8276 9.72222 22.462 9.72222Z" fill="#68A4B3"/>
</svg>
