<svg width="20" height="19" viewBox="0 0 20 19" fill="none" xmlns="http://www.w3.org/2000/svg">
<path d="M16.9151 6.83608V0H15.3801V1.51585H13.0701V3.03173H15.3801V6.82871H13.0701V8.34459H19.225V6.82871H16.9151V6.83608ZM4.22527 1.52322C4.75432 1.52322 5.27588 1.67776 5.72297 1.9721C6.16261 2.26644 6.51284 2.67852 6.71403 3.16418C6.91522 3.64984 6.96739 4.18701 6.86307 4.70211C6.75875 5.21721 6.5054 5.68816 6.12538 6.06344C5.75281 6.43872 5.26843 6.68891 4.74683 6.79193C4.22523 6.89495 3.6813 6.84344 3.1895 6.6374C2.69771 6.43872 2.28043 6.10022 1.98237 5.65871C1.68431 5.22455 1.52779 4.70947 1.52779 4.17966C1.52779 3.47324 1.81099 2.79626 2.31769 2.29588C2.82439 1.7955 3.50992 1.51585 4.21781 1.51585L4.22527 1.52322ZM4.22527 0.00736571C3.3907 0.00736571 2.57102 0.250191 1.87804 0.713778C1.18505 1.17001 0.641074 1.82493 0.320661 2.59022C0.000248542 3.3555 -0.0816775 4.19437 0.0822546 5.00381C0.246187 5.81325 0.648557 6.55646 1.23722 7.14514C1.82589 7.72647 2.58592 8.13118 3.40558 8.28571C4.22524 8.44759 5.07473 8.36664 5.84968 8.05023C6.62463 7.73381 7.28035 7.19664 7.74979 6.5123C8.21178 5.82796 8.46515 5.01852 8.46515 4.19437C8.46515 3.08323 8.01804 2.0236 7.22818 1.24359C6.43088 0.45623 5.35786 0.0220747 4.24014 0.0220747L4.22527 0.00736571ZM4.22527 12.1563C4.75432 12.1563 5.27588 12.3108 5.72297 12.6052C6.16261 12.8995 6.51284 13.3116 6.71403 13.7972C6.91522 14.2829 6.96739 14.8201 6.86307 15.3352C6.75875 15.8503 6.5054 16.3212 6.12538 16.6965C5.75281 17.0718 5.26843 17.322 4.74683 17.425C4.22523 17.528 3.6813 17.4765 3.1895 17.2705C2.69771 17.0718 2.28043 16.7333 1.98237 16.2918C1.68431 15.8576 1.52779 15.3425 1.52779 14.8127C1.52779 14.1063 1.81099 13.4293 2.31769 12.9289C2.82439 12.4286 3.50992 12.1489 4.21781 12.1489L4.22527 12.1563ZM4.22527 10.6404C3.3907 10.6404 2.57102 10.8833 1.87804 11.3469C1.18505 11.8031 0.641074 12.458 0.320661 13.2233C0.000248542 13.9886 -0.0816775 14.8274 0.0822546 15.6369C0.246187 16.4463 0.648557 17.1895 1.23722 17.7782C1.82589 18.3595 2.58592 18.7643 3.40558 18.9188C4.22524 19.0807 5.07473 18.9997 5.84968 18.6833C6.62463 18.3669 7.28035 17.8297 7.74979 17.1454C8.21178 16.461 8.46515 15.6516 8.46515 14.8274C8.46515 13.7163 8.01804 12.6567 7.22818 11.8767C6.43088 11.0893 5.35786 10.6552 4.24014 10.6552L4.22527 10.6404ZM15.7601 12.1563C16.2892 12.1563 16.8108 12.3108 17.2579 12.6052C17.6975 12.8995 18.0477 13.3116 18.2489 13.7972C18.4501 14.2829 18.5022 14.8201 18.3979 15.3352C18.2936 15.8503 18.0403 16.3212 17.6602 16.6965C17.2877 17.0718 16.8033 17.322 16.2817 17.425C15.7601 17.528 15.2161 17.4765 14.7244 17.2705C14.2326 17.0718 13.8153 16.7333 13.5172 16.2918C13.2192 15.8576 13.0627 15.3425 13.0627 14.8127C13.0627 14.1063 13.3458 13.4293 13.8525 12.9289C14.3592 12.4286 15.0448 12.1489 15.7527 12.1489L15.7601 12.1563ZM15.7601 10.6404C14.9256 10.6404 14.1059 10.8833 13.4129 11.3469C12.7199 11.8031 12.176 12.458 11.8556 13.2233C11.5351 13.9886 11.4532 14.8274 11.6171 15.6369C11.781 16.4463 12.1834 17.1895 12.7721 17.7782C13.3607 18.3595 14.1208 18.7643 14.9404 18.9188C15.7601 19.0807 16.6096 18.9997 17.3845 18.6833C18.1595 18.3669 18.8152 17.8297 19.2846 17.1454C19.7466 16.461 20 15.6516 20 14.8274C20 13.7163 19.5529 12.6567 18.763 11.8767C17.9657 11.0893 16.8928 10.6552 15.775 10.6552L15.7601 10.6404Z" fill="#1B7692"/>
</svg>
