<svg width="15" height="14" viewBox="0 0 15 14" fill="none" xmlns="http://www.w3.org/2000/svg">
<path fill-rule="evenodd" clip-rule="evenodd" d="M15 7C15 6.79375 14.9282 6.59595 14.8003 6.45011C14.6725 6.30426 14.499 6.22233 14.3182 6.22233L2.3288 6.22233L6.61989 1.32924C6.74791 1.18322 6.81983 0.985162 6.81983 0.778651C6.81983 0.57214 6.74791 0.374087 6.61989 0.228062C6.49187 0.082036 6.31824 0 6.13719 0C5.95614 0 5.78251 0.082036 5.65449 0.228062L0.200297 6.44941C0.136806 6.52165 0.0864322 6.60747 0.052062 6.70195C0.0176918 6.79642 0 6.89771 0 7C0 7.10229 0.0176918 7.20358 0.052062 7.29805C0.0864322 7.39253 0.136806 7.47835 0.200297 7.55059L5.65449 13.7719C5.71788 13.8442 5.79314 13.9016 5.87596 13.9407C5.95878 13.9799 6.04754 14 6.13719 14C6.31824 14 6.49187 13.918 6.61989 13.7719C6.74791 13.6259 6.81983 13.4279 6.81983 13.2213C6.81983 13.0148 6.74791 12.8168 6.61989 12.6708L2.3288 7.77767L14.3182 7.77767C14.499 7.77767 14.6725 7.69573 14.8003 7.54989C14.9282 7.40405 15 7.20625 15 7Z" fill="#717171"/>
</svg>
