<svg width="22" height="24" viewBox="0 0 22 24" fill="none" xmlns="http://www.w3.org/2000/svg">
<path d="M13.9523 18.7692V19.6154C13.9523 20.513 13.5886 21.3739 12.9413 22.0087C12.294 22.6434 11.4161 23 10.5006 23C9.58522 23 8.70729 22.6434 8.05998 22.0087C7.41268 21.3739 7.04903 20.513 7.04903 19.6154V18.7692M19.7596 17.0468C18.3746 15.3846 17.3969 14.5385 17.3969 9.95601C17.3969 5.75962 15.2116 4.26457 13.4129 3.53846C13.174 3.44221 12.9491 3.22115 12.8763 2.98053C12.5608 1.9276 11.6764 1 10.5006 1C9.32494 1 8.43992 1.92813 8.12766 2.98159C8.05485 3.22486 7.82995 3.44221 7.59104 3.53846C5.79026 4.26563 3.60711 5.75538 3.60711 9.95601C3.60442 14.5385 2.62664 15.3846 1.24168 17.0468C0.667846 17.7353 1.17049 18.7692 2.17415 18.7692H18.8325C19.8308 18.7692 20.3302 17.7322 19.7596 17.0468Z" stroke="#1B7692" stroke-width="2" stroke-linecap="round" stroke-linejoin="round"/>
</svg>
