<svg width="24" height="30" viewBox="0 0 24 30" fill="none" xmlns="http://www.w3.org/2000/svg">
<path d="M14.1942 25.3398C13.7653 25.3398 13.3927 25.6352 13.3013 26.057C13.2309 26.3734 13.1114 26.6336 12.9497 26.8234C12.8583 26.9289 12.5911 27.2383 11.8177 27.2383C11.0442 27.2383 10.777 26.9219 10.6856 26.8234C10.5239 26.6336 10.4044 26.3734 10.3341 26.057C10.2427 25.6352 9.87 25.3398 9.4411 25.3398C8.85047 25.3398 8.42157 25.8883 8.54813 26.4578C8.89969 28.0258 10.0247 29.0664 11.8177 29.0664C13.6106 29.0664 14.7356 28.0328 15.0872 26.4578C15.2138 25.8883 14.7778 25.3398 14.1942 25.3398Z" fill="white"/>
<path d="M22.7935 21.7672C21.7107 20.3398 19.5802 19.5031 19.5802 13.1117C19.5802 6.55156 16.6834 3.91484 13.9834 3.28203C13.7302 3.21875 13.5474 3.13437 13.5474 2.86719V2.66328C13.5474 1.72812 12.7881 0.933594 11.8599 0.933594C11.8529 0.933594 11.8459 0.933594 11.8388 0.933594C11.8318 0.933594 11.8248 0.933594 11.8177 0.933594C10.8896 0.933594 10.1302 1.72812 10.1302 2.66328V2.86719C10.1302 3.12734 9.94743 3.21875 9.69431 3.28203C6.98728 3.92187 4.09743 6.55156 4.09743 13.1117C4.09743 19.5031 1.96696 20.3328 0.88415 21.7672C0.188056 22.6883 0.848994 24.0031 2.00212 24.0031H11.874H21.6966C22.8287 24.0031 23.4826 22.6812 22.7935 21.7672ZM20.0513 22.175H3.65446C3.38728 22.175 3.24665 21.8656 3.42243 21.6617C3.91462 21.0992 4.45603 20.3609 4.899 19.3133C5.574 17.7242 5.90446 15.6922 5.90446 13.1117C5.90446 10.4891 6.39665 8.43594 7.37399 7.00859C8.24587 5.72891 9.33571 5.24375 10.0951 5.06797C10.6857 4.92734 11.1076 4.66016 11.4029 4.32969C11.6279 4.07656 12.0146 4.0625 12.2396 4.31562C12.5982 4.71641 13.0834 4.95547 13.5615 5.06797C14.3209 5.24375 15.4107 5.72891 16.2826 7.00859C17.2599 8.43594 17.7521 10.4891 17.7521 13.1117C17.7521 15.6922 18.0826 17.7242 18.7576 19.3133C19.2146 20.382 19.7701 21.1344 20.2693 21.6969C20.424 21.8867 20.2974 22.175 20.0513 22.175Z" fill="white"/>
</svg>
