<svg width="25" height="25" viewBox="0 0 25 25" fill="none" xmlns="http://www.w3.org/2000/svg">
<path d="M12.5 1.5625C10.3368 1.5625 8.22212 2.20397 6.42346 3.4058C4.62479 4.60763 3.22291 6.31583 2.39507 8.3144C1.56724 10.313 1.35064 12.5121 1.77267 14.6338C2.19469 16.7555 3.23639 18.7043 4.76602 20.234C6.29566 21.7636 8.24454 22.8053 10.3662 23.2273C12.4879 23.6494 14.687 23.4328 16.6856 22.6049C18.6842 21.7771 20.3924 20.3752 21.5942 18.5765C22.796 16.7779 23.4375 14.6632 23.4375 12.5C23.4375 9.59919 22.2852 6.8172 20.234 4.76602C18.1828 2.71484 15.4008 1.5625 12.5 1.5625ZM12.5 21.875C10.6458 21.875 8.83324 21.3252 7.29153 20.295C5.74982 19.2649 4.54821 17.8007 3.83863 16.0877C3.12906 14.3746 2.94341 12.4896 3.30514 10.671C3.66688 8.85246 4.55976 7.18199 5.87088 5.87087C7.182 4.55976 8.85246 3.66687 10.671 3.30514C12.4896 2.9434 14.3746 3.12906 16.0877 3.83863C17.8007 4.5482 19.2649 5.74982 20.295 7.29153C21.3252 8.83324 21.875 10.6458 21.875 12.5C21.875 14.9864 20.8873 17.371 19.1291 19.1291C17.371 20.8873 14.9864 21.875 12.5 21.875Z" fill="#FFFF"/>
<path d="M12.5 19.5312C13.1472 19.5312 13.6719 19.0066 13.6719 18.3594C13.6719 17.7122 13.1472 17.1875 12.5 17.1875C11.8528 17.1875 11.3281 17.7122 11.3281 18.3594C11.3281 19.0066 11.8528 19.5312 12.5 19.5312Z" fill="#FFFF"/>
<path d="M13.2813 6.25001H12.1094C11.6474 6.24898 11.1898 6.33921 10.7628 6.51552C10.3358 6.69183 9.94783 6.95075 9.62116 7.27741C9.2945 7.60408 9.03558 7.99204 8.85927 8.41904C8.68296 8.84605 8.59273 9.30367 8.59376 9.76563V10.1563H10.1563V9.76563C10.1563 9.24763 10.362 8.75085 10.7283 8.38457C11.0946 8.01828 11.5914 7.81251 12.1094 7.81251H13.2813C13.7993 7.81251 14.296 8.01828 14.6623 8.38457C15.0286 8.75085 15.2344 9.24763 15.2344 9.76563C15.2344 10.2836 15.0286 10.7804 14.6623 11.1467C14.296 11.513 13.7993 11.7188 13.2813 11.7188H11.7188V15.2344H13.2813V13.2813C14.2137 13.2813 15.1079 12.9109 15.7672 12.2516C16.4265 11.5922 16.7969 10.698 16.7969 9.76563C16.7969 8.83323 16.4265 7.93902 15.7672 7.27971C15.1079 6.6204 14.2137 6.25001 13.2813 6.25001Z" fill="#FFFF"/>
</svg>
