<svg width="32" height="32" viewBox="0 0 32 32" fill="none" xmlns="http://www.w3.org/2000/svg">
<path d="M12.0001 25C11.2621 25 10.6241 25.405 10.2771 26H4.64706L7.29506 20.908C7.52206 20.963 7.75606 21 8.00006 21C9.65406 21 11.0001 19.654 11.0001 18C11.0001 16.346 9.65406 15 8.00006 15C6.34606 15 5.00006 16.346 5.00006 18C5.00006 18.679 5.23506 19.298 5.61606 19.801L2.11306 26.54C2.03412 26.6924 1.99573 26.8625 2.00155 27.034C2.00738 27.2055 2.05724 27.3726 2.14634 27.5192C2.23543 27.6659 2.36077 27.7871 2.51028 27.8713C2.6598 27.9555 2.82846 27.9998 3.00006 28H10.2771C10.6241 28.595 11.2621 29 12.0001 29C12.5305 29 13.0392 28.7893 13.4143 28.4142C13.7893 28.0391 14.0001 27.5304 14.0001 27C14.0001 26.4696 13.7893 25.9609 13.4143 25.5858C13.0392 25.2107 12.5305 25 12.0001 25ZM8.00006 17C8.25754 17.0115 8.50065 17.1219 8.67878 17.3082C8.85691 17.4945 8.95633 17.7423 8.95633 18C8.95633 18.2577 8.85691 18.5055 8.67878 18.6918C8.50065 18.8781 8.25754 18.9885 8.00006 19C7.73484 19 7.48049 18.8946 7.29295 18.7071C7.10542 18.5196 7.00006 18.2652 7.00006 18C7.00006 17.7348 7.10542 17.4804 7.29295 17.2929C7.48049 17.1054 7.73484 17 8.00006 17ZM29.8871 26.539L25.8471 18.768C26.0119 18.3717 26.0448 17.9329 25.9411 17.5165C25.8373 17.1001 25.6024 16.728 25.2709 16.4554C24.9394 16.1828 24.5291 16.024 24.1004 16.0025C23.6718 15.981 23.2476 16.098 22.8906 16.3362C22.5335 16.5743 22.2626 16.921 22.1177 17.325C21.9729 17.729 21.9618 18.1689 22.0862 18.5796C22.2106 18.9904 22.4638 19.3503 22.8085 19.606C23.1531 19.8618 23.5709 19.9999 24.0001 20C24.0751 20 24.1471 19.986 24.2201 19.977L27.3531 26H22.8161C22.6106 25.4167 22.2296 24.9113 21.7254 24.5532C21.2212 24.1951 20.6185 24.0018 20.0001 24C18.3461 24 17.0001 25.346 17.0001 27C17.0001 28.654 18.3461 30 20.0001 30C20.6185 29.9982 21.2212 29.8049 21.7254 29.4468C22.2296 29.0887 22.6106 28.5833 22.8161 28H29.0001C29.1719 28 29.3409 27.9557 29.4907 27.8714C29.6405 27.7871 29.766 27.6656 29.8551 27.5187C29.9443 27.3718 29.9941 27.2043 29.9996 27.0325C30.0052 26.8608 29.9665 26.6914 29.8871 26.539ZM20.0001 28C19.7426 27.9885 19.4995 27.8781 19.3213 27.6918C19.1432 27.5055 19.0438 27.2577 19.0438 27C19.0438 26.7423 19.1432 26.4945 19.3213 26.3082C19.4995 26.1219 19.7426 26.0115 20.0001 26C20.2575 26.0115 20.5007 26.1219 20.6788 26.3082C20.8569 26.4945 20.9563 26.7423 20.9563 27C20.9563 27.2577 20.8569 27.5055 20.6788 27.6918C20.5007 27.8781 20.2575 27.9885 20.0001 28ZM21.0001 8C20.7622 8.00261 20.5256 8.0335 20.2951 8.092L16.8871 1.54C16.7151 1.207 16.3571 1 16.0001 1C15.6431 1 15.2851 1.207 15.1131 1.539L11.2201 9.023C11.1481 9.014 11.0761 9 11.0001 9C10.5708 8.99986 10.153 9.1378 9.80818 9.39345C9.46339 9.6491 9.21 10.0089 9.08545 10.4196C8.9609 10.8304 8.97179 11.2703 9.11652 11.6744C9.26126 12.0785 9.53215 12.4253 9.88916 12.6635C10.2462 12.9018 10.6704 13.0189 11.0991 12.9975C11.5277 12.9761 11.9382 12.8174 12.2697 12.5448C12.6012 12.2721 12.8362 11.9001 12.94 11.4836C13.0438 11.0671 13.0109 10.6283 12.8461 10.232L16.0001 4.168L18.6161 9.198C18.2185 9.71477 18.002 10.348 18.0001 11C18.0001 12.654 19.3461 14 21.0001 14C22.6541 14 24.0001 12.654 24.0001 11C24.0001 9.346 22.6541 8 21.0001 8ZM21.0001 12C20.7426 11.9885 20.4995 11.8781 20.3213 11.6918C20.1432 11.5055 20.0438 11.2577 20.0438 11C20.0438 10.7423 20.1432 10.4945 20.3213 10.3082C20.4995 10.1219 20.7426 10.0115 21.0001 10C21.2575 10.0115 21.5007 10.1219 21.6788 10.3082C21.8569 10.4945 21.9563 10.7423 21.9563 11C21.9563 11.2577 21.8569 11.5055 21.6788 11.6918C21.5007 11.8781 21.2575 11.9885 21.0001 12Z" fill="#1B7692"/>
</svg>
