<svg width="25" height="25" viewBox="0 0 25 25" fill="none" xmlns="http://www.w3.org/2000/svg">
<path d="M23.2086 15.0727L20.8648 12.7289C20.7183 12.5824 20.5197 12.5002 20.3125 12.5002C20.1053 12.5002 19.9067 12.5824 19.7602 12.7289L12.5 19.9891V23.4375H15.9484L23.2086 16.1773C23.3551 16.0308 23.4373 15.8322 23.4373 15.625C23.4373 15.4178 23.3551 15.2192 23.2086 15.0727ZM15.3016 21.875H14.0625V20.6359L17.9687 16.7297L19.2078 17.9688L15.3016 21.875ZM20.3125 16.8641L19.0734 15.625L20.3125 14.3859L21.5516 15.625L20.3125 16.8641ZM6.25 12.5H14.0625V14.0625H6.25V12.5ZM6.25 7.8125H15.625V9.375H6.25V7.8125Z" fill="#1B7692"/>
<path d="M20.3125 3.125C20.3121 2.71073 20.1473 2.31354 19.8544 2.0206C19.5615 1.72767 19.1643 1.56291 18.75 1.5625H3.12501C2.71073 1.56291 2.31354 1.72767 2.02061 2.0206C1.72767 2.31354 1.56292 2.71073 1.56251 3.125V13.2812C1.56076 14.8393 1.98338 16.3685 2.78499 17.7045C3.5866 19.0406 4.73693 20.1331 6.1125 20.8648L10.1563 23.0211V21.25L6.84844 19.4859C5.72293 18.8873 4.78169 17.9934 4.12571 16.9003C3.46974 15.8072 3.12379 14.5561 3.12501 13.2812V3.125H18.75V10.1562H20.3125V3.125Z" fill="#1B7692"/>
</svg>
