<svg width="22" height="22" viewBox="0 0 22 22" fill="none" xmlns="http://www.w3.org/2000/svg">
<g clip-path="url(#clip0_470_4217)">
<path d="M20.6006 10.567L11.4339 1.40036C11.3194 1.28654 11.1646 1.22266 11.0031 1.22266C10.8417 1.22266 10.6868 1.28654 10.5723 1.40036L1.40561 10.567C1.3055 10.6839 1.25318 10.8343 1.25912 10.9881C1.26506 11.1419 1.32882 11.2878 1.43766 11.3967C1.54649 11.5055 1.69239 11.5692 1.84619 11.5752C1.99999 11.5811 2.15037 11.5288 2.26728 11.4287L11.0001 2.69592L19.7328 11.4348C19.8497 11.5349 20.0001 11.5872 20.1539 11.5813C20.3077 11.5754 20.4536 11.5116 20.5625 11.4028C20.6713 11.2939 20.7351 11.148 20.741 10.9942C20.7469 10.8404 20.6946 10.69 20.5945 10.5731L20.6006 10.567Z" fill="black"/>
<path d="M17.1111 19.5557H14.0555V13.4446H7.9444V19.5557H4.88885V11.0002L3.66663 12.2224V19.5557C3.66663 19.8799 3.7954 20.1908 4.02461 20.42C4.25382 20.6492 4.56469 20.778 4.88885 20.778H9.16663V14.6668H12.8333V20.778H17.1111C17.4352 20.778 17.7461 20.6492 17.9753 20.42C18.2045 20.1908 18.3333 19.8799 18.3333 19.5557V12.0757L17.1111 10.8535V19.5557Z" fill="black"/>
</g>
<defs>
<clipPath id="clip0_470_4217">
<rect width="22" height="22" fill="white"/>
</clipPath>
</defs>
</svg>
