<svg width="25" height="24" viewBox="0 0 25 24" fill="none" xmlns="http://www.w3.org/2000/svg">
<path d="M21 9L19.005 20.346C18.9236 20.8094 18.6815 21.2292 18.3212 21.5317C17.9609 21.8342 17.5055 22 17.035 22H8.965C8.49454 22 8.03913 21.8342 7.67882 21.5317C7.31852 21.2292 7.07639 20.8094 6.995 20.346L5 9" stroke="black" stroke-width="1.5" stroke-linecap="round" stroke-linejoin="round"/>
<path d="M18.4387 3.89793L12.9553 5.15202M12.9553 5.15202L12.5094 3.20236C12.3912 2.68528 12.0723 2.23636 11.6231 1.95435C11.1738 1.67234 10.6309 1.58035 10.1139 1.69861L7.43308 2.31172C6.91599 2.42998 6.46707 2.74881 6.18506 3.19806C5.90305 3.64732 5.81106 4.1902 5.92932 4.70728L6.37522 6.65694M12.9553 5.15202L6.37522 6.65694M0.891802 7.91104L6.37522 6.65694" stroke="black" stroke-width="1.5" stroke-linecap="round" stroke-linejoin="round"/>
</svg>
