<svg width="18" height="18" viewBox="0 0 18 18" fill="none" xmlns="http://www.w3.org/2000/svg">
<path d="M10.5261 16.5116H7.22382V17.75H10.5261V16.5116ZM1.23837 10.5262V7.22386H1.045e-06V10.5262H1.23837ZM16.5116 10.1654V10.5262H17.7499V10.1654H16.5116ZM11.2617 2.77482L14.5302 5.71635L15.3582 4.79501L12.0906 1.85347L11.2617 2.77482ZM17.7499 10.1654C17.7499 8.771 17.7623 7.88763 17.4115 7.09837L16.2796 7.6028C16.4992 8.0965 16.5116 8.66202 16.5116 10.1654H17.7499ZM14.5302 5.71635C15.6472 6.72191 16.06 7.10993 16.2796 7.6028L17.4115 7.09837C17.0598 6.30829 16.3952 5.72791 15.3582 4.79501L14.5302 5.71635ZM7.24858 1.23841C8.55465 1.23841 9.04752 1.24832 9.4859 1.41674L9.93006 0.260929C9.22667 -0.00986091 8.46053 4.60553e-05 7.24858 4.60553e-05V1.23841ZM12.0906 1.8543C11.194 1.04771 10.6335 0.530068 9.93006 0.260929L9.48673 1.41674C9.92593 1.58516 10.2958 1.90548 11.2617 2.77482L12.0906 1.8543ZM7.22382 16.5116C5.64944 16.5116 4.5316 16.51 3.68208 16.396C2.85238 16.2846 2.37354 16.0749 2.02432 15.7257L1.14921 16.6008C1.76674 17.22 2.55021 17.4932 3.51779 17.6237C4.46721 17.7516 5.68494 17.75 7.22382 17.75V16.5116ZM1.045e-06 10.5262C1.045e-06 12.0651 -0.00165012 13.282 0.126315 14.2322C0.256756 15.1998 0.530848 15.9833 1.14838 16.6016L2.02349 15.7265C1.6751 15.3765 1.4654 14.8976 1.35395 14.0671C1.24002 13.2192 1.23837 12.1006 1.23837 10.5262H1.045e-06ZM10.5261 17.75C12.065 17.75 13.2819 17.7516 14.2322 17.6237C15.1997 17.4932 15.9832 17.2191 16.6016 16.6016L15.7265 15.7265C15.3764 16.0749 14.8976 16.2846 14.067 16.396C13.2192 16.51 12.1005 16.5116 10.5261 16.5116V17.75ZM16.5116 10.5262C16.5116 12.1006 16.5099 13.2192 16.396 14.0679C16.2845 14.8976 16.0748 15.3765 15.7256 15.7257L16.6007 16.6008C17.2199 15.9833 17.4932 15.1998 17.6236 14.2322C17.7516 13.2828 17.7499 12.0651 17.7499 10.5262H16.5116ZM1.23837 7.22386C1.23837 5.64948 1.24002 4.53165 1.35395 3.68213C1.4654 2.85242 1.6751 2.37359 2.02432 2.02437L1.14921 1.14925C0.530023 1.76678 0.256756 2.55026 0.126315 3.51784C-0.00165012 4.46725 1.045e-06 5.68498 1.045e-06 7.22386H1.23837ZM7.24858 4.60553e-05C5.70062 4.60553e-05 4.47794 -0.0016051 3.5244 0.12636C2.55269 0.256801 1.76674 0.530893 1.14838 1.14843L2.02349 2.02354C2.37354 1.67515 2.8532 1.46545 3.68869 1.354C4.54151 1.24007 5.66595 1.23841 7.24858 1.23841V4.60553e-05Z" fill="#1B7692"/>
<path opacity="0.5" d="M9.7002 1.03125V3.0952C9.7002 5.04109 9.7002 6.01444 10.3045 6.61877C10.9088 7.22309 11.8822 7.22309 13.8281 7.22309H17.1304" stroke="#1B7692" stroke-width="1.5"/>
<path opacity="0.5" d="M4.74745 10.5273L3.92188 11.3529L4.74745 12.1785M8.46256 12.1785L9.28814 13.0041L8.46256 13.8297M7.22419 10.5273L5.98582 13.8297" stroke="#1B7692" stroke-width="1.5" stroke-linecap="round" stroke-linejoin="round"/>
</svg>
