<svg width="43" height="43" viewBox="0 0 43 43" fill="none" xmlns="http://www.w3.org/2000/svg">
<path d="M38.0797 38.7869L39.4981 40.2053C38.1664 41.3591 36.5034 41.9164 34.4111 42.1985C32.252 42.4892 29.5024 42.4996 25.9999 42.5V40.5C29.5426 40.4992 32.1424 40.4846 34.1444 40.2156M38.0797 38.7869C37.1651 39.5322 35.9564 39.9724 34.1444 40.2156M38.0797 38.7869L37.7443 38.4516L37.7423 38.4496L37.7241 38.4313M38.0797 38.7869L37.7241 38.4313M34.1444 40.2156L34.0779 39.72M34.1444 40.2156C34.1444 40.2156 34.1445 40.2155 34.1445 40.2155L34.0779 39.72M34.0779 39.72C35.8098 39.4876 36.9104 39.0789 37.7241 38.4313M34.0779 39.72L37.7241 38.4313M23.4035 0.936144C22.0203 0.515352 20.4556 0.500286 18.06 0.500072V0.000111571V6.7425e-06C20.4529 -0.000347311 22.1038 0.0114632 23.5832 0.468432L23.4035 0.936144ZM23.4035 0.936144L22.6838 2.80878M23.4035 0.936144C23.4036 0.936176 23.4037 0.936207 23.4038 0.936238L22.6853 2.8092C22.6848 2.80906 22.6843 2.80892 22.6838 2.80878M22.6838 2.80878C21.6804 2.53103 20.4396 2.50279 18.06 2.50032V3.0001V3.00038C20.4265 3.00333 21.5936 3.03426 22.5055 3.27813L22.515 3.25342L22.5132 3.25275L22.6838 2.80878ZM23.6192 3.16689C23.6187 3.16666 23.6182 3.16642 23.6178 3.16619L24.3371 1.29438C24.3372 1.29443 24.3373 1.29448 24.3374 1.29452M23.6192 3.16689L23.4488 3.61117L23.447 3.6105L23.4467 3.61146L23.4376 3.63498C24.2776 4.06292 25.1593 4.81593 26.9101 6.38781L26.9102 6.38768L26.9104 6.38752L26.9109 6.38688L27.2446 6.01605M23.6192 3.16689L24.3374 1.29452M23.6192 3.16689C24.5499 3.63095 25.4845 4.43521 27.2446 6.01605M27.2446 6.01605C27.2446 6.0161 27.2447 6.01615 27.2447 6.0162L28.5837 4.52923C28.5834 4.52898 28.5831 4.52873 28.5828 4.52848M27.2446 6.01605L28.5828 4.52848M28.5828 4.52848L28.9173 4.15672C27.1488 2.5653 25.9194 1.47534 24.5168 0.826705L24.3374 1.29452M28.5828 4.52848C26.8121 2.93579 25.6444 1.9057 24.3374 1.29452M27.9882 6.68501L27.988 6.68486L29.3271 5.19634L29.328 5.19708M27.9882 6.68501L27.6536 7.0565L27.6536 7.05657L34.8283 13.5136L35.1625 13.1417L27.9882 6.68501ZM27.9882 6.68501L29.328 5.19708M29.328 5.19708L36.5001 11.6534L36.834 11.2819L36.8343 11.2816L29.6625 4.82552L29.6615 4.82667L29.328 5.19708ZM4.92026 4.21326L5.25554 4.54854L5.25754 4.55054L5.27588 4.56888C6.09022 3.92127 7.19375 3.51251 8.93598 3.2801M4.92026 4.21326L8.86987 2.78449M4.92026 4.21326C5.83568 3.46771 7.04758 3.02759 8.86977 2.78451M4.92026 4.21326L8.86977 2.78451M8.93598 3.2801C10.911 3.01626 13.4874 3.00098 17.06 3.00015V3.0001V2.50014C13.4973 2.50091 10.8836 2.51548 8.86987 2.78449M8.93598 3.2801L8.86977 2.78451M8.93598 3.2801L8.86987 2.78449M8.86987 2.78449L8.86977 2.78451M2.79599 3.50321L2.44163 3.14884C1.18085 4.58495 0.596859 6.36459 0.306002 8.52209M2.79599 3.50321L0.306002 8.52209M2.79599 3.50321C1.63959 4.8331 1.0837 6.49574 0.801519 8.58889M2.79599 3.50321L0.500013 17.0001C0.500361 13.4974 0.510765 10.7461 0.801519 8.58889M0.306002 8.52209L0.801519 8.58889M0.306002 8.52209L0.801519 8.58889M0.500013 26H2.53155e-06C0.000277411 29.4928 0.00999344 32.2799 0.306002 34.478L0.500013 26ZM0.500013 26C0.50036 29.5025 0.510763 32.2521 0.801519 34.4112L0.500013 26ZM2.50004 26C2.5008 29.5427 2.51543 32.1426 2.78445 34.1446M2.50004 26L4.2131 38.0798C3.46785 37.1653 3.02761 35.9565 2.78445 34.1446M2.50004 26H2.99999H3.00004C3.00088 29.5526 3.01621 32.1149 3.27999 34.078M2.50004 26L3.27999 34.078M2.78445 34.1446L3.27999 34.078M2.78445 34.1446C2.78444 34.1446 2.78444 34.1446 2.78444 34.1445L3.27999 34.078M3.5031 40.204L4.92154 38.7856C5.83495 39.5324 7.0438 39.9725 8.85341 40.2156L8.85352 40.2156C10.8593 40.4846 13.4573 40.4992 17 40.5V42.5C13.4973 42.4996 10.746 42.4892 8.58878 42.1985C6.49563 41.9163 4.83299 41.3604 3.5031 40.204ZM18 42.5V40.5H24.9999V42.5H18ZM39.7199 34.08C39.4875 35.8101 39.0788 36.9105 38.4299 37.7229L38.4495 37.7425L38.4515 37.7445L38.7855 38.0785C39.5323 37.1651 39.9724 35.9562 40.2154 34.1466L40.2155 34.1465C40.4845 32.1427 40.4991 29.5428 40.4999 26H39.9999H39.9999C39.999 29.5527 39.9837 32.115 39.7199 34.08ZM40.5583 39.8513L40.2039 39.4969C41.3603 38.167 41.9162 36.5044 42.1984 34.4112C42.4891 32.254 42.4995 29.5027 42.4999 26H42.9999C42.9996 29.493 42.9899 32.2818 42.6939 34.478C42.403 36.6355 41.819 38.4152 40.5583 39.8513ZM42.9999 24.126H42.4999C42.4999 21.2865 42.4837 19.4546 41.9098 17.8639L42.3675 17.6599C42.9893 19.3602 43.0006 21.2941 43 24.126H42.9999ZM37.2434 12.3223C39.3554 14.2224 40.7056 15.4574 41.5033 16.9502L41.961 16.7462C41.1137 15.1444 39.6842 13.8446 37.5777 11.9504L37.2434 12.3223ZM17.06 0.000116135V0.500122C13.5358 0.500463 10.772 0.510788 8.60448 0.801668C6.50257 1.08383 4.83414 1.64134 3.50186 2.79486L3.14744 2.44044C4.58595 1.18261 6.37136 0.596957 8.53798 0.306111C10.7443 0.0100202 13.5455 0.000384721 17.06 0.000116135ZM3.27999 8.92009C3.5124 7.18997 3.92114 6.08961 4.56999 5.2772L4.55044 5.25765L4.54844 5.25565L4.21444 4.92165C3.46764 5.83505 3.02753 7.04391 2.78444 8.85352L2.78443 8.85363C2.51544 10.8594 2.50081 13.4575 2.50004 17.0001H2.99999H3.00004C3.00088 13.4476 3.01621 10.887 3.27999 8.92009ZM0.500003 25V18.0001H2.53155e-06V25H0.500003ZM2.49999 18.0001V25H2.99999V18.0001H2.49999ZM35.5718 14.1823L35.9056 13.8109C38.0174 15.7154 39.067 16.7063 39.669 17.7677L39.2344 17.9614L39.2102 17.9721C38.6562 17.0159 37.6758 16.0815 35.5714 14.1828L35.5718 14.1823ZM39.6414 18.8748L40.0758 18.6812C40.4625 19.8395 40.4971 21.281 40.4997 24.126H39.9999H39.9996C39.9964 21.2905 39.9576 19.9379 39.617 18.8856L39.6414 18.8748ZM2.79469 39.4982C1.64092 38.1665 1.0836 36.5036 0.801529 34.4113L2.79469 39.4982Z" fill="#1B7692" stroke="#0CB0BC"/>
<path opacity="0.5" d="M23.499 2.5V7.49999C23.499 12.214 23.499 14.572 24.963 16.036C26.427 17.5 28.785 17.5 33.499 17.5H41.499" stroke="#0CB0BC" stroke-width="1.5"/>
<path opacity="0.5" d="M11.4995 25.5039L9.49951 27.5039L11.4995 29.5039M20.4995 29.5039L22.4995 31.5039L20.4995 33.5039M17.4995 25.5039L14.4995 33.5039" stroke="#0CB0BC" stroke-width="1.5" stroke-linecap="round" stroke-linejoin="round"/>
</svg>
