<svg width="20" height="20" viewBox="0 0 20 20" fill="none" xmlns="http://www.w3.org/2000/svg">
<path d="M13.4612 14.1211L13.3048 14.2764L13.314 14.4966C13.3665 15.7572 13.3665 16.3439 13.3309 16.6275C13.3289 16.6431 13.3269 16.6567 13.325 16.6687L11.7999 17.2851C11.7879 17.2765 11.7739 17.2662 11.7578 17.2537C11.5276 17.0755 11.105 16.6587 10.2371 15.7323L10.0915 15.5769L9.87856 15.5742L9.12925 15.5647L8.90589 15.5619L8.75475 15.7264C7.91455 16.6407 7.50714 17.0478 7.28525 17.2193C7.27345 17.2285 7.26287 17.2364 7.25348 17.2431L5.7435 16.5832C5.65412 15.8568 5.63418 15.1233 5.684 14.3928L5.69908 14.1717L5.54539 14.0121L5.01102 13.4569L4.85812 13.2981L4.63772 13.3038C3.39789 13.3362 2.82126 13.3269 2.54251 13.2873C2.52577 13.285 2.51124 13.2826 2.49872 13.2804L1.86498 11.7116C1.87323 11.6996 1.88329 11.6854 1.89551 11.6691C2.06635 11.4405 2.46886 11.0196 3.36843 10.153L3.52154 10.0055V9.79289V9.02102V8.80674L3.36637 8.65895C2.59575 7.925 2.19951 7.51465 1.9951 7.28407C1.91401 7.1926 1.86778 7.13463 1.84219 7.10005L2.47581 5.55967C2.48941 5.55734 2.50539 5.5549 2.52401 5.55246C2.80685 5.51538 3.38911 5.51074 4.63742 5.55153L4.85355 5.55859L5.00671 5.40594L5.53693 4.87751L5.69234 4.72262L5.68357 4.50338C5.63318 3.24359 5.63423 2.65682 5.67027 2.37289C5.67237 2.35635 5.67448 2.34192 5.67652 2.32941L7.20645 1.7108C7.21809 1.71914 7.23159 1.72918 7.24707 1.74122C7.47637 1.91961 7.89667 2.33629 8.76395 3.26207L8.90908 3.41698L9.12132 3.42018L9.87063 3.43146L10.0948 3.43483L10.2464 3.26969C11.0894 2.35175 11.4973 1.94547 11.7187 1.77639C11.7284 1.76899 11.7372 1.76246 11.7452 1.75669L13.255 2.41666C13.3455 3.14384 13.3661 3.87813 13.3165 4.60947L13.3014 4.83126L13.456 4.99101L13.9904 5.5432L14.1434 5.70131L14.3634 5.6953C15.6027 5.66142 16.1798 5.67187 16.4581 5.71197C16.4754 5.71446 16.4903 5.71692 16.5031 5.71925L17.1362 7.28359C17.128 7.2957 17.1178 7.3099 17.1055 7.32633C16.9344 7.55503 16.5316 7.97606 15.6321 8.84261L15.4789 8.99011V9.2027V9.97695V10.1911L15.6339 10.3388C16.4028 11.0719 16.7991 11.4825 17.004 11.7137C17.087 11.8073 17.1338 11.8661 17.1593 11.9007L16.5281 13.4374C16.5143 13.4398 16.4981 13.4423 16.4791 13.4447C16.1959 13.4817 15.6133 13.486 14.3642 13.4453L14.1486 13.4382L13.9955 13.5903L13.4612 14.1211ZM6.30587 10.7809L6.30583 10.7809L6.30795 10.7862C6.64648 11.6413 7.30996 12.3274 8.15319 12.6945C8.99642 13.0615 9.95071 13.0795 10.8072 12.7446L10.8072 12.7446L10.8125 12.7425C11.4413 12.4882 11.981 12.0539 12.3639 11.494C12.7467 10.9342 12.9557 10.2737 12.9646 9.59555C12.9735 8.91737 12.7819 8.25166 12.4139 7.68195C12.0459 7.11225 11.5178 6.66393 10.8959 6.39324C10.274 6.12256 9.58602 6.04156 8.91828 6.16043C8.25053 6.27929 7.63276 6.59272 7.14248 7.06137C6.6522 7.53003 6.31125 8.13305 6.16242 8.79476C6.01358 9.45647 6.06348 10.1474 6.30587 10.7809Z" stroke="#1B7692"/>
</svg>
