<svg width="17" height="17" viewBox="0 0 17 17" fill="none" xmlns="http://www.w3.org/2000/svg">
<path d="M12.4612 13.1211L12.3048 13.2764L12.314 13.4966C12.3665 14.7572 12.3665 15.3439 12.3309 15.6275C12.3289 15.6431 12.3269 15.6567 12.325 15.6687L10.7999 16.2851C10.7879 16.2765 10.7739 16.2662 10.7578 16.2537C10.5276 16.0755 10.105 15.6587 9.2371 14.7323L9.0915 14.5769L8.87856 14.5742L8.12925 14.5647L7.90589 14.5619L7.75475 14.7264C6.91455 15.6407 6.50714 16.0478 6.28525 16.2193C6.27345 16.2285 6.26287 16.2364 6.25348 16.2431L4.7435 15.5832C4.65412 14.8568 4.63418 14.1233 4.684 13.3928L4.69908 13.1717L4.54539 13.0121L4.01102 12.4569L3.85812 12.2981L3.63772 12.3038C2.39789 12.3362 1.82126 12.3269 1.54251 12.2873C1.52577 12.285 1.51124 12.2826 1.49872 12.2804L0.864984 10.7116C0.873225 10.6996 0.883285 10.6854 0.895509 10.6691C1.06635 10.4405 1.46886 10.0196 2.36843 9.15298L2.52154 9.00549V8.79289V8.02102V7.80674L2.36637 7.65895C1.59575 6.925 1.19951 6.51465 0.995099 6.28407C0.91401 6.1926 0.867783 6.13463 0.842189 6.10005L1.47581 4.55967C1.48941 4.55734 1.50539 4.5549 1.52401 4.55246C1.80685 4.51538 2.38911 4.51074 3.63742 4.55153L3.85355 4.55859L4.00671 4.40594L4.53693 3.87751L4.69234 3.72262L4.68357 3.50338C4.63318 2.24359 4.63423 1.65682 4.67027 1.37289C4.67237 1.35635 4.67448 1.34192 4.67652 1.32941L6.20645 0.710801C6.21809 0.71914 6.23159 0.729181 6.24707 0.741221C6.47637 0.919607 6.89667 1.33629 7.76395 2.26207L7.90908 2.41698L8.12132 2.42018L8.87063 2.43146L9.09481 2.43483L9.24645 2.26969C10.0894 1.35175 10.4973 0.945466 10.7187 0.77639C10.7284 0.768994 10.7372 0.762458 10.7452 0.756695L12.255 1.41666C12.3455 2.14384 12.3661 2.87813 12.3165 3.60947L12.3014 3.83126L12.456 3.99101L12.9904 4.5432L13.1434 4.70131L13.3634 4.6953C14.6027 4.66142 15.1798 4.67187 15.4581 4.71197C15.4754 4.71446 15.4903 4.71692 15.5031 4.71925L16.1362 6.28359C16.128 6.2957 16.1178 6.3099 16.1055 6.32633C15.9344 6.55503 15.5316 6.97606 14.6321 7.84261L14.4789 7.99011V8.2027V8.97695V9.19107L14.6339 9.33883C15.4028 10.0719 15.7991 10.4825 16.004 10.7137C16.087 10.8073 16.1338 10.8661 16.1593 10.9007L15.5281 12.4374C15.5143 12.4398 15.4981 12.4423 15.4791 12.4447C15.1959 12.4817 14.6133 12.486 13.3642 12.4453L13.1486 12.4382L12.9955 12.5903L12.4612 13.1211ZM5.30587 9.78086L5.30583 9.78087L5.30795 9.78622C5.64648 10.6413 6.30996 11.3274 7.15319 11.6945C7.99642 12.0615 8.95071 12.0795 9.80719 11.7446L9.80721 11.7446L9.81254 11.7425C10.4413 11.4882 10.981 11.0539 11.3639 10.494C11.7467 9.93419 11.9557 9.27374 11.9646 8.59555C11.9735 7.91737 11.7819 7.25166 11.4139 6.68195C11.0459 6.11225 10.5178 5.66393 9.89589 5.39324C9.274 5.12256 8.58602 5.04156 7.91828 5.16043C7.25053 5.27929 6.63276 5.59272 6.14248 6.06137C5.6522 6.53003 5.31125 7.13305 5.16242 7.79476C5.01358 8.45647 5.06348 9.1474 5.30587 9.78086Z" stroke="#1B7692"/>
</svg>
