<svg width="18" height="18" viewBox="0 0 18 18" fill="none" xmlns="http://www.w3.org/2000/svg">
<path d="M10.75 13.5H2.75C2.02065 13.5 1.32118 13.2103 0.805456 12.6945C0.289731 12.1788 0 11.4793 0 10.75V2.75C0 2.02065 0.289731 1.32118 0.805456 0.805456C1.32118 0.289731 2.02065 0 2.75 0H10.75C11.4793 0 12.1788 0.289731 12.6945 0.805456C13.2103 1.32118 13.5 2.02065 13.5 2.75V10.75C13.5 11.4793 13.2103 12.1788 12.6945 12.6945C12.1788 13.2103 11.4793 13.5 10.75 13.5ZM2.75 1.5C2.41848 1.5 2.10054 1.6317 1.86612 1.86612C1.6317 2.10054 1.5 2.41848 1.5 2.75V10.75C1.5 11.0815 1.6317 11.3995 1.86612 11.6339C2.10054 11.8683 2.41848 12 2.75 12H10.75C11.0815 12 11.3995 11.8683 11.6339 11.6339C11.8683 11.3995 12 11.0815 12 10.75V2.75C12 2.41848 11.8683 2.10054 11.6339 1.86612C11.3995 1.6317 11.0815 1.5 10.75 1.5H2.75Z" fill="#1B7692"/>
<path d="M14.75 17.5H6.75C6.02065 17.5 5.32118 17.2103 4.80546 16.6945C4.28973 16.1788 4 15.4793 4 14.75V12.75H5.5V14.75C5.5 15.0815 5.6317 15.3995 5.86612 15.6339C6.10054 15.8683 6.41848 16 6.75 16H14.75C15.0815 16 15.3995 15.8683 15.6339 15.6339C15.8683 15.3995 16 15.0815 16 14.75V6.75C16 6.41848 15.8683 6.10054 15.6339 5.86612C15.3995 5.6317 15.0815 5.5 14.75 5.5H12.75V4H14.75C15.4793 4 16.1788 4.28973 16.6945 4.80546C17.2103 5.32118 17.5 6.02065 17.5 6.75V14.75C17.5 15.4793 17.2103 16.1788 16.6945 16.6945C16.1788 17.2103 15.4793 17.5 14.75 17.5Z" fill="#1B7692"/>
</svg>
