<svg width="20" height="20" viewBox="0 0 20 20" fill="none" xmlns="http://www.w3.org/2000/svg">
<path d="M15.9093 19.0873C14.7389 17.1146 12.9352 15.7001 10.8303 15.0295C11.8715 14.4253 12.6804 13.5045 13.1329 12.4086C13.5854 11.3128 13.6563 10.1024 13.3349 8.9634C13.0135 7.82441 12.3174 6.81978 11.3537 6.10378C10.3899 5.38778 9.2117 5 8 5C6.7883 5 5.6101 5.38778 4.64633 6.10378C3.68257 6.81978 2.98653 7.82441 2.6651 8.9634C2.34368 10.1024 2.41464 11.3128 2.8671 12.4086C3.31955 13.5045 4.12848 14.4253 5.16965 15.0295C3.06476 15.6993 1.26112 17.1138 0.0907097 19.0873C0.0477887 19.1555 0.0193195 19.2314 0.00698187 19.3106C-0.00535579 19.3897 -0.00131202 19.4704 0.0188746 19.548C0.0390612 19.6256 0.0749818 19.6984 0.124517 19.7623C0.174052 19.8261 0.236198 19.8796 0.307289 19.9196C0.37838 19.9597 0.456975 19.9854 0.538437 19.9954C0.6199 20.0053 0.702579 19.9992 0.781598 19.9775C0.860616 19.9558 0.934373 19.9189 0.998516 19.8689C1.06266 19.819 1.11589 19.757 1.15507 19.6866C2.6029 17.2472 5.16197 15.7907 8 15.7907C10.838 15.7907 13.3971 17.2472 14.8449 19.6866C14.8841 19.757 14.9373 19.819 15.0015 19.8689C15.0656 19.9189 15.1394 19.9558 15.2184 19.9775C15.2974 19.9992 15.3801 20.0053 15.4616 19.9954C15.543 19.9854 15.6216 19.9597 15.6927 19.9196C15.7638 19.8796 15.8259 19.8261 15.8755 19.7623C15.925 19.6984 15.9609 19.6256 15.9811 19.548C16.0013 19.4704 16.0054 19.3897 15.993 19.3106C15.9807 19.2314 15.9522 19.1555 15.9093 19.0873ZM3.69646 10.3964C3.69646 9.56657 3.94886 8.7554 4.42174 8.06543C4.89462 7.37547 5.56674 6.83771 6.35311 6.52015C7.13948 6.2026 8.00478 6.11951 8.83958 6.2814C9.67438 6.44329 10.4412 6.84288 11.0431 7.42965C11.6449 8.01641 12.0548 8.764 12.2208 9.57786C12.3869 10.3917 12.3017 11.2353 11.976 12.002C11.6502 12.7686 11.0986 13.4239 10.3909 13.8849C9.6832 14.3459 8.85116 14.592 8 14.592C6.85901 14.5908 5.76509 14.1484 4.95829 13.3618C4.15148 12.5752 3.69768 11.5088 3.69646 10.3964Z" fill="#1B7692"/>
<path d="M15.5 0C15.6557 0 15.805 0.0618398 15.915 0.171916C16.0251 0.281991 16.087 0.431286 16.087 0.586957V3.91304H19.413C19.5687 3.91304 19.718 3.97488 19.8281 4.08496C19.9382 4.19503 20 4.34433 20 4.5C20 4.65567 19.9382 4.80497 19.8281 4.91504C19.718 5.02512 19.5687 5.08696 19.413 5.08696H16.087V8.41304C16.087 8.56871 16.0251 8.71801 15.915 8.82808C15.805 8.93816 15.6557 9 15.5 9C15.3443 9 15.195 8.93816 15.085 8.82808C14.9749 8.71801 14.913 8.56871 14.913 8.41304V5.08696H11.587C11.4313 5.08696 11.282 5.02512 11.1719 4.91504C11.0618 4.80497 11 4.65567 11 4.5C11 4.34433 11.0618 4.19503 11.1719 4.08496C11.282 3.97488 11.4313 3.91304 11.587 3.91304H14.913V0.586957C14.913 0.431286 14.9749 0.281991 15.085 0.171916C15.195 0.0618398 15.3443 0 15.5 0Z" fill="#1B7692"/>
</svg>
