<svg width="76" height="15" viewBox="0 0 76 15" fill="none" xmlns="http://www.w3.org/2000/svg">
<path d="M0.688 6.416C0.688 5.328 0.933333 4.352 1.424 3.488C1.91467 2.61333 2.58133 1.93067 3.424 1.44C4.27733 0.949333 5.22133 0.704 6.256 0.704C7.472 0.704 8.53333 0.997333 9.44 1.584C10.3467 2.17067 11.008 3.00267 11.424 4.08H9.68C9.37067 3.408 8.92267 2.89067 8.336 2.528C7.76 2.16533 7.06667 1.984 6.256 1.984C5.47733 1.984 4.77867 2.16533 4.16 2.528C3.54133 2.89067 3.056 3.408 2.704 4.08C2.352 4.74133 2.176 5.52 2.176 6.416C2.176 7.30133 2.352 8.08 2.704 8.752C3.056 9.41333 3.54133 9.92533 4.16 10.288C4.77867 10.6507 5.47733 10.832 6.256 10.832C7.06667 10.832 7.76 10.656 8.336 10.304C8.92267 9.94133 9.37067 9.424 9.68 8.752H11.424C11.008 9.81867 10.3467 10.6453 9.44 11.232C8.53333 11.808 7.472 12.096 6.256 12.096C5.22133 12.096 4.27733 11.856 3.424 11.376C2.58133 10.8853 1.91467 10.208 1.424 9.344C0.933333 8.48 0.688 7.504 0.688 6.416ZM17.1274 12.112C16.3914 12.112 15.73 11.984 15.1434 11.728C14.5674 11.4613 14.114 11.0987 13.7834 10.64C13.4527 10.1707 13.282 9.632 13.2714 9.024H14.8234C14.8767 9.54667 15.09 9.98933 15.4634 10.352C15.8474 10.704 16.402 10.88 17.1274 10.88C17.8207 10.88 18.3647 10.7093 18.7594 10.368C19.1647 10.016 19.3674 9.568 19.3674 9.024C19.3674 8.59733 19.25 8.25067 19.0154 7.984C18.7807 7.71733 18.4874 7.51467 18.1354 7.376C17.7834 7.23733 17.3087 7.088 16.7114 6.928C15.9754 6.736 15.3834 6.544 14.9354 6.352C14.498 6.16 14.1194 5.86133 13.7994 5.456C13.49 5.04 13.3354 4.48533 13.3354 3.792C13.3354 3.184 13.49 2.64533 13.7994 2.176C14.1087 1.70667 14.5407 1.344 15.0954 1.088C15.6607 0.831999 16.306 0.704 17.0314 0.704C18.0767 0.704 18.93 0.965333 19.5914 1.488C20.2634 2.01067 20.642 2.704 20.7274 3.568H19.1274C19.074 3.14133 18.85 2.768 18.4554 2.448C18.0607 2.11733 17.538 1.952 16.8874 1.952C16.2794 1.952 15.7834 2.112 15.3994 2.432C15.0154 2.74133 14.8234 3.17867 14.8234 3.744C14.8234 4.14933 14.9354 4.48 15.1594 4.736C15.394 4.992 15.6767 5.18933 16.0074 5.328C16.3487 5.456 16.8234 5.60533 17.4314 5.776C18.1674 5.97867 18.7594 6.18133 19.2074 6.384C19.6554 6.576 20.0394 6.88 20.3594 7.296C20.6794 7.70133 20.8394 8.256 20.8394 8.96C20.8394 9.504 20.6954 10.016 20.4074 10.496C20.1194 10.976 19.6927 11.3653 19.1274 11.664C18.562 11.9627 17.8954 12.112 17.1274 12.112ZM32.198 0.848L27.99 12H26.31L22.102 0.848H23.654L27.158 10.464L30.662 0.848H32.198ZM35.2985 9.984L33.5065 14.288H32.5305L33.6985 9.984H35.2985ZM45.792 6.432L49.216 12H47.568L44.896 7.648L42.352 12H40.736L44.144 6.432L40.72 0.848H42.352L45.04 5.216L47.6 0.848H49.232L45.792 6.432ZM52.6255 10.816H56.5295V12H51.1695V0.848H52.6255V10.816ZM61.6118 12.112C60.8758 12.112 60.2144 11.984 59.6278 11.728C59.0518 11.4613 58.5984 11.0987 58.2678 10.64C57.9371 10.1707 57.7664 9.632 57.7558 9.024H59.3078C59.3611 9.54667 59.5744 9.98933 59.9478 10.352C60.3318 10.704 60.8864 10.88 61.6118 10.88C62.3051 10.88 62.8491 10.7093 63.2438 10.368C63.6491 10.016 63.8518 9.568 63.8518 9.024C63.8518 8.59733 63.7344 8.25067 63.4998 7.984C63.2651 7.71733 62.9718 7.51467 62.6198 7.376C62.2678 7.23733 61.7931 7.088 61.1958 6.928C60.4598 6.736 59.8678 6.544 59.4198 6.352C58.9824 6.16 58.6038 5.86133 58.2838 5.456C57.9744 5.04 57.8198 4.48533 57.8198 3.792C57.8198 3.184 57.9744 2.64533 58.2838 2.176C58.5931 1.70667 59.0251 1.344 59.5798 1.088C60.1451 0.831999 60.7904 0.704 61.5158 0.704C62.5611 0.704 63.4144 0.965333 64.0758 1.488C64.7478 2.01067 65.1264 2.704 65.2118 3.568H63.6118C63.5584 3.14133 63.3344 2.768 62.9398 2.448C62.5451 2.11733 62.0224 1.952 61.3718 1.952C60.7638 1.952 60.2678 2.112 59.8838 2.432C59.4998 2.74133 59.3078 3.17867 59.3078 3.744C59.3078 4.14933 59.4198 4.48 59.6438 4.736C59.8784 4.992 60.1611 5.18933 60.4918 5.328C60.8331 5.456 61.3078 5.60533 61.9158 5.776C62.6518 5.97867 63.2438 6.18133 63.6918 6.384C64.1398 6.576 64.5238 6.88 64.8438 7.296C65.1638 7.70133 65.3238 8.256 65.3238 8.96C65.3238 9.504 65.1798 10.016 64.8918 10.496C64.6038 10.976 64.1771 11.3653 63.6118 11.664C63.0464 11.9627 62.3798 12.112 61.6118 12.112ZM72.0264 6.432L75.4504 12H73.8024L71.1304 7.648L68.5864 12H66.9704L70.3784 6.432L66.9544 0.848H68.5864L71.2744 5.216L73.8344 0.848H75.4664L72.0264 6.432Z" fill="#707070"/>
</svg>
