<svg width="25" height="23" viewBox="0 0 25 23" fill="none" xmlns="http://www.w3.org/2000/svg">
<path d="M21.0015 21.4191L19.368 19.7861L19.6948 19.4538L20.7707 20.5297V16.5371H21.2323V20.5297L22.3077 19.4542L22.635 19.7861L21.0015 21.4191ZM18.5164 22.9991C18.3038 22.9991 18.1264 22.928 17.9842 22.7858C17.8421 22.6437 17.7708 22.4661 17.7705 22.2532V21.1348H18.2321V22.2532C18.2321 22.3243 18.2616 22.3895 18.3207 22.4489C18.3798 22.5083 18.4449 22.5378 18.5159 22.5375H23.487C23.5578 22.5375 23.6229 22.508 23.6823 22.4489C23.7417 22.3898 23.7712 22.3246 23.7709 22.2532V21.1348H24.2325V22.2532C24.2325 22.4658 24.1614 22.6432 24.0192 22.7854C23.8771 22.9275 23.6995 22.9988 23.4866 22.9991H18.5164Z" fill="#065B09"/>
<path d="M16.6459 8.9349H16.1639V6.68851C16.1635 6.67424 16.1621 6.66001 16.1597 6.64593C16.1603 6.55569 16.127 6.4683 16.0658 6.40007L12.1976 2.13048L12.1947 2.12774C12.1716 2.10356 12.1453 2.08233 12.1166 2.06456L12.091 2.04945C12.0664 2.03625 12.0404 2.02565 12.0135 2.01786L11.9922 2.01099C11.9626 2.00387 11.9323 2.00019 11.9019 2H2.39331C1.95901 2 1.60644 2.34132 1.60644 2.76024V8.93422H1.12451C0.503257 8.93422 0 9.42044 0 10.0207V15.6713C0 16.2709 0.503968 16.7578 1.12451 16.7578H1.60644V20.6256C1.60644 21.0445 1.95901 21.3859 2.39331 21.3859H15.3771C15.8107 21.3859 16.1639 21.0445 16.1639 20.6256V16.7578H16.6459C17.2664 16.7578 17.7704 16.2716 17.7704 15.6713V10.0207C17.7704 9.42113 17.2671 8.9349 16.6459 8.9349ZM2.39331 2.76024H11.5081V6.65005C11.5081 6.8602 11.6844 7.02983 11.9019 7.02983H15.3778V8.93422H2.39331V2.76024ZM8.28028 13.177C7.32495 12.8474 6.69445 12.3364 6.69445 11.5295C6.69445 10.5824 7.52184 9.86615 8.86884 9.86615C9.52563 9.86615 9.99406 9.98977 10.3352 10.1457L10.0452 11.1504C9.67354 10.9755 9.26521 10.8855 8.85178 10.8874C8.28881 10.8874 8.01586 11.1421 8.01586 11.4223C8.01586 11.7767 8.33075 11.9326 9.08137 12.2046C10.0964 12.5672 10.5648 13.0774 10.5648 13.8603C10.5648 14.7916 9.83199 15.5821 8.25469 15.5821C7.5979 15.5821 6.95035 15.409 6.62622 15.2359L6.89064 14.2065C7.33699 14.4267 7.82964 14.5451 8.33075 14.5526C8.92784 14.5526 9.24344 14.3129 9.24344 13.951C9.24344 13.6049 8.9712 13.4078 8.28028 13.177ZM1.50906 12.7979C1.50906 10.9114 2.90723 9.86546 4.64589 9.86546C5.31974 9.86546 5.83082 9.99664 6.06112 10.1045L5.78817 11.1009C5.44289 10.9609 5.07152 10.8907 4.69706 10.8949C3.6742 10.8949 2.87311 11.4958 2.87311 12.7313C2.87311 13.8349 3.55479 14.5354 4.7056 14.5354C5.10649 14.5354 5.53298 14.4619 5.7967 14.3541L5.98506 15.3424C5.75476 15.4488 5.20885 15.5814 4.51865 15.5814C2.53192 15.5821 1.50906 14.3795 1.50906 12.7979ZM15.3771 20.421H2.39331V16.7585H15.3771V20.421ZM14.3265 15.4996H12.8089L10.9679 9.94788H12.3916L13.0904 12.2959C13.2858 12.9628 13.465 13.5891 13.6014 14.2806H13.627C13.7724 13.6207 13.9457 12.9668 14.1466 12.3206L14.8802 9.94856H16.2606L14.3265 15.4996Z" fill="#185C37"/>
</svg>
