<svg width="27" height="29" viewBox="0 0 27 29" fill="none" xmlns="http://www.w3.org/2000/svg">
<path d="M23.4 14.061C23.9625 14.4481 24.4641 14.887 24.9047 15.3779C25.3453 15.8688 25.725 16.4069 26.0437 16.9922C26.3625 17.5775 26.5969 18.1958 26.7469 18.8472C26.8969 19.4985 26.9812 20.1641 27 20.8438C27 21.9671 26.7891 23.0244 26.3672 24.0156C25.9453 25.0068 25.3641 25.8706 24.6234 26.6069C23.8828 27.3433 23.025 27.9238 22.05 28.3486C21.075 28.7734 20.025 28.9906 18.9 29C18.0469 29 17.2219 28.8726 16.425 28.6177C15.6281 28.3628 14.8969 27.9946 14.2312 27.5132C13.5656 27.0317 12.975 26.4559 12.4594 25.7856C11.9437 25.1154 11.5453 24.3743 11.2641 23.5625H0V1.8125H3.6V0H5.4V1.8125H18V0H19.8V1.8125H23.4V14.061ZM1.8 3.625V7.25H21.6V3.625H19.8V5.4375H18V3.625H5.4V5.4375H3.6V3.625H1.8ZM10.8422 21.75C10.8141 21.4574 10.8 21.1553 10.8 20.8438C10.8 20.0319 10.9125 19.2437 11.1375 18.479C11.3625 17.7144 11.7047 16.9922 12.1641 16.3125H10.8V14.5H12.6V15.7178C12.9844 15.2363 13.4109 14.8115 13.8797 14.4434C14.3484 14.0752 14.8547 13.759 15.3984 13.4946C15.9422 13.2303 16.5094 13.0321 17.1 12.8999C17.6906 12.7677 18.2906 12.6969 18.9 12.6875C19.8375 12.6875 20.7375 12.8433 21.6 13.1548V9.0625H1.8V21.75H10.8422ZM18.9 27.1875C19.7719 27.1875 20.5875 27.0223 21.3469 26.6919C22.1062 26.3615 22.7719 25.9084 23.3438 25.3325C23.9156 24.7567 24.3656 24.0864 24.6937 23.3218C25.0219 22.5571 25.1906 21.7311 25.2 20.8438C25.2 19.9658 25.0359 19.1445 24.7078 18.3799C24.3797 17.6152 23.9297 16.945 23.3578 16.3691C22.7859 15.7933 22.1203 15.3402 21.3609 15.0098C20.6016 14.6794 19.7812 14.5094 18.9 14.5C18.0281 14.5 17.2125 14.6652 16.4531 14.9956C15.6937 15.326 15.0281 15.7791 14.4562 16.355C13.8844 16.9308 13.4344 17.6011 13.1062 18.3657C12.7781 19.1304 12.6094 19.9564 12.6 20.8438C12.6 21.7217 12.7641 22.543 13.0922 23.3076C13.4203 24.0723 13.8703 24.7425 14.4422 25.3184C15.0141 25.8942 15.6797 26.3473 16.4391 26.6777C17.1984 27.0081 18.0187 27.1781 18.9 27.1875ZM19.8 19.9375H22.5V21.75H18V16.3125H19.8V19.9375ZM3.6 14.5H5.4V16.3125H3.6V14.5ZM7.2 14.5H9V16.3125H7.2V14.5ZM7.2 10.875H9V12.6875H7.2V10.875ZM3.6 18.125H5.4V19.9375H3.6V18.125ZM7.2 18.125H9V19.9375H7.2V18.125ZM12.6 12.6875H10.8V10.875H12.6V12.6875ZM16.2 12.6875H14.4V10.875H16.2V12.6875ZM19.8 12.6875H18V10.875H19.8V12.6875Z" fill="#757575"/>
</svg>
