<svg width="32" height="35" viewBox="0 0 32 35" fill="none" xmlns="http://www.w3.org/2000/svg">
<path d="M2 8.88889H30M12.5 15.7778V26.1111M19.5 15.7778V26.1111M3.75 8.88889L5.5 29.5556C5.5 30.4691 5.86875 31.3452 6.52513 31.9911C7.1815 32.6371 8.07174 33 9 33H23C23.9283 33 24.8185 32.6371 25.4749 31.9911C26.1313 31.3452 26.5 30.4691 26.5 29.5556L28.25 8.88889M10.75 8.88889V3.72222C10.75 3.26546 10.9344 2.82741 11.2626 2.50443C11.5908 2.18145 12.0359 2 12.5 2H19.5C19.9641 2 20.4092 2.18145 20.7374 2.50443C21.0656 2.82741 21.25 3.26546 21.25 3.72222V8.88889" stroke="#707070" stroke-width="3" stroke-linecap="round" stroke-linejoin="round"/>
</svg>
