<svg width="22" height="22" viewBox="0 0 22 22" fill="none" xmlns="http://www.w3.org/2000/svg">
<path d="M14.7812 6.70312V5.67188C14.7812 5.57734 14.7039 5.5 14.6094 5.5H6.35938C6.26484 5.5 6.1875 5.57734 6.1875 5.67188V6.70312C6.1875 6.79766 6.26484 6.875 6.35938 6.875H14.6094C14.7039 6.875 14.7812 6.79766 14.7812 6.70312ZM6.35938 8.59375C6.26484 8.59375 6.1875 8.67109 6.1875 8.76562V9.79688C6.1875 9.89141 6.26484 9.96875 6.35938 9.96875H10.3125C10.407 9.96875 10.4844 9.89141 10.4844 9.79688V8.76562C10.4844 8.67109 10.407 8.59375 10.3125 8.59375H6.35938ZM14.4375 11.0859C11.8744 11.0859 9.79688 13.1635 9.79688 15.7266C9.79688 18.2896 11.8744 20.3672 14.4375 20.3672C17.0006 20.3672 19.0781 18.2896 19.0781 15.7266C19.0781 13.1635 17.0006 11.0859 14.4375 11.0859ZM16.7471 18.0361C16.1305 18.6527 15.3098 18.9922 14.4375 18.9922C13.5652 18.9922 12.7445 18.6527 12.1279 18.0361C11.5113 17.4195 11.1719 16.5988 11.1719 15.7266C11.1719 14.8543 11.5113 14.0336 12.1279 13.417C12.7445 12.8004 13.5652 12.4609 14.4375 12.4609C15.3098 12.4609 16.1305 12.8004 16.7471 13.417C17.3637 14.0336 17.7031 14.8543 17.7031 15.7266C17.7031 16.5988 17.3637 17.4195 16.7471 18.0361ZM16.3496 14.0938H15.3979C15.342 14.0938 15.2904 14.1195 15.2582 14.1646L13.8939 16.051L13.3977 15.3656C13.3818 15.3435 13.3608 15.3255 13.3365 15.3132C13.3122 15.3008 13.2853 15.2945 13.258 15.2947H12.3105C12.1709 15.2947 12.0893 15.4537 12.1709 15.5676L13.7564 17.7611C13.8252 17.8557 13.9648 17.8557 14.0336 17.7611L16.4871 14.3666C16.5709 14.2527 16.4893 14.0938 16.3496 14.0938ZM9.45312 18.3047H4.46875V3.17969H16.5V10.5703C16.5 10.6648 16.5773 10.7422 16.6719 10.7422H17.875C17.9695 10.7422 18.0469 10.6648 18.0469 10.5703V2.32031C18.0469 1.94004 17.7396 1.63281 17.3594 1.63281H3.60938C3.2291 1.63281 2.92188 1.94004 2.92188 2.32031V19.1641C2.92188 19.5443 3.2291 19.8516 3.60938 19.8516H9.45312C9.54766 19.8516 9.625 19.7742 9.625 19.6797V18.4766C9.625 18.382 9.54766 18.3047 9.45312 18.3047Z" fill="#1B7692"/>
</svg>
