<svg width="25" height="23" viewBox="0 0 25 23" fill="none" xmlns="http://www.w3.org/2000/svg">
<path d="M18.1818 3.45H21.5909L19.8864 5.75L18.1818 3.45ZM2.27273 0H22.7273C23.33 0 23.9081 0.242321 24.3343 0.673654C24.7606 1.10499 25 1.69 25 2.3V6.9C25 8.1765 23.9886 9.2 22.7273 9.2H17.0455V20.7C17.0455 21.9765 16.0341 23 14.7727 23H2.27273C1.66996 23 1.09189 22.7577 0.665666 22.3263C0.239447 21.895 0 21.31 0 20.7V2.3C0 1.035 1.02273 0 2.27273 0ZM2.27273 2.3V6.9H14.7727V2.3H2.27273ZM22.7273 6.9V2.3H17.0455V6.9H22.7273ZM2.27273 20.7H14.7727V9.2H2.27273V20.7ZM4.54545 11.5H12.5V13.8H4.54545V11.5ZM4.54545 16.1H12.5V18.4H4.54545V16.1Z" fill="#757575"/>
</svg>
