<svg width="117" height="156" viewBox="0 0 117 156" fill="none" xmlns="http://www.w3.org/2000/svg">
<g clip-path="url(#clip0_1757_6061)">
<path d="M7.3125 156H109.688C113.719 156 117 152.719 117 148.688V46.3125C117 46.2296 116.961 46.1614 116.956 46.0834C116.946 45.9712 116.917 45.8737 116.893 45.7665C116.816 45.4278 116.666 45.11 116.454 44.8354C116.42 44.7915 116.425 44.7379 116.391 44.694L77.3906 0.819C77.376 0.804375 77.3565 0.804375 77.3419 0.78975C77.0444 0.478776 76.669 0.253203 76.2548 0.1365C76.1621 0.10725 76.0793 0.0975 75.9818 0.082875C75.8404 0.0585 75.7087 0 75.5625 0H7.3125C3.28087 0 0 3.28087 0 7.3125V148.688C0 152.719 3.28087 156 7.3125 156ZM78 8.84813L109.137 43.875H80.4375C79.365 43.875 78 41.8275 78 40.2188V8.84813ZM4.875 7.3125C4.875 6.66603 5.13181 6.04605 5.58893 5.58893C6.04605 5.13181 6.66603 4.875 7.3125 4.875H73.125V40.2188C73.125 44.1626 76.3181 48.75 80.4375 48.75H112.125V148.688C112.125 149.334 111.868 149.954 111.411 150.411C110.954 150.868 110.334 151.125 109.688 151.125H7.3125C5.9475 151.125 4.875 150.053 4.875 148.688V7.3125Z" fill="#C7C7C7"/>
<path d="M26.8125 68.25H90.1875C90.834 68.25 91.454 67.9932 91.9111 67.5361C92.3682 67.079 92.625 66.459 92.625 65.8125C92.625 65.166 92.3682 64.546 91.9111 64.0889C91.454 63.6318 90.834 63.375 90.1875 63.375H26.8125C26.166 63.375 25.546 63.6318 25.0889 64.0889C24.6318 64.546 24.375 65.166 24.375 65.8125C24.375 66.459 24.6318 67.079 25.0889 67.5361C25.546 67.9932 26.166 68.25 26.8125 68.25ZM26.8125 87.75H90.1875C90.834 87.75 91.454 87.4932 91.9111 87.0361C92.3682 86.579 92.625 85.959 92.625 85.3125C92.625 84.666 92.3682 84.046 91.9111 83.5889C91.454 83.1318 90.834 82.875 90.1875 82.875H26.8125C26.166 82.875 25.546 83.1318 25.0889 83.5889C24.6318 84.046 24.375 84.666 24.375 85.3125C24.375 85.959 24.6318 86.579 25.0889 87.0361C25.546 87.4932 26.166 87.75 26.8125 87.75ZM26.8125 48.75H56.0625C56.709 48.75 57.329 48.4932 57.7861 48.0361C58.2432 47.579 58.5 46.959 58.5 46.3125C58.5 45.666 58.2432 45.046 57.7861 44.5889C57.329 44.1318 56.709 43.875 56.0625 43.875H26.8125C26.166 43.875 25.546 44.1318 25.0889 44.5889C24.6318 45.046 24.375 45.666 24.375 46.3125C24.375 46.959 24.6318 47.579 25.0889 48.0361C25.546 48.4932 26.166 48.75 26.8125 48.75ZM26.8125 107.25H90.1875C90.834 107.25 91.454 106.993 91.9111 106.536C92.3682 106.079 92.625 105.459 92.625 104.812C92.625 104.166 92.3682 103.546 91.9111 103.089C91.454 102.632 90.834 102.375 90.1875 102.375H26.8125C26.166 102.375 25.546 102.632 25.0889 103.089C24.6318 103.546 24.375 104.166 24.375 104.812C24.375 105.459 24.6318 106.079 25.0889 106.536C25.546 106.993 26.166 107.25 26.8125 107.25ZM26.8125 126.75H90.1875C90.834 126.75 91.454 126.493 91.9111 126.036C92.3682 125.579 92.625 124.959 92.625 124.312C92.625 123.666 92.3682 123.046 91.9111 122.589C91.454 122.132 90.834 121.875 90.1875 121.875H26.8125C26.166 121.875 25.546 122.132 25.0889 122.589C24.6318 123.046 24.375 123.666 24.375 124.312C24.375 124.959 24.6318 125.579 25.0889 126.036C25.546 126.493 26.166 126.75 26.8125 126.75Z" fill="#C7C7C7"/>
</g>
<defs>
<clipPath id="clip0_1757_6061">
<rect width="117" height="156" fill="white"/>
</clipPath>
</defs>
</svg>
