<svg width="17" height="16" viewBox="0 0 19 16" fill="none" xmlns="http://www.w3.org/2000/svg">
<path d="M3.03571 2.42857C2.87469 2.42857 2.72026 2.49254 2.6064 2.6064C2.49254 2.72026 2.42857 2.87469 2.42857 3.03571C2.42857 3.19674 2.49254 3.35117 2.6064 3.46503C2.72026 3.57889 2.87469 3.64286 3.03571 3.64286H13.9643C14.1253 3.64286 14.2797 3.57889 14.3936 3.46503C14.5075 3.35117 14.5714 3.19674 14.5714 3.03571C14.5714 2.87469 14.5075 2.72026 14.3936 2.6064C14.2797 2.49254 14.1253 2.42857 13.9643 2.42857H3.03571ZM4.25 9.71429C4.73307 9.71429 5.19636 9.52239 5.53794 9.1808C5.87953 8.83922 6.07143 8.37593 6.07143 7.89286C6.07143 7.40978 5.87953 6.9465 5.53794 6.60491C5.19636 6.26333 4.73307 6.07143 4.25 6.07143C3.76693 6.07143 3.30364 6.26333 2.96206 6.60491C2.62047 6.9465 2.42857 7.40978 2.42857 7.89286C2.42857 8.37593 2.62047 8.83922 2.96206 9.1808C3.30364 9.52239 3.76693 9.71429 4.25 9.71429ZM4.25 8.5C4.08898 8.5 3.93455 8.43603 3.82069 8.32217C3.70682 8.20831 3.64286 8.05388 3.64286 7.89286C3.64286 7.73183 3.70682 7.5774 3.82069 7.46354C3.93455 7.34968 4.08898 7.28571 4.25 7.28571C4.41102 7.28571 4.56545 7.34968 4.67931 7.46354C4.79318 7.5774 4.85714 7.73183 4.85714 7.89286C4.85714 8.05388 4.79318 8.20831 4.67931 8.32217C4.56545 8.43603 4.41102 8.5 4.25 8.5ZM6.07143 12.75C6.07143 13.2331 5.87953 13.6964 5.53794 14.0379C5.19636 14.3795 4.73307 14.5714 4.25 14.5714C3.76693 14.5714 3.30364 14.3795 2.96206 14.0379C2.62047 13.6964 2.42857 13.2331 2.42857 12.75C2.42857 12.2669 2.62047 11.8036 2.96206 11.4621C3.30364 11.1205 3.76693 10.9286 4.25 10.9286C4.73307 10.9286 5.19636 11.1205 5.53794 11.4621C5.87953 11.8036 6.07143 12.2669 6.07143 12.75ZM4.85714 12.75C4.85714 12.589 4.79318 12.4345 4.67931 12.3207C4.56545 12.2068 4.41102 12.1429 4.25 12.1429C4.08898 12.1429 3.93455 12.2068 3.82069 12.3207C3.70682 12.4345 3.64286 12.589 3.64286 12.75C3.64286 12.911 3.70682 13.0655 3.82069 13.1793C3.93455 13.2932 4.08898 13.3571 4.25 13.3571C4.41102 13.3571 4.56545 13.2932 4.67931 13.1793C4.79318 13.0655 4.85714 12.911 4.85714 12.75ZM7.28571 7.89286C7.28571 7.73183 7.34968 7.5774 7.46354 7.46354C7.5774 7.34968 7.73183 7.28571 7.89286 7.28571H13.9643C14.1253 7.28571 14.2797 7.34968 14.3936 7.46354C14.5075 7.5774 14.5714 7.73183 14.5714 7.89286C14.5714 8.05388 14.5075 8.20831 14.3936 8.32217C14.2797 8.43603 14.1253 8.5 13.9643 8.5H7.89286C7.73183 8.5 7.5774 8.43603 7.46354 8.32217C7.34968 8.20831 7.28571 8.05388 7.28571 7.89286ZM7.89286 12.1429C7.73183 12.1429 7.5774 12.2068 7.46354 12.3207C7.34968 12.4345 7.28571 12.589 7.28571 12.75C7.28571 12.911 7.34968 13.0655 7.46354 13.1793C7.5774 13.2932 7.73183 13.3571 7.89286 13.3571H13.9643C14.1253 13.3571 14.2797 13.2932 14.3936 13.1793C14.5075 13.0655 14.5714 12.911 14.5714 12.75C14.5714 12.589 14.5075 12.4345 14.3936 12.3207C14.2797 12.2068 14.1253 12.1429 13.9643 12.1429H7.89286ZM3.64286 0C2.67671 0 1.75014 0.3838 1.06697 1.06697C0.3838 1.75014 0 2.67671 0 3.64286V13.3571C0 14.3233 0.3838 15.2499 1.06697 15.933C1.75014 16.6162 2.67671 17 3.64286 17H13.3571C14.3233 17 15.2499 16.6162 15.933 15.933C16.6162 15.2499 17 14.3233 17 13.3571V3.64286C17 2.67671 16.6162 1.75014 15.933 1.06697C15.2499 0.3838 14.3233 0 13.3571 0H3.64286ZM1.21429 3.64286C1.21429 2.99876 1.47015 2.38104 1.9256 1.9256C2.38104 1.47015 2.99876 1.21429 3.64286 1.21429H13.3571C14.0012 1.21429 14.619 1.47015 15.0744 1.9256C15.5298 2.38104 15.7857 2.99876 15.7857 3.64286V13.3571C15.7857 14.0012 15.5298 14.619 15.0744 15.0744C14.619 15.5298 14.0012 15.7857 13.3571 15.7857H3.64286C2.99876 15.7857 2.38104 15.5298 1.9256 15.0744C1.47015 14.619 1.21429 14.0012 1.21429 13.3571V3.64286Z" fill="#1B7692"/>
</svg>
