<svg width="10" height="10" viewBox="0 0 10 10" fill="none" xmlns="http://www.w3.org/2000/svg">
<path d="M1.78571 1.42857C1.69099 1.42857 1.60015 1.4662 1.53318 1.53318C1.4662 1.60015 1.42857 1.69099 1.42857 1.78571C1.42857 1.88043 1.4662 1.97128 1.53318 2.03825C1.60015 2.10523 1.69099 2.14286 1.78571 2.14286H8.21429C8.30901 2.14286 8.39985 2.10523 8.46682 2.03825C8.5338 1.97128 8.57143 1.88043 8.57143 1.78571C8.57143 1.69099 8.5338 1.60015 8.46682 1.53318C8.39985 1.4662 8.30901 1.42857 8.21429 1.42857H1.78571ZM2.5 5.71429C2.78416 5.71429 3.05668 5.6014 3.25761 5.40047C3.45855 5.19954 3.57143 4.92702 3.57143 4.64286C3.57143 4.3587 3.45855 4.08617 3.25761 3.88524C3.05668 3.68431 2.78416 3.57143 2.5 3.57143C2.21584 3.57143 1.94332 3.68431 1.74239 3.88524C1.54145 4.08617 1.42857 4.3587 1.42857 4.64286C1.42857 4.92702 1.54145 5.19954 1.74239 5.40047C1.94332 5.6014 2.21584 5.71429 2.5 5.71429ZM2.5 5C2.40528 5 2.31444 4.96237 2.24746 4.8954C2.18048 4.82842 2.14286 4.73758 2.14286 4.64286C2.14286 4.54814 2.18048 4.4573 2.24746 4.39032C2.31444 4.32334 2.40528 4.28571 2.5 4.28571C2.59472 4.28571 2.68556 4.32334 2.75254 4.39032C2.81952 4.4573 2.85714 4.54814 2.85714 4.64286C2.85714 4.73758 2.81952 4.82842 2.75254 4.8954C2.68556 4.96237 2.59472 5 2.5 5ZM3.57143 7.5C3.57143 7.78416 3.45855 8.05668 3.25761 8.25762C3.05668 8.45855 2.78416 8.57143 2.5 8.57143C2.21584 8.57143 1.94332 8.45855 1.74239 8.25762C1.54145 8.05668 1.42857 7.78416 1.42857 7.5C1.42857 7.21584 1.54145 6.94332 1.74239 6.74239C1.94332 6.54145 2.21584 6.42857 2.5 6.42857C2.78416 6.42857 3.05668 6.54145 3.25761 6.74239C3.45855 6.94332 3.57143 7.21584 3.57143 7.5ZM2.85714 7.5C2.85714 7.40528 2.81952 7.31444 2.75254 7.24746C2.68556 7.18048 2.59472 7.14286 2.5 7.14286C2.40528 7.14286 2.31444 7.18048 2.24746 7.24746C2.18048 7.31444 2.14286 7.40528 2.14286 7.5C2.14286 7.59472 2.18048 7.68556 2.24746 7.75254C2.31444 7.81952 2.40528 7.85714 2.5 7.85714C2.59472 7.85714 2.68556 7.81952 2.75254 7.75254C2.81952 7.68556 2.85714 7.59472 2.85714 7.5ZM4.28571 4.64286C4.28571 4.54814 4.32334 4.4573 4.39032 4.39032C4.4573 4.32334 4.54814 4.28571 4.64286 4.28571H8.21429C8.30901 4.28571 8.39985 4.32334 8.46682 4.39032C8.5338 4.4573 8.57143 4.54814 8.57143 4.64286C8.57143 4.73758 8.5338 4.82842 8.46682 4.8954C8.39985 4.96237 8.30901 5 8.21429 5H4.64286C4.54814 5 4.4573 4.96237 4.39032 4.8954C4.32334 4.82842 4.28571 4.73758 4.28571 4.64286ZM4.64286 7.14286C4.54814 7.14286 4.4573 7.18048 4.39032 7.24746C4.32334 7.31444 4.28571 7.40528 4.28571 7.5C4.28571 7.59472 4.32334 7.68556 4.39032 7.75254C4.4573 7.81952 4.54814 7.85714 4.64286 7.85714H8.21429C8.30901 7.85714 8.39985 7.81952 8.46682 7.75254C8.5338 7.68556 8.57143 7.59472 8.57143 7.5C8.57143 7.40528 8.5338 7.31444 8.46682 7.24746C8.39985 7.18048 8.30901 7.14286 8.21429 7.14286H4.64286ZM2.14286 0C1.57454 0 1.02949 0.225765 0.627628 0.627628C0.225765 1.02949 0 1.57454 0 2.14286V7.85714C0 8.42546 0.225765 8.97051 0.627628 9.37237C1.02949 9.77424 1.57454 10 2.14286 10H7.85714C8.42546 10 8.97051 9.77424 9.37237 9.37237C9.77424 8.97051 10 8.42546 10 7.85714V2.14286C10 1.57454 9.77424 1.02949 9.37237 0.627628C8.97051 0.225765 8.42546 0 7.85714 0H2.14286ZM0.714286 2.14286C0.714286 1.76398 0.864795 1.40061 1.1327 1.1327C1.40061 0.864795 1.76398 0.714286 2.14286 0.714286H7.85714C8.23602 0.714286 8.59939 0.864795 8.8673 1.1327C9.1352 1.40061 9.28571 1.76398 9.28571 2.14286V7.85714C9.28571 8.23602 9.1352 8.59939 8.8673 8.8673C8.59939 9.1352 8.23602 9.28571 7.85714 9.28571H2.14286C1.76398 9.28571 1.40061 9.1352 1.1327 8.8673C0.864795 8.59939 0.714286 8.23602 0.714286 7.85714V2.14286Z" fill="#F9F9F9"/>
</svg>
