<svg width="18" height="20" viewBox="0 0 18 20" fill="none" xmlns="http://www.w3.org/2000/svg">
<path d="M7.575 18.575V14.575C7.575 13.6417 7.43333 12.95 7.15 12.5C6.86667 12.05 6.49167 11.6083 6.025 11.175L7.45 9.75002C7.65 9.93335 7.84167 10.1293 8.025 10.338C8.20833 10.5467 8.39167 10.7673 8.575 11C8.80833 10.6833 9.046 10.4043 9.288 10.163C9.53 9.92168 9.77567 9.68402 10.025 9.45002C10.6583 8.86668 11.2333 8.19168 11.75 7.42502C12.2667 6.65835 12.5417 5.31668 12.575 3.40002L11.7 4.27502C11.5167 4.45835 11.2877 4.55002 11.013 4.55002C10.7383 4.55002 10.5007 4.45835 10.3 4.27502C10.1 4.07502 10 3.83768 10 3.56302C10 3.28835 10.1 3.05068 10.3 2.85002L12.875 0.275016C12.975 0.175016 13.0833 0.104016 13.2 0.0620157C13.3167 0.0200157 13.4417 -0.000651042 13.575 1.5625e-05C13.7083 1.5625e-05 13.8333 0.0206823 13.95 0.0620157C14.0667 0.103349 14.175 0.174349 14.275 0.275016L16.875 2.87502C17.0583 3.05835 17.1543 3.28735 17.163 3.56202C17.1717 3.83668 17.0757 4.07435 16.875 4.27502C16.6917 4.45835 16.4583 4.55002 16.175 4.55002C15.8917 4.55002 15.6583 4.45835 15.475 4.27502L14.575 3.40002C14.5566 4.7188 14.4361 5.82713 14.2135 6.72502C14.0338 7.44981 13.7877 8.03748 13.475 8.48802C12.775 9.49668 12.075 10.3173 11.375 10.95C10.8417 11.4333 10.4083 11.9043 10.075 12.363C9.74167 12.8217 9.575 13.559 9.575 14.575V18.575C9.575 18.8583 9.479 19.096 9.287 19.288C9.095 19.48 8.85767 19.5757 8.575 19.575C8.29167 19.575 8.05433 19.479 7.863 19.287C7.67167 19.095 7.57567 18.8577 7.575 18.575ZM2.775 5.75002C2.70833 5.41668 2.66267 5.05002 2.638 4.65002C2.61333 4.25002 2.59233 3.83335 2.575 3.40002L1.675 4.30002C1.49167 4.48335 1.26267 4.57502 0.988 4.57502C0.713333 4.57502 0.475667 4.47502 0.275 4.27502C0.0916668 4.09168 0 3.85835 0 3.57502C0 3.29168 0.0916668 3.05835 0.275 2.87502L2.875 0.275016C2.975 0.175016 3.08333 0.104016 3.2 0.0620157C3.31667 0.0200157 3.44167 -0.000317542 3.575 0.00101579C3.70833 0.00101579 3.83333 0.0220158 3.95 0.0640158C4.06667 0.106016 4.175 0.176349 4.275 0.275016L6.875 2.87502C7.075 3.07502 7.171 3.30835 7.163 3.57502C7.155 3.84168 7.05067 4.07502 6.85 4.27502C6.65 4.45835 6.41667 4.55002 6.15 4.55002C5.88333 4.55002 5.65 4.45835 5.45 4.27502L4.575 3.42502C4.575 3.77502 4.59167 4.10435 4.625 4.41302C4.65833 4.72168 4.69167 5.00902 4.725 5.27502L2.775 5.75002ZM4.925 10.15C4.59167 9.80002 4.271 9.39168 3.963 8.92502C3.655 8.45835 3.384 7.88335 3.15 7.20002L5.075 6.72502C5.24167 7.17501 5.43333 7.55835 5.65 7.87502C5.86667 8.19168 6.1 8.47502 6.35 8.72502L4.925 10.15Z" fill="#1B7692"/>
<path d="M12.0297 6.60368L14.5729 7.0745L14.5731 5.57509L12.1879 5.03047L12.0297 6.60368Z" fill="white"/>
<path d="M8.93114 9.51126L11.3655 11.6975L12.355 10.0792L10.1399 7.91756L8.93114 9.51126Z" fill="white"/>
</svg>
