<svg width="36" height="40" viewBox="0 0 36 40" fill="none" xmlns="http://www.w3.org/2000/svg">
<path d="M9.53809 24.3401H2.11169C1.52819 24.3401 1.05078 23.8627 1.05078 23.2792V21.1573C1.05078 20.5738 1.52819 20.0964 2.11169 20.0964H9.53809M9.53809 24.3401V20.0964M9.53809 24.3401H18.0188V28.6567C18.0188 29.6049 19.1659 30.0756 19.8356 29.4059L26.1812 23.0139C26.6188 22.5763 26.6188 21.8668 26.1812 21.4226L19.8422 15.0239C19.1725 14.3542 18.0254 14.825 18.0254 15.7732V20.0964H9.53809M9.53809 24.3401V33.3578C9.53809 34.2397 10.2476 34.9492 11.1295 34.9492H33.4086C34.2905 34.9492 35 34.2397 35 33.3578V11.6091H25.9822C25.107 11.6091 24.3909 10.893 24.3909 10.0178V1H11.1295C10.2476 1 9.53809 1.70949 9.53809 2.59137V20.0964M34.5359 7.96224L28.0444 1.46415C27.746 1.16577 27.3415 1 26.9172 1H26.5127V9.4873H35V9.08283C35 8.6651 34.8342 8.26062 34.5359 7.96224Z" stroke="#1B7692" stroke-width="2"/>
<path d="M30.354 30.094L32.846 34H31.04L29.374 31.382L27.806 34H26.14L28.632 30.206L26.14 26.286H27.946L29.612 28.904L31.18 26.286H32.846L30.354 30.094Z" fill="#1B7692"/>
</svg>
