<svg width="21" height="29" viewBox="0 0 21 29" fill="none" xmlns="http://www.w3.org/2000/svg">
<path d="M5.3335 7.74269H14.6668M10.0002 12.2588V3.22656" stroke="#1B7692" stroke-width="2" stroke-linecap="round" stroke-linejoin="round"/>
<path d="M8.88738 18.7452C8.88738 20.6253 7.35702 22.1564 5.47166 22.1564C3.59238 22.1564 2.06201 20.6253 2.06201 18.7452C2.06201 16.8596 3.59238 15.334 5.47166 15.334C5.87701 15.334 6.27144 15.4026 6.6428 15.5398C6.90009 15.6315 7.0257 15.9053 6.93407 16.1627C6.84244 16.414 6.5627 16.5457 6.31149 16.4486C6.04328 16.3515 5.76293 16.2999 5.47166 16.2999C4.12941 16.2999 3.0329 17.3969 3.0329 18.7452C3.0329 20.0881 4.12941 21.1851 5.47166 21.1851C6.81938 21.1851 7.91589 20.0881 7.91589 18.7452C7.91589 18.4769 8.13312 18.2595 8.40133 18.2595C8.66954 18.2595 8.88738 18.4763 8.88738 18.7452Z" fill="#1B7692"/>
<path d="M14.7648 9.96952C15.7928 9.96952 16.6265 10.8097 16.6265 11.8321C16.6265 12.8605 15.7928 13.6946 14.7648 13.6946C13.7424 13.6946 12.9032 12.8605 12.9032 11.8321C12.9032 10.8097 13.7424 9.96952 14.7648 9.96952ZM14.7648 23.7922C15.7928 23.7922 16.6265 24.6264 16.6265 25.6548C16.6265 26.6832 15.7928 27.5173 14.7648 27.5173C13.7424 27.5173 12.9032 26.6832 12.9032 25.6548C12.9032 24.6264 13.7424 23.7922 14.7648 23.7922ZM14.4906 28.4607C14.5822 28.4723 14.6732 28.4893 14.7648 28.4893C16.3298 28.4893 17.5974 27.215 17.5974 25.6554C17.5974 24.0897 16.3292 22.8215 14.7648 22.8215C13.817 22.8215 12.9827 23.2956 12.4687 24.0102L10.0415 21.753C10.5269 21.016 10.8412 20.1588 10.9207 19.233H15.2042C15.4323 20.5644 16.5919 21.5812 17.9858 21.5812C19.5507 21.5812 20.8184 20.307 20.8184 18.7474C20.8184 17.1817 19.5501 15.9135 17.9858 15.9135C16.5919 15.9135 15.4329 16.9304 15.2042 18.2617H10.9207C10.8406 17.3359 10.5269 16.4732 10.0415 15.7362L12.4687 13.4791C12.9827 14.1991 13.8164 14.6677 14.7648 14.6677C16.3298 14.6677 17.5974 13.3989 17.5974 11.8339C17.5974 10.2737 16.3292 9 14.7648 9C14.6732 9 14.5822 9.02307 14.4906 9.02853C14.0773 9.0856 13.5197 9.30294 13.5197 9.30294C12.5828 9.77161 11.9317 10.7259 11.9317 11.8345C11.9317 12.0858 11.9772 12.3201 12.0342 12.5545L9.43525 14.9774C8.43584 13.932 7.03047 13.269 5.47158 13.269C2.45575 13.269 0 15.7259 0 18.7486C0 21.7658 2.45575 24.2227 5.47158 24.2227C7.03108 24.2227 8.43584 23.5658 9.43525 22.5143L12.0342 24.9427C11.9772 25.1709 11.9317 25.4053 11.9317 25.6572C11.9317 26.7712 12.5828 27.7255 13.5197 28.1887M9.97895 18.7468C9.97895 21.2267 7.95707 23.2495 5.4728 23.2495C2.99399 23.2495 0.972106 21.2267 0.972106 18.7468C0.972106 16.2613 2.99399 14.2385 5.4728 14.2385C7.95707 14.2379 9.97895 16.2607 9.97895 18.7468ZM17.9864 20.6093C16.9585 20.6093 16.1247 19.7691 16.1247 18.7468C16.1247 17.7184 16.9585 16.8842 17.9864 16.8842C19.0143 16.8842 19.8481 17.7184 19.8481 18.7468C19.8481 19.7697 19.0143 20.6093 17.9864 20.6093Z" fill="#1B7692"/>
<path d="M8.2275 17.0408L5.63461 20.1837C5.53752 20.2978 5.40645 20.361 5.25778 20.361C5.11518 20.361 4.97804 20.2978 4.88642 20.1898L3.78385 18.8815C3.60666 18.6757 3.63518 18.3673 3.84089 18.1961C4.04659 18.0249 4.34939 18.0474 4.52597 18.2532L5.25111 19.1219L7.4787 16.4192C7.64982 16.2134 7.95868 16.1848 8.16378 16.356C8.3701 16.5266 8.39862 16.8296 8.2275 17.0408Z" fill="#1B7692"/>
</svg>
