<svg width="18" height="18" viewBox="0 0 18 18" fill="none" xmlns="http://www.w3.org/2000/svg">
<path d="M11 13.75H3C2.27065 13.75 1.57118 13.4603 1.05546 12.9445C0.539731 12.4288 0.25 11.7293 0.25 11V3C0.25 2.27065 0.539731 1.57118 1.05546 1.05546C1.57118 0.539731 2.27065 0.25 3 0.25H11C11.7293 0.25 12.4288 0.539731 12.9445 1.05546C13.4603 1.57118 13.75 2.27065 13.75 3V11C13.75 11.7293 13.4603 12.4288 12.9445 12.9445C12.4288 13.4603 11.7293 13.75 11 13.75ZM3 1.75C2.66848 1.75 2.35054 1.8817 2.11612 2.11612C1.8817 2.35054 1.75 2.66848 1.75 3V11C1.75 11.3315 1.8817 11.6495 2.11612 11.8839C2.35054 12.1183 2.66848 12.25 3 12.25H11C11.3315 12.25 11.6495 12.1183 11.8839 11.8839C12.1183 11.6495 12.25 11.3315 12.25 11V3C12.25 2.66848 12.1183 2.35054 11.8839 2.11612C11.6495 1.8817 11.3315 1.75 11 1.75H3Z" fill="#1B7692"/>
<path d="M15 17.75H7C6.27065 17.75 5.57118 17.4603 5.05546 16.9445C4.53973 16.4288 4.25 15.7293 4.25 15V13H5.75V15C5.75 15.3315 5.8817 15.6495 6.11612 15.8839C6.35054 16.1183 6.66848 16.25 7 16.25H15C15.3315 16.25 15.6495 16.1183 15.8839 15.8839C16.1183 15.6495 16.25 15.3315 16.25 15V7C16.25 6.66848 16.1183 6.35054 15.8839 6.11612C15.6495 5.8817 15.3315 5.75 15 5.75H13V4.25H15C15.7293 4.25 16.4288 4.53973 16.9445 5.05546C17.4603 5.57118 17.75 6.27065 17.75 7V15C17.75 15.7293 17.4603 16.4288 16.9445 16.9445C16.4288 17.4603 15.7293 17.75 15 17.75Z" fill="#1B7692"/>
</svg>
