<svg width="18" height="18" viewBox="0 0 18 18" fill="none" xmlns="http://www.w3.org/2000/svg">
<g clip-path="url(#clip0_651_4547)">
<path d="M0.902344 0.0078125V17.2833H15.3441V8.64555H7.09167V0.0078125H0.902344ZM9.15477 0.0078125V6.48611H15.3441L9.15477 0.0078125ZM2.96545 4.32668H5.02856V6.48611H2.96545V4.32668ZM2.96545 8.64555H5.02856V10.805H2.96545V8.64555ZM2.96545 12.9644H11.2179V15.1238H2.96545V12.9644Z" stroke="#1B7692"/>
</g>
<path d="M16.839 11.5039L16.1543 12.1886C16.0845 12.2585 15.9716 12.2585 15.9018 12.1886L14.2532 10.54C14.1834 10.4702 14.1834 10.3573 14.2532 10.2875L14.9379 9.60284C15.2156 9.3251 15.6671 9.3251 15.9463 9.60284L16.839 10.4955C17.1182 10.7732 17.1182 11.2247 16.839 11.5039ZM13.665 10.8757L9.76479 14.7759L9.44992 16.5805C9.40685 16.8241 9.61924 17.035 9.86282 16.9934L11.6674 16.6771L15.5676 12.7768C15.6374 12.707 15.6374 12.5941 15.5676 12.5243L13.919 10.8757C13.8477 10.8059 13.7348 10.8059 13.665 10.8757ZM11.2872 14.4418C11.2055 14.3601 11.2055 14.2294 11.2872 14.1477L13.5744 11.8604C13.6561 11.7787 13.7868 11.7787 13.8685 11.8604C13.9502 11.9421 13.9502 12.0728 13.8685 12.1545L11.5812 14.4418C11.4995 14.5234 11.3688 14.5234 11.2872 14.4418ZM10.751 15.6909H11.4639V16.23L10.5059 16.3978L10.044 15.9359L10.2118 14.9779H10.751V15.6909Z" fill="#092D80" stroke="white" stroke-width="0.5"/>
<defs>
<clipPath id="clip0_651_4547">
<rect width="14.7879" height="16.9005" fill="white" transform="translate(0.902344 0.0078125)"/>
</clipPath>
</defs>
</svg>
