<svg width="36" height="37" viewBox="0 0 36 37" fill="none" xmlns="http://www.w3.org/2000/svg">
<path d="M22.9511 28.625C23.0722 28.5014 23.2159 28.4033 23.3742 28.3364C23.5325 28.2695 23.7022 28.2351 23.8736 28.2351C24.0449 28.2351 24.2146 28.2695 24.3729 28.3364C24.5312 28.4033 24.675 28.5014 24.796 28.625L27.7822 31.6696V21.6014C27.7822 21.2494 27.9195 20.9118 28.1638 20.6629C28.4082 20.414 28.7395 20.2742 29.0851 20.2742C29.4306 20.2742 29.762 20.414 30.0064 20.6629C30.2507 20.9118 30.388 21.2494 30.388 21.6014V31.6696L33.3742 28.625C33.6188 28.3758 33.9506 28.2358 34.2966 28.2358C34.6426 28.2358 34.9744 28.3758 35.2191 28.625C35.4637 28.8742 35.6011 29.2122 35.6011 29.5647C35.6011 29.9171 35.4637 30.2551 35.2191 30.5043L30.0075 35.8132C29.8865 35.9368 29.7427 36.0349 29.5844 36.1018C29.4262 36.1687 29.2565 36.2031 29.0851 36.2031C28.9137 36.2031 28.744 36.1687 28.5857 36.1018C28.4275 36.0349 28.2837 35.9368 28.1627 35.8132L22.9511 30.5043C22.8298 30.3811 22.7335 30.2346 22.6678 30.0734C22.6022 29.9121 22.5684 29.7392 22.5684 29.5647C22.5684 29.3901 22.6022 29.2172 22.6678 29.056C22.7335 28.8948 22.8298 28.7483 22.9511 28.625Z" fill="#707070"/>
<path d="M22.6678 7.14785C22.7335 7.3091 22.8298 7.45556 22.9511 7.57885C23.0722 7.70245 23.2159 7.80051 23.3742 7.86742C23.5325 7.93432 23.7022 7.96876 23.8736 7.96876C24.0449 7.96876 24.2146 7.93432 24.3729 7.86742C24.5312 7.80051 24.675 7.70245 24.796 7.57885L27.7822 4.53421V14.6025C27.7822 14.9545 27.9195 15.2921 28.1638 15.541C28.4082 15.7899 28.7395 15.9297 29.0851 15.9297C29.4306 15.9297 29.762 15.7899 30.0064 15.541C30.2507 15.2921 30.388 14.9545 30.388 14.6025V4.53421L33.3742 7.57885C33.6188 7.82806 33.9506 7.96807 34.2966 7.96807C34.6426 7.96807 34.9744 7.82806 35.2191 7.57885C35.4637 7.32963 35.6011 6.99162 35.6011 6.63918C35.6011 6.28673 35.4637 5.94872 35.2191 5.69951L30.0075 0.390645C29.8865 0.267046 29.7427 0.168984 29.5844 0.102076C29.4262 0.0351667 29.2565 0.000725746 29.0851 0.000725746C28.9137 0.000725746 28.744 0.0351667 28.5857 0.102076C28.4275 0.168984 28.2837 0.267046 28.1627 0.390645L22.9511 5.69951C22.8298 5.82279 22.7335 5.96926 22.6678 6.1305C22.6022 6.29174 22.5684 6.4646 22.5684 6.63918C22.5684 6.81375 22.6022 6.98661 22.6678 7.14785Z" fill="#C7C7C7"/>
<path d="M0.847168 13.0293V18.8216H21.1204V13.0293H18.2242V15.9255H3.74334V13.0293H0.847168ZM3.74334 21.7178H18.2242V24.614H3.74334V21.7178Z" fill="#707070"/>
</svg>
