<svg width="20" height="20" viewBox="0 0 20 20" fill="none" xmlns="http://www.w3.org/2000/svg">
<circle cx="10" cy="10" r="9.5" stroke="#1B7692"/>
<path d="M12.6353 13.4536L10.0318 11.0089L7.587 13.6124C7.45732 13.7505 7.27809 13.8314 7.08875 13.8373C6.8994 13.8433 6.71544 13.7738 6.57735 13.6441C6.43925 13.5144 6.35832 13.3352 6.35237 13.1459C6.34641 12.9565 6.41592 12.7725 6.5456 12.6344L8.99038 10.031L6.38689 7.58618C6.24879 7.4565 6.16786 7.27728 6.16191 7.08793C6.15596 6.89858 6.22547 6.71463 6.35514 6.57653C6.48482 6.43843 6.66405 6.3575 6.8534 6.35155C7.04274 6.3456 7.2267 6.41511 7.3648 6.54479L9.96829 8.98956L12.4131 6.38607C12.5427 6.24797 12.722 6.16705 12.9113 6.16109C13.1007 6.15514 13.2846 6.22465 13.4227 6.35433C13.5608 6.48401 13.6417 6.66323 13.6477 6.85258C13.6537 7.04193 13.5841 7.22588 13.4545 7.36398L11.0097 9.96747L13.6132 12.4123C13.7513 12.5419 13.8322 12.7212 13.8382 12.9105C13.8441 13.0998 13.7746 13.2838 13.6449 13.4219C13.5152 13.56 13.336 13.6409 13.1467 13.6469C12.9573 13.6528 12.7734 13.5833 12.6353 13.4536Z" fill="#1B7692"/>
</svg>
