<svg width="34" height="37" viewBox="0 0 34 37" fill="none" xmlns="http://www.w3.org/2000/svg">
<g clip-path="url(#clip0_651_4546)">
<path d="M0 5.82422V37.3323H25.9703V21.5783H11.1301V5.82422H0ZM14.8401 5.82422V17.6398H25.9703L14.8401 5.82422ZM3.71004 13.7013H7.42007V17.6398H3.71004V13.7013ZM3.71004 21.5783H7.42007V25.5168H3.71004V21.5783ZM3.71004 29.4553H18.5502V33.3938H3.71004V29.4553Z" stroke="#1B7692" stroke-width="2"/>
</g>
<path d="M34 7C34 6.77722 33.9115 6.56356 33.754 6.40603C33.5964 6.2485 33.3828 6.16 33.16 6.16H27.84V0.84C27.84 0.617219 27.7515 0.403563 27.594 0.246032C27.4364 0.088501 27.2228 9.53674e-07 27 9.53674e-07C26.7772 9.53674e-07 26.5636 0.088501 26.406 0.246032C26.2485 0.403563 26.16 0.617219 26.16 0.84V6.16H20.84C20.6172 6.16 20.4036 6.2485 20.246 6.40603C20.0885 6.56356 20 6.77722 20 7C20 7.22278 20.0885 7.43644 20.246 7.59397C20.4036 7.7515 20.6172 7.84 20.84 7.84H26.16V13.16C26.16 13.3828 26.2485 13.5964 26.406 13.754C26.5636 13.9115 26.7772 14 27 14C27.2228 14 27.4364 13.9115 27.594 13.754C27.7515 13.5964 27.84 13.3828 27.84 13.16V7.84H33.16C33.3828 7.84 33.5964 7.7515 33.754 7.59397C33.9115 7.43644 34 7.22278 34 7Z" fill="#1B7692"/>
<defs>
<clipPath id="clip0_651_4546">
<rect width="27.2779" height="31.1748" fill="white" transform="translate(0 5.82422)"/>
</clipPath>
</defs>
</svg>
