<svg width="37" height="37" viewBox="0 0 37 37" fill="none" xmlns="http://www.w3.org/2000/svg">
<path d="M17.6353 3.48633H5.47451C4.55301 3.48633 3.66926 3.85239 3.01766 4.50399C2.36606 5.15559 2 6.03934 2 6.96084V31.2824C2 32.2039 2.36606 33.0877 3.01766 33.7393C3.66926 34.3909 4.55301 34.7569 5.47451 34.7569H29.7961C30.7176 34.7569 31.6014 34.3909 32.253 33.7393C32.9046 33.0877 33.2706 32.2039 33.2706 31.2824V19.1216" stroke="#707070" stroke-width="3" stroke-linecap="round" stroke-linejoin="round"/>
<path d="M28.7086 2.8333C29.3997 2.14218 30.3371 1.75391 31.3145 1.75391C32.2919 1.75391 33.2292 2.14218 33.9204 2.8333C34.6115 3.52442 34.9998 4.46179 34.9998 5.43918C34.9998 6.41658 34.6115 7.35394 33.9204 8.04507L17.6336 24.3318L10.6846 26.0691L12.4218 19.1201L28.7086 2.8333Z" stroke="#707070" stroke-width="3" stroke-linecap="round" stroke-linejoin="round"/>
</svg>
