<svg width="31" height="22" viewBox="0 0 31 22" fill="none" xmlns="http://www.w3.org/2000/svg">
<g clip-path="url(#clip0_628_6440)">
<path d="M27.7354 3.16453H15.4052L12.5037 0H3.07412C1.47824 0 0.172852 1.26568 0.172852 2.81293V18.2839C0.172852 19.8312 1.47824 21.0968 3.07412 21.0968H27.7354C29.3312 21.0968 30.6366 19.8312 30.6366 18.2839V5.97746C30.6366 4.43021 29.3312 3.16453 27.7354 3.16453ZM28.4607 18.2839C28.4607 18.6651 28.1285 18.9872 27.7354 18.9872H3.07412C2.68095 18.9872 2.34884 18.6651 2.34884 18.2839V5.27421H27.7354C28.1285 5.27421 28.4607 5.59627 28.4607 5.97746V18.2839Z" fill="black"/>
</g>
<defs>
<clipPath id="clip0_628_6440">
<rect width="30.0023" height="21.4302" fill="white" transform="translate(0.172852)"/>
</clipPath>
</defs>
</svg>
