<svg width="34" height="37" viewBox="0 0 34 37" fill="none" xmlns="http://www.w3.org/2000/svg">
<path d="M33.4859 8.02734C33.3649 8.15094 33.2211 8.249 33.0628 8.31591C32.9045 8.38282 32.7348 8.41726 32.5634 8.41726C32.3921 8.41726 32.2224 8.38282 32.0641 8.31591C31.9058 8.249 31.762 8.15094 31.641 8.02734L28.6548 4.98271L28.6548 15.051C28.6548 15.403 28.5175 15.7405 28.2732 15.9894C28.0289 16.2383 27.6975 16.3782 27.3519 16.3782C27.0064 16.3782 26.675 16.2383 26.4306 15.9894C26.1863 15.7405 26.049 15.403 26.049 15.051L26.049 4.98271L23.0628 8.02734C22.8182 8.27656 22.4864 8.41656 22.1404 8.41656C21.7944 8.41656 21.4626 8.27656 21.218 8.02734C20.9733 7.77812 20.8359 7.44011 20.8359 7.08767C20.8359 6.73523 20.9733 6.39722 21.218 6.148L26.4295 0.839138C26.5505 0.715539 26.6943 0.617477 26.8526 0.550568C27.0109 0.483659 27.1805 0.449219 27.3519 0.449219C27.5233 0.449219 27.693 0.483659 27.8513 0.550568C28.0096 0.617477 28.1533 0.715539 28.2744 0.839138L33.4859 6.148C33.6072 6.27129 33.7035 6.41775 33.7692 6.57899C33.8348 6.74024 33.8687 6.9131 33.8687 7.08767C33.8687 7.26225 33.8348 7.4351 33.7692 7.59635C33.7035 7.75759 33.6072 7.90405 33.4859 8.02734Z" fill="#707070"/>
<path d="M33.7692 29.5045C33.7035 29.3432 33.6072 29.1968 33.4859 29.0735C33.3649 28.9499 33.2211 28.8518 33.0628 28.7849C32.9045 28.718 32.7348 28.6836 32.5634 28.6836C32.3921 28.6836 32.2224 28.718 32.0641 28.7849C31.9058 28.8518 31.762 28.9499 31.641 29.0735L28.6548 32.1181V22.0499C28.6548 21.6979 28.5175 21.3603 28.2732 21.1114C28.0289 20.8625 27.6975 20.7227 27.3519 20.7227C27.0064 20.7227 26.675 20.8625 26.4306 21.1114C26.1863 21.3603 26.049 21.6979 26.049 22.0499V32.1181L23.0628 29.0735C22.8182 28.8243 22.4864 28.6843 22.1404 28.6843C21.7944 28.6843 21.4626 28.8243 21.218 29.0735C20.9733 29.3227 20.8359 29.6607 20.8359 30.0132C20.8359 30.3656 20.9733 30.7036 21.218 30.9528L26.4295 36.2617C26.5505 36.3853 26.6943 36.4834 26.8526 36.5503C27.0109 36.6172 27.1805 36.6516 27.3519 36.6516C27.5233 36.6516 27.693 36.6172 27.8513 36.5503C28.0096 36.4834 28.1533 36.3853 28.2744 36.2617L33.4859 30.9528C33.6072 30.8295 33.7035 30.6831 33.7692 30.5218C33.8348 30.3606 33.8687 30.1877 33.8687 30.0132C33.8687 29.8386 33.8348 29.6657 33.7692 29.5045Z" fill="#C7C7C7"/>
<path d="M0.562988 23.6179V17.8256H20.8362V23.6179H17.94V20.7217H3.45916V23.6179H0.562988ZM3.45916 12.0332H17.94V14.9294H3.45916V12.0332Z" fill="#707070"/>
</svg>
