<svg width="32" height="21" viewBox="0 0 32 21" fill="none" xmlns="http://www.w3.org/2000/svg">
<path d="M27.5 0C27.6557 0 27.805 0.061136 27.915 0.169959C28.0251 0.278782 28.087 0.426378 28.087 0.580276V3.86851H31.413C31.5687 3.86851 31.718 3.92965 31.8281 4.03847C31.9382 4.14729 32 4.29489 32 4.44879C32 4.60268 31.9382 4.75028 31.8281 4.8591C31.718 4.96793 31.5687 5.02906 31.413 5.02906H28.087V8.3173C28.087 8.4712 28.0251 8.61879 27.915 8.72761C27.805 8.83644 27.6557 8.89757 27.5 8.89757C27.3443 8.89757 27.195 8.83644 27.085 8.72761C26.9749 8.61879 26.913 8.4712 26.913 8.3173V5.02906H23.587C23.4313 5.02906 23.282 4.96793 23.1719 4.8591C23.0618 4.75028 23 4.60268 23 4.44879C23 4.29489 23.0618 4.14729 23.1719 4.03847C23.282 3.92965 23.4313 3.86851 23.587 3.86851H26.913V0.580276C26.913 0.426378 26.9749 0.278782 27.085 0.169959C27.195 0.061136 27.3443 0 27.5 0Z" fill="#1B7692"/>
<path d="M17.3479 15.5995L17.3478 15.6006C18.7468 15.9116 19.8711 16.8975 20.3358 18.1714L20.3371 18.1749C20.491 18.5869 20.5729 19.0339 20.5729 19.5C20.5729 20.0366 20.1189 20.5 19.5174 20.5H8.62847C8.0269 20.5 7.57292 20.0366 7.57292 19.5C7.57292 19.0372 7.65858 18.5887 7.81007 18.1712C8.26186 16.9352 9.33352 15.971 10.6749 15.6303C11.0157 15.5462 11.3736 15.5 11.7444 15.5H16.4111C16.7351 15.5 17.0518 15.5337 17.3479 15.5995ZM7.45282 7.2386C7.9406 7.70896 8.21111 8.34295 8.21111 9C8.21111 9.65705 7.9406 10.291 7.45282 10.7614C6.96442 11.2324 6.29826 11.5 5.6 11.5C4.90174 11.5 4.23558 11.2324 3.74718 10.7614C3.2594 10.291 2.98889 9.65705 2.98889 9C2.98889 8.34295 3.2594 7.70896 3.74718 7.2386C4.23558 6.76765 4.90174 6.5 5.6 6.5C6.29826 6.5 6.96442 6.76765 7.45282 7.2386ZM1.55556 17.5C0.953986 17.5 0.5 17.0366 0.5 16.5C0.5 15.1384 1.65399 14 3.11111 14H7.77778C7.8954 14 8.01122 14.0074 8.1247 14.0217C6.82563 14.8246 5.82825 16.0491 5.34464 17.5H1.55556ZM26.4444 17.5H22.8108C22.3238 16.0406 21.3186 14.8113 20.0103 14.008C20.0801 14.0027 20.1508 14 20.2222 14H24.8889C26.346 14 27.5 15.1384 27.5 16.5C27.5 17.0366 27.046 17.5 26.4444 17.5ZM24.5639 7.2386C25.0517 7.70896 25.3222 8.34295 25.3222 9C25.3222 9.65705 25.0517 10.291 24.5639 10.7614C24.0755 11.2324 23.4094 11.5 22.7111 11.5C22.0129 11.5 21.3467 11.2324 20.8583 10.7614C20.3705 10.291 20.1 9.65705 20.1 9C20.1 8.34295 20.3705 7.70896 20.8583 7.2386C21.3467 6.76765 22.0129 6.5 22.7111 6.5C23.4094 6.5 24.0755 6.76765 24.5639 7.2386ZM16.4806 12.0417C15.8463 12.6533 14.9823 13 14.0778 13C13.1732 13 12.3092 12.6533 11.675 12.0417C11.0413 11.4307 10.6889 10.606 10.6889 9.75C10.6889 8.89404 11.0413 8.06928 11.675 7.45827C12.3092 6.84666 13.1732 6.5 14.0778 6.5C14.9823 6.5 15.8463 6.84666 16.4806 7.45827C17.1142 8.06928 17.4667 8.89403 17.4667 9.75C17.4667 10.606 17.1142 11.4307 16.4806 12.0417Z" stroke="#1B7692"/>
</svg>
