<svg width="77" height="77" viewBox="0 0 77 77" fill="none" xmlns="http://www.w3.org/2000/svg">
<circle cx="38.5" cy="38.5" r="38" fill="#146578" stroke="white"/>
<path d="M38.5 17.0625C34.2601 17.0625 30.1154 18.3198 26.59 20.6754C23.0646 23.031 20.3169 26.379 18.6943 30.2962C17.0718 34.2134 16.6473 38.5238 17.4744 42.6822C18.3016 46.8407 20.3433 50.6605 23.3414 53.6586C26.3395 56.6567 30.1593 58.6984 34.3178 59.5256C38.4762 60.3528 42.7866 59.9282 46.7038 58.3057C50.621 56.6831 53.9691 53.9354 56.3246 50.41C58.6802 46.8847 59.9375 42.7399 59.9375 38.5C59.9375 32.8144 57.6789 27.3617 53.6586 23.3414C49.6383 19.3211 44.1856 17.0625 38.5 17.0625ZM38.5 56.875C34.8658 56.875 31.3132 55.7973 28.2914 53.7783C25.2697 51.7592 22.9145 48.8894 21.5237 45.5318C20.133 42.1742 19.7691 38.4796 20.4781 34.9152C21.1871 31.3508 22.9371 28.0767 25.5069 25.5069C28.0767 22.9371 31.3508 21.1871 34.9152 20.4781C38.4796 19.7691 42.1742 20.133 45.5318 21.5237C48.8894 22.9145 51.7592 25.2696 53.7783 28.2914C55.7973 31.3132 56.875 34.8658 56.875 38.5C56.875 43.3734 54.9391 48.0471 51.4931 51.4931C48.0471 54.9391 43.3734 56.875 38.5 56.875Z" fill="white"/>
<path d="M38.5 52.2812C39.7685 52.2812 40.7969 51.2529 40.7969 49.9844C40.7969 48.7158 39.7685 47.6875 38.5 47.6875C37.2315 47.6875 36.2031 48.7158 36.2031 49.9844C36.2031 51.2529 37.2315 52.2812 38.5 52.2812Z" fill="white"/>
<path d="M40.0313 26.25H37.7344C36.8289 26.248 35.932 26.4249 35.0951 26.7704C34.2582 27.116 33.4977 27.6235 32.8575 28.2637C32.2172 28.904 31.7097 29.6644 31.3642 30.5013C31.0186 31.3382 30.8417 32.2352 30.8438 33.1406V33.9063H33.9063V33.1406C33.9063 32.1254 34.3096 31.1517 35.0275 30.4337C35.7454 29.7158 36.7191 29.3125 37.7344 29.3125H40.0313C41.0465 29.3125 42.0202 29.7158 42.7382 30.4337C43.4561 31.1517 43.8594 32.1254 43.8594 33.1406C43.8594 34.1559 43.4561 35.1296 42.7382 35.8475C42.0202 36.5654 41.0465 36.9688 40.0313 36.9688H36.9688V43.8594H40.0313V40.0313C41.8588 40.0313 43.6114 39.3053 44.9037 38.013C46.1959 36.7208 46.9219 34.9681 46.9219 33.1406C46.9219 31.3131 46.1959 29.5605 44.9037 28.2682C43.6114 26.976 41.8588 26.25 40.0313 26.25Z" fill="white"/>
</svg>
