<svg width="152" height="137" viewBox="0 0 152 137" fill="none" xmlns="http://www.w3.org/2000/svg">
<path d="M1 58.6914V135.999H62.8457V97.345H27.5053V58.6914H1ZM36.3404 58.6914V87.6816H62.8457L36.3404 58.6914ZM9.8351 78.0182H18.6702V87.6816H9.8351V78.0182ZM9.8351 97.345H18.6702V107.008H9.8351V97.345ZM9.8351 116.672H45.1755V126.335H9.8351V116.672Z" stroke="#C7C7C7"/>
<path d="M42.23 2V79.3071H104.076V40.6536H68.7353V2H42.23ZM77.5704 2V30.9902H104.076L77.5704 2ZM51.0651 21.3268H59.9002V30.9902H51.0651V21.3268ZM51.0651 40.6536H59.9002V50.317H51.0651V40.6536ZM51.0651 59.9804H86.4055V69.6437H51.0651V59.9804Z" stroke="#C7C7C7"/>
<path d="M88.6141 43.2266V120.534H150.46V81.8801H115.119V43.2266H88.6141ZM123.955 43.2266V72.2167H150.46L123.955 43.2266ZM97.4492 62.5533H106.284V72.2167H97.4492V62.5533ZM97.4492 81.8801H106.284V91.5435H97.4492V81.8801ZM97.4492 101.207H132.79V110.87H97.4492V101.207Z" stroke="#C7C7C7"/>
</svg>
