<svg width="27" height="18" viewBox="0 0 27 18" fill="none" xmlns="http://www.w3.org/2000/svg">
<path d="M16.4004 10.8H26.0004M21.2004 15.6V6" stroke="#1B7692" stroke-width="2" stroke-linecap="round" stroke-linejoin="round"/>
<path d="M6.80005 2.80078H23.6M6.80005 9.20078H12.8M6.80005 15.6008H12.8" stroke="#1B7692" stroke-width="3" stroke-linecap="round" stroke-linejoin="round"/>
<path d="M2.8 3.6C3.24183 3.6 3.6 3.24183 3.6 2.8C3.6 2.35817 3.24183 2 2.8 2C2.35817 2 2 2.35817 2 2.8C2 3.24183 2.35817 3.6 2.8 3.6Z" stroke="#1B7692" stroke-width="3" stroke-linecap="round" stroke-linejoin="round"/>
<path d="M2.8 10.0004C3.24183 10.0004 3.6 9.64222 3.6 9.20039C3.6 8.75856 3.24183 8.40039 2.8 8.40039C2.35817 8.40039 2 8.75856 2 9.20039C2 9.64222 2.35817 10.0004 2.8 10.0004Z" stroke="#1B7692" stroke-width="3" stroke-linecap="round" stroke-linejoin="round"/>
<path d="M2.8 16.4008C3.24183 16.4008 3.6 16.0426 3.6 15.6008C3.6 15.159 3.24183 14.8008 2.8 14.8008C2.35817 14.8008 2 15.159 2 15.6008C2 16.0426 2.35817 16.4008 2.8 16.4008Z" stroke="#1B7692" stroke-width="3" stroke-linecap="round" stroke-linejoin="round"/>
</svg>
