<svg width="23" height="22" viewBox="0 0 23 22" fill="none" xmlns="http://www.w3.org/2000/svg">
<path d="M14.5012 10.9996C14.5012 12.5117 13.2754 13.7375 11.7633 13.7375C10.2512 13.7375 9.02539 12.5117 9.02539 10.9996C9.02539 9.48752 10.2512 8.26172 11.7633 8.26172C13.2754 8.26172 14.5012 9.48752 14.5012 10.9996Z" stroke="white" stroke-width="1.5" stroke-linecap="round" stroke-linejoin="round"/>
<path d="M18.5166 13.7378C18.268 14.301 18.3873 14.9587 18.8177 15.3988L18.8725 15.4535C19.2152 15.7959 19.4078 16.2605 19.4078 16.7449C19.4078 17.2294 19.2152 17.6939 18.8725 18.0363C18.5301 18.379 18.0656 18.5716 17.5811 18.5716C17.0967 18.5716 16.6321 18.379 16.2897 18.0363L16.235 17.9815C15.7949 17.5511 15.1372 17.4318 14.574 17.6804C14.0223 17.9168 13.6638 18.4583 13.6614 19.0584V19.2136C13.6614 20.2217 12.8442 21.0389 11.8361 21.0389C10.828 21.0389 10.0108 20.2217 10.0108 19.2136V19.1314C9.99637 18.5133 9.6055 17.9668 9.02518 17.7534C8.46201 17.5048 7.80425 17.6241 7.36419 18.0545L7.30943 18.1093C6.96707 18.452 6.5025 18.6446 6.01806 18.6446C5.53362 18.6446 5.06904 18.452 4.72668 18.1093C4.38394 17.7669 4.19136 17.3024 4.19136 16.8179C4.19136 16.3335 4.38394 15.8689 4.72668 15.5266L4.78144 15.4718C5.2119 15.0317 5.33116 14.374 5.08261 13.8108C4.84618 13.2591 4.30472 12.9006 3.70453 12.8982L3.54939 12.8982C2.54132 12.8982 1.72412 12.081 1.72412 11.0729C1.72412 10.0648 2.54132 9.24764 3.54939 9.24764H3.63152C4.24968 9.23318 4.79617 8.84232 5.0096 8.262C5.25815 7.69882 5.13889 7.04107 4.70843 6.60101L4.65367 6.54625C4.31093 6.20389 4.11835 5.73932 4.11835 5.25487C4.11835 4.77043 4.31093 4.30586 4.65367 3.9635C4.99603 3.62076 5.4606 3.42817 5.94505 3.42817C6.42949 3.42817 6.89406 3.62076 7.23642 3.9635L7.29118 4.01826C7.73124 4.44871 8.38899 4.56798 8.95217 4.31943H9.02518C9.57684 4.08299 9.93542 3.54154 9.93781 2.94135V2.7862C9.93781 1.77814 10.755 0.960937 11.7631 0.960938C12.7711 0.960938 13.5883 1.77814 13.5883 2.7862V2.86834C13.5907 3.46853 13.9493 4.00998 14.501 4.24641C15.0642 4.49497 15.7219 4.3757 16.162 3.94525L16.2167 3.89049C16.5591 3.54775 17.0237 3.35516 17.5081 3.35516C17.9925 3.35516 18.4571 3.54775 18.7995 3.89049C19.1422 4.23285 19.3348 4.69742 19.3348 5.18186C19.3348 5.66631 19.1422 6.13088 18.7995 6.47324L18.7447 6.528C18.3143 6.96805 18.195 7.62581 18.4435 8.18899L18.4435 8.262C18.68 8.81366 19.2214 9.17224 19.8216 9.17463H19.9768C20.9848 9.17463 21.802 9.99183 21.802 10.9999C21.802 12.008 20.9848 12.8252 19.9768 12.8252H19.8946C19.2944 12.8276 18.753 13.1861 18.5166 13.7378Z" stroke="white" stroke-width="1.5" stroke-linecap="round" stroke-linejoin="round"/>
</svg>
