<svg width="16" height="14" viewBox="0 0 16 14" fill="none" xmlns="http://www.w3.org/2000/svg">
<path d="M10.0315 7.2895L15.2628 2.49416C15.7384 2.05821 15.7384 1.34102 15.2628 0.905081C14.7872 0.46914 14.0049 0.46914 13.5293 0.905081L8.298 5.70043L3.06671 0.905082C2.59114 0.469141 1.80874 0.469141 1.33317 0.905082C1.09539 1.12305 0.972657 1.41134 0.972657 1.69962C0.972657 1.9879 1.09539 2.27619 1.33317 2.49416L6.56446 7.2895L1.33317 12.0849C1.09538 12.3028 0.972656 12.5911 0.972656 12.8794C0.972656 13.1677 1.09538 13.456 1.33317 13.6739C1.80874 14.1099 2.59113 14.1099 3.06671 13.6739L8.29799 8.87858L13.5293 13.6739C14.0049 14.1099 14.7872 14.1099 15.2628 13.6739C15.7384 13.238 15.7384 12.5208 15.2628 12.0849L10.0315 7.2895Z" fill="black"/>
</svg>
