<svg width="17" height="17" viewBox="0 0 17 17" fill="none" xmlns="http://www.w3.org/2000/svg">
<path d="M8.7247 0.5625C4.26619 0.5625 0.651855 4.17683 0.651855 8.63535C0.651855 13.0939 4.26619 16.7082 8.7247 16.7082C13.1832 16.7082 16.7976 13.0939 16.7976 8.63535C16.7976 4.17684 13.1832 0.5625 8.7247 0.5625ZM8.7247 15.1945C5.10217 15.1945 2.16551 12.2579 2.16551 8.63535C2.16551 5.01282 5.10217 2.07616 8.7247 2.07616C12.3472 2.07616 15.2839 5.01282 15.2839 8.63535C15.2839 12.2579 12.3472 15.1945 8.7247 15.1945ZM11.2475 4.59892L8.7247 7.12169L6.20194 4.59892L4.68828 6.11258L7.21105 8.63535L4.68828 11.1581L6.20194 12.6718L8.7247 10.149L11.2475 12.6718L12.7611 11.1581L10.2384 8.63535L12.7611 6.11258L11.2475 4.59892Z" fill="#1B7692"/>
</svg>
