<svg width="92" height="76" viewBox="0 0 92 76" fill="none" xmlns="http://www.w3.org/2000/svg">
<path opacity="0.51" d="M82.5596 75.1491H8.59931C3.88612 75.1491 0.0654297 70.9732 0.0654297 65.8219V9.85848C0.0654297 4.70713 3.88612 0.53125 8.59931 0.53125H82.5596C87.2728 0.53125 91.0935 4.70713 91.0935 9.85848V65.8219C91.0935 70.9732 87.2728 75.1491 82.5596 75.1491ZM19.9778 11.413C14.4792 11.413 10.0216 16.2849 10.0216 22.2948C10.0216 28.3046 14.4792 33.1766 19.9778 33.1766C25.4765 33.1766 29.934 28.3046 29.934 22.2948C29.934 16.2849 25.4765 11.413 19.9778 11.413ZM11.4439 62.7128H79.715V40.9493L64.1558 23.9436C63.3226 23.033 61.9718 23.033 61.1385 23.9436L37.0456 50.2765L27.1756 39.489C26.3425 38.5784 24.9916 38.5784 24.1584 39.489L11.4439 53.3856V62.7128Z" fill="black"/>
</svg>
