<svg width="29" height="29" viewBox="0 0 29 29" fill="none" xmlns="http://www.w3.org/2000/svg">
<path d="M16.8183 26.2004L15.3988 27.6199C14.7977 28.221 13.8258 28.221 13.2311 27.6199L0.800413 15.1956C0.199342 14.5946 0.199342 13.6226 0.800413 13.028L13.2311 0.597288C13.8321 -0.00378346 14.8041 -0.00378346 15.3988 0.597288L16.8183 2.01684C17.4258 2.62431 17.413 3.61543 16.7927 4.21011L9.08752 11.5509H27.465C28.3154 11.5509 28.9996 12.2351 28.9996 13.0855V15.1317C28.9996 15.9822 28.3154 16.6664 27.465 16.6664H9.08752L16.7927 24.0071C17.4194 24.6018 17.4322 25.5929 16.8183 26.2004Z" fill="#707070"/>
</svg>
