<svg width="16" height="16" viewBox="0 0 16 16" fill="none" xmlns="http://www.w3.org/2000/svg">
<path d="M3.75739 3.75733C2.77583 4.73888 2.16497 6.03041 2.0289 7.41186C1.89284 8.7933 2.23997 10.1792 3.01117 11.3334C3.78237 12.4876 4.9299 13.3387 6.25826 13.7416C7.58662 14.1446 9.0136 14.0745 10.2961 13.5433C11.5785 13.0121 12.6371 12.0526 13.2915 10.8284C13.9459 9.6042 14.1555 8.19097 13.8847 6.8295C13.6139 5.46804 12.8794 4.2426 11.8064 3.36197C10.7334 2.48134 9.38819 2.00001 8.00006 2V3.33333M8.00006 8L4.00006 4M14.0001 8H12.6667M8.00006 12.6667V14M3.33339 8H2.00006" stroke="#1B7692" stroke-width="1.5" stroke-linecap="round"/>
</svg>
