<svg width="18" height="18" viewBox="0 0 18 18" fill="none" xmlns="http://www.w3.org/2000/svg">
<path d="M18 13.8252V18H13.5V15.75H11.25V13.5H9V11.6807C8.56641 11.9092 8.1123 12.082 7.63769 12.1992C7.16309 12.3164 6.67969 12.375 6.1875 12.375C5.61914 12.375 5.07129 12.3018 4.54395 12.1553C4.0166 12.0088 3.52441 11.8008 3.06738 11.5312C2.61035 11.2617 2.19434 10.9395 1.81934 10.5645C1.44434 10.1895 1.11914 9.77051 0.84375 9.30762C0.568359 8.84473 0.360352 8.35254 0.219727 7.83105C0.0791016 7.30957 0.00585938 6.76172 0 6.1875C0 5.61914 0.0732422 5.07129 0.219727 4.54395C0.366211 4.0166 0.574219 3.52441 0.84375 3.06738C1.11328 2.61035 1.43555 2.19434 1.81055 1.81934C2.18555 1.44434 2.60449 1.11914 3.06738 0.84375C3.53027 0.568359 4.02246 0.360352 4.54395 0.219727C5.06543 0.0791016 5.61328 0.00585938 6.1875 0C6.75586 0 7.30371 0.0732422 7.83105 0.219727C8.3584 0.366211 8.85059 0.574219 9.30762 0.84375C9.76465 1.11328 10.1807 1.43555 10.5557 1.81055C10.9307 2.18555 11.2559 2.60449 11.5312 3.06738C11.8066 3.53027 12.0146 4.02246 12.1553 4.54395C12.2959 5.06543 12.3691 5.61328 12.375 6.1875C12.375 6.48633 12.3516 6.78223 12.3047 7.0752C12.2578 7.36816 12.1904 7.65527 12.1025 7.93652L18 13.8252ZM16.875 14.2998L10.8105 8.23535C10.9395 7.90137 11.0449 7.56738 11.127 7.2334C11.209 6.89941 11.25 6.55078 11.25 6.1875C11.25 5.49023 11.1182 4.83398 10.8545 4.21875C10.5908 3.60352 10.2275 3.06738 9.76465 2.61035C9.30176 2.15332 8.76562 1.79297 8.15625 1.5293C7.54687 1.26562 6.89062 1.13086 6.1875 1.125C5.49023 1.125 4.83398 1.25684 4.21875 1.52051C3.60352 1.78418 3.06738 2.14746 2.61035 2.61035C2.15332 3.07324 1.79297 3.60937 1.5293 4.21875C1.26562 4.82812 1.13086 5.48438 1.125 6.1875C1.125 6.88477 1.25684 7.54102 1.52051 8.15625C1.78418 8.77148 2.14746 9.30762 2.61035 9.76465C3.07324 10.2217 3.60937 10.582 4.21875 10.8457C4.82812 11.1094 5.48438 11.2441 6.1875 11.25C6.75586 11.25 7.3125 11.1533 7.85742 10.96C8.40234 10.7666 8.89746 10.4883 9.34277 10.125H10.125V12.375H12.375V14.625H14.625V16.875H16.875V14.2998ZM4.5 3.375C4.6582 3.375 4.80469 3.4043 4.93945 3.46289C5.07422 3.52148 5.19141 3.60059 5.29102 3.7002C5.39062 3.7998 5.47266 3.91992 5.53711 4.06055C5.60156 4.20117 5.63086 4.34766 5.625 4.5C5.625 4.6582 5.5957 4.80469 5.53711 4.93945C5.47852 5.07422 5.39941 5.19141 5.2998 5.29102C5.2002 5.39062 5.08008 5.47266 4.93945 5.53711C4.79883 5.60156 4.65234 5.63086 4.5 5.625C4.3418 5.625 4.19531 5.5957 4.06055 5.53711C3.92578 5.47852 3.80859 5.39941 3.70898 5.2998C3.60938 5.2002 3.52734 5.08008 3.46289 4.93945C3.39844 4.79883 3.36914 4.65234 3.375 4.5C3.375 4.3418 3.4043 4.19531 3.46289 4.06055C3.52148 3.92578 3.60059 3.80859 3.7002 3.70898C3.7998 3.60938 3.91992 3.52734 4.06055 3.46289C4.20117 3.39844 4.34766 3.36914 4.5 3.375Z" fill="#1B7692"/>
</svg>
