<svg width="25" height="24" viewBox="0 0 25 24" fill="none" xmlns="http://www.w3.org/2000/svg">
<path d="M11.0977 21.0008V17.0008C11.0977 16.0675 10.9555 15.3758 10.671 14.9258C10.3866 14.4758 10.0101 14.0341 9.54163 13.6008L10.9722 12.1758C11.173 12.3591 11.3654 12.5551 11.5495 12.7638C11.7335 12.9725 11.9176 13.1931 12.1016 13.4258C12.3359 13.1091 12.5745 12.8301 12.8174 12.5888C13.0604 12.3475 13.307 12.1098 13.5573 11.8758C14.1931 11.2925 14.7704 10.6175 15.289 9.8508C15.8077 9.08413 16.0838 7.74246 16.1173 5.8258L15.2388 6.7008C15.0548 6.88413 14.8249 6.9758 14.5492 6.9758C14.2734 6.9758 14.0348 6.88413 13.8334 6.7008C13.6326 6.5008 13.5322 6.26346 13.5322 5.9888C13.5322 5.71413 13.6326 5.47646 13.8334 5.2758L16.4184 2.7008C16.5188 2.6008 16.6276 2.5298 16.7447 2.4878C16.8618 2.4458 16.9873 2.42513 17.1212 2.4258C17.255 2.4258 17.3805 2.44646 17.4977 2.4878C17.6148 2.52913 17.7235 2.60013 17.8239 2.7008L20.4341 5.3008C20.6182 5.48413 20.7145 5.71313 20.7232 5.9878C20.7319 6.26246 20.6356 6.50013 20.4341 6.7008C20.2501 6.88413 20.0158 6.9758 19.7314 6.9758C19.4469 6.9758 19.2127 6.88413 19.0286 6.7008L18.1251 5.8258C18.0916 8.20913 17.7235 9.90513 17.0208 10.9138C16.3181 11.9225 15.6153 12.7431 14.9126 13.3758C14.3772 13.8591 13.9421 14.3301 13.6075 14.7888C13.2728 15.2475 13.1055 15.9848 13.1055 17.0008V21.0008C13.1055 21.2841 13.0092 21.5218 12.8164 21.7138C12.6236 21.9058 12.3854 22.0015 12.1016 22.0008C11.8172 22.0008 11.5789 21.9048 11.3868 21.7128C11.1947 21.5208 11.0984 21.2835 11.0977 21.0008ZM6.27891 8.1758C6.21198 7.84246 6.16613 7.4758 6.14137 7.0758C6.11661 6.6758 6.09552 6.25913 6.07812 5.8258L5.1746 6.7258C4.99055 6.90913 4.76065 7.0008 4.48491 7.0008C4.20917 7.0008 3.97057 6.9008 3.76912 6.7008C3.58507 6.51746 3.49304 6.28413 3.49304 6.0008C3.49304 5.71746 3.58507 5.48413 3.76912 5.3008L6.3793 2.7008C6.47969 2.6008 6.58845 2.5298 6.70557 2.4878C6.82269 2.4458 6.94818 2.42546 7.08204 2.4268C7.21589 2.4268 7.34138 2.4478 7.45851 2.4898C7.57563 2.5318 7.68439 2.60213 7.78478 2.7008L10.395 5.3008C10.5957 5.5008 10.6921 5.73413 10.6841 6.0008C10.6761 6.26746 10.5713 6.5008 10.3699 6.7008C10.1691 6.88413 9.93483 6.9758 9.66712 6.9758C9.39941 6.9758 9.16516 6.88413 8.96438 6.7008L8.08595 5.8508C8.08595 6.2008 8.10269 6.53013 8.13615 6.8388C8.16961 7.14746 8.20308 7.4348 8.23654 7.7008L6.27891 8.1758ZM8.43732 12.5758C8.10269 12.2258 7.78076 11.8175 7.47156 11.3508C7.16235 10.8841 6.89029 10.3091 6.65537 9.6258L8.58791 9.1508C8.75523 9.6008 8.94765 9.98413 9.16516 10.3008C9.38268 10.6175 9.61692 10.9008 9.8679 11.1508L8.43732 12.5758Z" fill="#1B7692"/>
<path d="M7.08228 6C7.08228 7.16667 7.08228 11.5 12.1019 14" stroke="#1B7692" stroke-width="2"/>
</svg>
