<svg width="22" height="22" viewBox="0 0 22 23" fill="none" xmlns="http://www.w3.org/2000/svg">
<path d="M2.25616 15.632C2.29016 15.309 2.52416 15.049 2.99216 14.528L4.02316 13.375C4.27516 13.055 4.45416 12.5 4.45416 12C4.45416 11.5 4.27516 10.944 4.02416 10.625L2.99116 9.472C2.52316 8.952 2.28916 8.691 2.25516 8.368C2.22116 8.045 2.39516 7.741 2.74516 7.134L3.23916 6.277C3.61216 5.629 3.79916 5.305 4.11716 5.177C4.43416 5.047 4.79316 5.149 5.51216 5.353L6.73216 5.696C7.19116 5.802 7.67216 5.742 8.09016 5.527L8.42716 5.333C8.78637 5.10266 9.06249 4.76347 9.21516 4.365L9.54916 3.368C9.76916 2.708 9.87916 2.378 10.1402 2.188C10.4032 2 10.7502 2 11.4442 2H12.5592C13.2532 2 13.6012 2 13.8622 2.189C14.1232 2.378 14.2332 2.708 14.4522 3.368L14.7872 4.365C14.9398 4.76347 15.216 5.10266 15.5752 5.333L15.9122 5.527C16.3302 5.742 16.8122 5.802 17.2702 5.697L18.4902 5.353C19.2092 5.149 19.5682 5.047 19.8852 5.176C20.2032 5.306 20.3902 5.629 20.7632 6.277L21.2562 7.134C21.6062 7.741 21.7812 8.044 21.7472 8.368C21.7132 8.692 21.4792 8.951 21.0112 9.472L19.9802 10.625C19.7282 10.944 19.5492 11.5 19.5492 12C19.5492 12.5 19.7282 13.056 19.9792 13.375L21.0112 14.528C21.4792 15.048 21.7132 15.309 21.7472 15.632C21.7812 15.955 21.6072 16.259 21.2572 16.866L20.7632 17.723C20.3902 18.371 20.2032 18.695 19.8852 18.823C19.5682 18.953 19.2092 18.851 18.4902 18.647L17.2702 18.304C16.8114 18.1987 16.3302 18.2585 15.9112 18.473L15.5752 18.667C15.2152 18.897 14.9392 19.237 14.7872 19.635L14.4532 20.632C14.2332 21.292 14.1232 21.622 13.8622 21.812C13.6012 22 13.2532 22 12.5592 22H11.4442C10.7502 22 10.4032 22 10.1412 21.811C9.88016 21.622 9.77016 21.293 9.55116 20.633" stroke="#1B7692" stroke-width="1.5" stroke-linecap="round" stroke-linejoin="round"/>
<path d="M2.73696 18.7818C3.81696 17.7018 7.48896 14.0658 7.84896 13.6458C8.22996 13.2018 7.92096 12.6018 8.10496 10.7418C8.19396 9.84176 8.38696 9.16776 8.94096 8.66576C9.60096 8.04176 10.141 8.04176 12.001 7.99976C13.621 8.04176 13.813 7.86176 13.981 8.28176C14.101 8.58176 13.741 8.76176 13.309 9.24176C12.349 10.2018 11.785 10.6818 11.731 10.9818C11.341 12.3018 12.877 13.0818 13.717 12.2418C14.035 11.9238 15.505 10.4418 15.649 10.3218C15.757 10.2258 16.016 10.2298 16.141 10.3818C16.249 10.4878 16.261 10.5018 16.249 10.9818C16.239 11.4258 16.243 12.0638 16.245 12.7218C16.246 13.5738 16.201 14.5218 15.841 15.0018C15.121 16.0818 13.921 16.1418 12.841 16.1898C11.821 16.2498 10.981 16.1418 10.717 16.3338C10.501 16.4418 9.36096 17.6418 7.98096 19.0218L5.52096 21.4818C3.48096 23.1018 1.23696 20.5818 2.73696 18.7818Z" stroke="#1B7692" stroke-width="1.5" stroke-linecap="round" stroke-linejoin="round"/>
</svg>
