<svg width="24" height="24" viewBox="0 0 24 24" fill="none" xmlns="http://www.w3.org/2000/svg">
<path d="M10.1459 3.24792C10.2953 2.87864 10.5516 2.56238 10.8819 2.3397C11.2122 2.11701 11.6015 1.99805 11.9999 1.99805C12.3983 1.99805 12.7876 2.11701 13.1179 2.3397C13.4482 2.56238 13.7045 2.87864 13.8539 3.24792C15.3327 3.65461 16.637 4.53548 17.5667 5.75526C18.4963 6.97504 18.9998 8.46627 18.9999 9.99992V14.6969L20.8319 17.4449C20.9324 17.5955 20.9901 17.7706 20.9989 17.9514C21.0077 18.1322 20.9672 18.3121 20.8818 18.4717C20.7964 18.6313 20.6692 18.7648 20.5139 18.8578C20.3586 18.9508 20.181 19 19.9999 18.9999H15.4649C15.3445 19.833 14.928 20.5949 14.2916 21.1459C13.6552 21.6969 12.8417 22.0001 11.9999 22.0001C11.1581 22.0001 10.3446 21.6969 9.7082 21.1459C9.07184 20.5949 8.65531 19.833 8.53491 18.9999H3.99991C3.81886 19 3.64121 18.9508 3.4859 18.8578C3.33058 18.7648 3.20344 18.6313 3.11803 18.4717C3.03262 18.3121 2.99215 18.1322 3.00093 17.9514C3.00972 17.7706 3.06743 17.5955 3.16791 17.4449L4.99991 14.6969V9.99992C4.99991 6.77592 7.17991 4.05992 10.1459 3.24792ZM10.5859 18.9999C10.6892 19.2926 10.8807 19.546 11.134 19.7252C11.3874 19.9045 11.6901 20.0007 12.0004 20.0007C12.3107 20.0007 12.6134 19.9045 12.8668 19.7252C13.1201 19.546 13.3116 19.2926 13.4149 18.9999H10.5859ZM11.9999 4.99992C10.6738 4.99992 9.40205 5.52671 8.46437 6.46439C7.52669 7.40207 6.99991 8.67384 6.99991 9.99992V14.9999C6.99995 15.1975 6.94149 15.3906 6.83191 15.5549L5.86891 16.9999H18.1299L17.1669 15.5549C17.0577 15.3905 16.9996 15.1974 16.9999 14.9999V9.99992C16.9999 8.67384 16.4731 7.40207 15.5354 6.46439C14.5978 5.52671 13.326 4.99992 11.9999 4.99992Z" fill="#1B7692"/>
</svg>
