<svg width="4" height="22" viewBox="0 0 4 22" fill="none" xmlns="http://www.w3.org/2000/svg">
<path d="M0 1.83333C0 2.31956 0.210713 2.78588 0.585786 3.1297C0.960859 3.47351 1.46957 3.66667 2 3.66667C2.53043 3.66667 3.03914 3.47351 3.41421 3.1297C3.78929 2.78588 4 2.31956 4 1.83333C4 1.3471 3.78929 0.880788 3.41421 0.536971C3.03914 0.193154 2.53043 0 2 0C1.46957 0 0.960859 0.193154 0.585786 0.536971C0.210713 0.880788 0 1.3471 0 1.83333ZM0 11C0 11.4862 0.210713 11.9525 0.585786 12.2964C0.960859 12.6402 1.46957 12.8333 2 12.8333C2.53043 12.8333 3.03914 12.6402 3.41421 12.2964C3.78929 11.9525 4 11.4862 4 11C4 10.5138 3.78929 10.0475 3.41421 9.70364C3.03914 9.35982 2.53043 9.16667 2 9.16667C1.46957 9.16667 0.960859 9.35982 0.585786 9.70364C0.210713 10.0475 0 10.5138 0 11ZM0 20.1667C0 20.6529 0.210713 21.1192 0.585786 21.463C0.960859 21.8068 1.46957 22 2 22C2.53043 22 3.03914 21.8068 3.41421 21.463C3.78929 21.1192 4 20.6529 4 20.1667C4 19.6804 3.78929 19.2141 3.41421 18.8703C3.03914 18.5265 2.53043 18.3333 2 18.3333C1.46957 18.3333 0.960859 18.5265 0.585786 18.8703C0.210713 19.2141 0 19.6804 0 20.1667Z" fill="#343131"/>
</svg>
