<svg width="25" height="31" viewBox="0 0 25 31" fill="none" xmlns="http://www.w3.org/2000/svg">
<path d="M7.46875 19.85H17.5312M7.46875 24.2H12.5M8.90625 10.425H16.0938M12.5 14.05V6.8M22.5625 1H2.4375C2.05625 1 1.69062 1.15277 1.42103 1.4247C1.15145 1.69662 1 2.06544 1 2.45V28.55C1 28.9346 1.15145 29.3034 1.42103 29.5753C1.69062 29.8472 2.05625 30 2.4375 30H22.5625C22.9437 30 23.3094 29.8472 23.579 29.5753C23.8486 29.3034 24 28.9346 24 28.55V2.45C24 2.06544 23.8486 1.69662 23.579 1.4247C23.3094 1.15277 22.9437 1 22.5625 1Z" stroke="white" stroke-width="2" stroke-linecap="round" stroke-linejoin="round"/>
</svg>
