<svg width="16" height="17" viewBox="0 0 16 17" fill="none" xmlns="http://www.w3.org/2000/svg">
<path d="M5.66667 3H2.86667C2.3716 3 1.8968 3.21071 1.54673 3.58579C1.19667 3.96086 1 4.46957 1 5V14C1 14.5304 1.19667 15.0391 1.54673 15.4142C1.8968 15.7893 2.3716 16 2.86667 16H11.2667C11.7617 16 12.2365 15.7893 12.5866 15.4142C12.9367 15.0391 13.1333 14.5304 13.1333 14V11M9.4 4C9.4 4.79565 9.695 5.55871 10.2201 6.12132C10.7452 6.68393 11.4574 7 12.2 7C12.9426 7 13.6548 6.68393 14.1799 6.12132C14.705 5.55871 15 4.79565 15 4C15 3.20435 14.705 2.44129 14.1799 1.87868C13.6548 1.31607 12.9426 1 12.2 1C11.4574 1 10.7452 1.31607 10.2201 1.87868C9.695 2.44129 9.4 3.20435 9.4 4Z" stroke="#1B7692" stroke-width="1.5" stroke-linecap="round" stroke-linejoin="round"/>
</svg>
