<svg width="12" height="12" viewBox="0 0 12 12" fill="none" xmlns="http://www.w3.org/2000/svg">
<g clip-path="url(#clip0_3117_6740)">
<path d="M0.5 1.5C0.5 1.23478 0.605357 0.98043 0.792893 0.792893C0.98043 0.605357 1.23478 0.5 1.5 0.5H4.75C5.01522 0.5 5.26957 0.605357 5.45711 0.792893C5.64464 0.98043 5.75 1.23478 5.75 1.5V4.75C5.75 5.01522 5.64464 5.26957 5.45711 5.45711C5.26957 5.64464 5.01522 5.75 4.75 5.75H3.5V7.7815C3.5 8.1775 3.822 8.5 4.219 8.5H6.25V7.25C6.25 6.98478 6.35536 6.73043 6.54289 6.54289C6.73043 6.35536 6.98478 6.25 7.25 6.25H10.5C10.7652 6.25 11.0196 6.35536 11.2071 6.54289C11.3946 6.73043 11.5 6.98478 11.5 7.25V10.5C11.5 10.7652 11.3946 11.0196 11.2071 11.2071C11.0196 11.3946 10.7652 11.5 10.5 11.5H7.25C6.98478 11.5 6.73043 11.3946 6.54289 11.2071C6.35536 11.0196 6.25 10.7652 6.25 10.5V9.25H4.2185C3.82907 9.2496 3.4557 9.09469 3.18038 8.81927C2.90505 8.54385 2.75026 8.17044 2.75 7.781V5.75H1.5C1.23478 5.75 0.98043 5.64464 0.792893 5.45711C0.605357 5.26957 0.5 5.01522 0.5 4.75V1.5ZM1.5 1.25C1.4337 1.25 1.37011 1.27634 1.32322 1.32322C1.27634 1.37011 1.25 1.4337 1.25 1.5V4.75C1.25 4.8163 1.27634 4.87989 1.32322 4.92678C1.37011 4.97366 1.4337 5 1.5 5H4.75C4.8163 5 4.87989 4.97366 4.92678 4.92678C4.97366 4.87989 5 4.8163 5 4.75V1.5C5 1.4337 4.97366 1.37011 4.92678 1.32322C4.87989 1.27634 4.8163 1.25 4.75 1.25H1.5ZM7.25 7C7.1837 7 7.12011 7.02634 7.07322 7.07322C7.02634 7.12011 7 7.1837 7 7.25V10.5C7 10.5663 7.02634 10.6299 7.07322 10.6768C7.12011 10.7237 7.1837 10.75 7.25 10.75H10.5C10.5663 10.75 10.6299 10.7237 10.6768 10.6768C10.7237 10.6299 10.75 10.5663 10.75 10.5V7.25C10.75 7.1837 10.7237 7.12011 10.6768 7.07322C10.6299 7.02634 10.5663 7 10.5 7H7.25Z" fill="white"/>
</g>
<defs>
<clipPath id="clip0_3117_6740">
<rect width="12" height="12" fill="white"/>
</clipPath>
</defs>
</svg>
