<svg width="17" height="16" viewBox="0 0 17 16" fill="none" xmlns="http://www.w3.org/2000/svg">
<path d="M4.0998 1.95078C4.0998 2.38839 3.92597 2.80807 3.61653 3.11751C3.3071 3.42694 2.88741 3.60078 2.4498 3.60078C2.0122 3.60078 1.59251 3.42694 1.28308 3.11751C0.973644 2.80807 0.799805 2.38839 0.799805 1.95078C0.799805 1.51317 0.973644 1.09349 1.28308 0.784055C1.59251 0.47462 2.0122 0.300781 2.4498 0.300781C2.88741 0.300781 3.3071 0.47462 3.61653 0.784055C3.92597 1.09349 4.0998 1.51317 4.0998 1.95078ZM16.1998 1.95078C16.1998 2.38839 16.026 2.80807 15.7165 3.11751C15.4071 3.42694 14.9874 3.60078 14.5498 3.60078C14.1122 3.60078 13.6925 3.42694 13.3831 3.11751C13.0736 2.80807 12.8998 2.38839 12.8998 1.95078C12.8998 1.51317 13.0736 1.09349 13.3831 0.784055C13.6925 0.47462 14.1122 0.300781 14.5498 0.300781C14.9874 0.300781 15.4071 0.47462 15.7165 0.784055C16.026 1.09349 16.1998 1.51317 16.1998 1.95078ZM4.0998 14.0508C4.0998 14.4884 3.92597 14.9081 3.61653 15.2175C3.3071 15.5269 2.88741 15.7008 2.4498 15.7008C2.0122 15.7008 1.59251 15.5269 1.28308 15.2175C0.973644 14.9081 0.799805 14.4884 0.799805 14.0508C0.799805 13.6132 0.973644 13.1935 1.28308 12.8841C1.59251 12.5746 2.0122 12.4008 2.4498 12.4008C2.88741 12.4008 3.3071 12.5746 3.61653 12.8841C3.92597 13.1935 4.0998 13.6132 4.0998 14.0508ZM16.1998 14.0508C16.1998 14.4884 16.026 14.9081 15.7165 15.2175C15.4071 15.5269 14.9874 15.7008 14.5498 15.7008C14.1122 15.7008 13.6925 15.5269 13.3831 15.2175C13.0736 14.9081 12.8998 14.4884 12.8998 14.0508C12.8998 13.6132 13.0736 13.1935 13.3831 12.8841C13.6925 12.5746 14.1122 12.4008 14.5498 12.4008C14.9874 12.4008 15.4071 12.5746 15.7165 12.8841C16.026 13.1935 16.1998 13.6132 16.1998 14.0508ZM5.1998 1.95078C5.1998 1.80491 5.25775 1.66502 5.3609 1.56187C5.46404 1.45873 5.60394 1.40078 5.7498 1.40078H11.2498C11.3957 1.40078 11.5356 1.45873 11.6387 1.56187C11.7419 1.66502 11.7998 1.80491 11.7998 1.95078C11.7998 2.09665 11.7419 2.23654 11.6387 2.33969C11.5356 2.44283 11.3957 2.50078 11.2498 2.50078H5.7498C5.60394 2.50078 5.46404 2.44283 5.3609 2.33969C5.25775 2.23654 5.1998 2.09665 5.1998 1.95078ZM5.1998 14.0508C5.1998 13.9049 5.25775 13.765 5.3609 13.6619C5.46404 13.5587 5.60394 13.5008 5.7498 13.5008H11.2498C11.3957 13.5008 11.5356 13.5587 11.6387 13.6619C11.7419 13.765 11.7998 13.9049 11.7998 14.0508C11.7998 14.1967 11.7419 14.3365 11.6387 14.4397C11.5356 14.5428 11.3957 14.6008 11.2498 14.6008H5.7498C5.60394 14.6008 5.46404 14.5428 5.3609 14.4397C5.25775 14.3365 5.1998 14.1967 5.1998 14.0508ZM1.8998 5.25078C1.8998 5.10491 1.95775 4.96502 2.0609 4.86187C2.16404 4.75873 2.30394 4.70078 2.4498 4.70078C2.59567 4.70078 2.73557 4.75873 2.83871 4.86187C2.94186 4.96502 2.9998 5.10491 2.9998 5.25078V10.7508C2.9998 10.8967 2.94186 11.0365 2.83871 11.1397C2.73557 11.2428 2.59567 11.3008 2.4498 11.3008C2.30394 11.3008 2.16404 11.2428 2.0609 11.1397C1.95775 11.0365 1.8998 10.8967 1.8998 10.7508V5.25078ZM13.9998 5.25078C13.9998 5.10491 14.0578 4.96502 14.1609 4.86187C14.264 4.75873 14.4039 4.70078 14.5498 4.70078C14.6957 4.70078 14.8356 4.75873 14.9387 4.86187C15.0419 4.96502 15.0998 5.10491 15.0998 5.25078V10.7508C15.0998 10.8967 15.0419 11.0365 14.9387 11.1397C14.8356 11.2428 14.6957 11.3008 14.5498 11.3008C14.4039 11.3008 14.264 11.2428 14.1609 11.1397C14.0578 11.0365 13.9998 10.8967 13.9998 10.7508V5.25078Z" fill="#1B7692"/>
</svg>
