<svg width="51" height="51" viewBox="0 0 51 51" fill="none" xmlns="http://www.w3.org/2000/svg">
<path opacity="0.2" d="M33.1503 12.75H43.3503C44.0266 12.75 44.6752 13.0187 45.1534 13.4969C45.6316 13.9751 45.9003 14.6237 45.9003 15.3V25.5C45.9003 26.1763 45.6316 26.8249 45.1534 27.3031C44.6752 27.7813 44.0266 28.05 43.3503 28.05H33.1503C32.474 28.05 31.8254 27.7813 31.3472 27.3031C30.869 26.8249 30.6003 26.1763 30.6003 25.5V15.3C30.6003 14.6237 30.869 13.9751 31.3472 13.4969C31.8254 13.0187 32.474 12.75 33.1503 12.75ZM17.8503 28.05H28.0503C28.7266 28.05 29.3752 28.3187 29.8534 28.7969C30.3316 29.2751 30.6003 29.9237 30.6003 30.6V40.8C30.6003 41.4763 30.3316 42.1249 29.8534 42.6031C29.3752 43.0813 28.7266 43.35 28.0503 43.35H17.8503C17.174 43.35 16.5254 43.0813 16.0472 42.6031C15.569 42.1249 15.3003 41.4763 15.3003 40.8V30.6C15.3003 29.9237 15.569 29.2751 16.0472 28.7969C16.5254 28.3187 17.174 28.05 17.8503 28.05Z" fill="#146578"/>
<path d="M28.9529 23.852C28.7135 24.0914 28.3888 24.2259 28.0502 24.2259C27.7117 24.2259 27.387 24.0914 27.1475 23.852C26.9081 23.6126 26.7736 23.2878 26.7736 22.9493C26.7736 22.6107 26.9081 22.286 27.1475 22.0466L37.3475 11.8466C37.4661 11.728 37.6068 11.634 37.7617 11.5698C37.9166 11.5057 38.0826 11.4727 38.2502 11.4727C38.4179 11.4727 38.5839 11.5057 38.7388 11.5698C38.8937 11.634 39.0344 11.728 39.1529 11.8466C39.2715 11.9651 39.3655 12.1058 39.4297 12.2607C39.4938 12.4156 39.5269 12.5816 39.5269 12.7493C39.5269 12.9169 39.4938 13.0829 39.4297 13.2378C39.3655 13.3927 39.2715 13.5334 39.1529 13.652L28.9529 23.852ZM13.6529 39.152C13.5344 39.2705 13.3937 39.3645 13.2388 39.4287C13.0839 39.4929 12.9179 39.5259 12.7502 39.5259C12.5826 39.5259 12.4166 39.4929 12.2617 39.4287C12.1068 39.3645 11.9661 39.2705 11.8475 39.152C11.729 39.0334 11.635 38.8927 11.5708 38.7378C11.5067 38.5829 11.4736 38.4169 11.4736 38.2493C11.4736 38.0816 11.5067 37.9156 11.5708 37.7607C11.635 37.6058 11.729 37.4651 11.8475 37.3466L22.0475 27.1466C22.287 26.9072 22.6117 26.7727 22.9502 26.7727C23.2888 26.7727 23.6135 26.9072 23.8529 27.1466C24.0924 27.386 24.2269 27.7107 24.2269 28.0493C24.2269 28.3878 24.0924 28.7126 23.8529 28.952L13.6529 39.152Z" fill="#146578"/>
<path d="M12.7501 39.5246C12.4119 39.5246 12.0876 39.3903 11.8485 39.1512C11.6094 38.9121 11.4751 38.5878 11.4751 38.2496C11.4751 37.9115 11.6094 37.5872 11.8485 37.348C12.0876 37.1089 12.4119 36.9746 12.7501 36.9746H22.9501C23.2882 36.9746 23.6126 37.1089 23.8517 37.348C24.0908 37.5872 24.2251 37.9115 24.2251 38.2496C24.2251 38.5878 24.0908 38.9121 23.8517 39.1512C23.6126 39.3903 23.2882 39.5246 22.9501 39.5246H12.7501Z" fill="#146578"/>
<path d="M14.0246 38.2496C14.0246 38.5878 13.8903 38.9121 13.6512 39.1512C13.4121 39.3903 13.0878 39.5246 12.7496 39.5246C12.4115 39.5246 12.0872 39.3903 11.848 39.1512C11.6089 38.9121 11.4746 38.5878 11.4746 38.2496V28.0496C11.4746 27.7115 11.6089 27.3872 11.848 27.148C12.0872 26.9089 12.4115 26.7746 12.7496 26.7746C13.0878 26.7746 13.4121 26.9089 13.6512 27.148C13.8903 27.3872 14.0246 27.7115 14.0246 28.0496V38.2496ZM39.5246 22.9496C39.5246 23.2878 39.3903 23.6121 39.1512 23.8512C38.9121 24.0903 38.5878 24.2246 38.2496 24.2246C37.9115 24.2246 37.5872 24.0903 37.348 23.8512C37.1089 23.6121 36.9746 23.2878 36.9746 22.9496V12.7496C36.9746 12.4115 37.1089 12.0872 37.348 11.848C37.5872 11.6089 37.9115 11.4746 38.2496 11.4746C38.5878 11.4746 38.9121 11.6089 39.1512 11.848C39.3903 12.0872 39.5246 12.4115 39.5246 12.7496V22.9496Z" fill="#146578"/>
<path d="M28.0504 14.0246C27.7122 14.0246 27.3879 13.8903 27.1488 13.6512C26.9097 13.4121 26.7754 13.0878 26.7754 12.7496C26.7754 12.4115 26.9097 12.0872 27.1488 11.848C27.3879 11.6089 27.7122 11.4746 28.0504 11.4746H38.2504C38.5885 11.4746 38.9128 11.6089 39.152 11.848C39.3911 12.0872 39.5254 12.4115 39.5254 12.7496C39.5254 13.0878 39.3911 13.4121 39.152 13.6512C38.9128 13.8903 38.5885 14.0246 38.2504 14.0246H28.0504Z" fill="#146578"/>
</svg>
