<svg width="130" height="132" viewBox="0 0 130 132" fill="none" xmlns="http://www.w3.org/2000/svg">
<path d="M114.704 109.86C106.378 95.3161 93.0318 85.3857 77.5691 81.8057C84.9167 78.764 90.9911 73.2388 94.7544 66.1741C98.5177 59.1093 99.7364 50.9434 98.2023 43.0715C96.6682 35.1996 92.4766 28.1102 86.3435 23.0144C80.2103 17.9187 72.5164 15.1328 64.576 15.1328C56.6357 15.1328 48.9417 17.9187 42.8085 23.0144C36.6754 28.1102 32.4838 35.1996 30.9497 43.0715C29.4156 50.9434 30.6344 59.1093 34.3977 66.1741C38.1609 73.2388 44.2353 78.764 51.5829 81.8057C36.1403 85.3705 22.7742 95.3161 14.4482 109.86C14.2071 110.326 14.1535 110.867 14.2983 111.372C14.4432 111.877 14.7754 112.305 15.2256 112.568C15.6758 112.831 16.2091 112.908 16.7141 112.783C17.2192 112.658 17.6569 112.341 17.9358 111.897C27.784 94.6795 45.2325 84.3978 64.576 84.3978C83.9195 84.3978 101.368 94.6795 111.216 111.897C111.393 112.207 111.647 112.464 111.953 112.642C112.259 112.821 112.606 112.915 112.96 112.916C113.314 112.917 113.662 112.822 113.968 112.641C114.43 112.37 114.767 111.926 114.905 111.404C115.043 110.883 114.971 110.328 114.704 109.86ZM34.336 49.7688C34.336 43.7256 36.1095 37.8181 39.4324 32.7933C42.7552 27.7686 47.478 23.8523 53.0037 21.5396C58.5293 19.227 64.6095 18.6219 70.4755 19.8009C76.3415 20.9799 81.7298 23.8899 85.9589 28.1631C90.188 32.4363 93.0681 37.8807 94.235 43.8078C95.4018 49.7349 94.8029 55.8785 92.5141 61.4617C90.2253 67.0449 86.3494 71.8169 81.3764 75.1743C76.4035 78.5318 70.5569 80.3238 64.576 80.3238C56.5587 80.3144 48.8725 77.0921 43.2034 71.364C37.5343 65.6359 34.3453 57.8696 34.336 49.7688Z"  fill="#C8C8C8"/>
</svg>
