<svg width="13" height="16" viewBox="0 0 13 16" fill="none" xmlns="http://www.w3.org/2000/svg">
<path d="M4.09375 10.1H8.90625M4.09375 12.2H6.5M4.78125 5.55H8.21875M6.5 7.3V3.8M11.3125 1H1.6875C1.50516 1 1.3303 1.07375 1.20136 1.20503C1.07243 1.3363 1 1.51435 1 1.7V14.3C1 14.4857 1.07243 14.6637 1.20136 14.795C1.3303 14.9263 1.50516 15 1.6875 15H11.3125C11.4948 15 11.6697 14.9263 11.7986 14.795C11.9276 14.6637 12 14.4857 12 14.3V1.7C12 1.51435 11.9276 1.3363 11.7986 1.20503C11.6697 1.07375 11.4948 1 11.3125 1Z" stroke="#343131" stroke-linecap="round" stroke-linejoin="round"/>
</svg>
