<svg width="18" height="18" viewBox="0 0 18 18" fill="none" xmlns="http://www.w3.org/2000/svg">
<path d="M4.5 6.0005C5.29565 6.0005 6.05871 5.68443 6.62132 5.12182C7.18393 4.55921 7.5 3.79615 7.5 3.0005C7.5 2.20485 7.18393 1.44179 6.62132 0.87918C6.05871 0.316571 5.29565 0.000500115 4.5 0.000500115C3.70435 0.000500115 2.94129 0.316571 2.37868 0.87918C1.81607 1.44179 1.5 2.20485 1.5 3.0005C1.5 3.79615 1.81607 4.55921 2.37868 5.12182C2.94129 5.68443 3.70435 6.0005 4.5 6.0005ZM4.5 4.5005C4.10218 4.5005 3.72064 4.34246 3.43934 4.06116C3.15804 3.77986 3 3.39832 3 3.0005C3 2.60268 3.15804 2.22114 3.43934 1.93984C3.72064 1.65854 4.10218 1.5005 4.5 1.5005C4.89782 1.5005 5.27936 1.65854 5.56066 1.93984C5.84196 2.22114 6 2.60268 6 3.0005C6 3.39832 5.84196 3.77986 5.56066 4.06116C5.27936 4.34246 4.89782 4.5005 4.5 4.5005ZM0 8.7505C0 7.7845 0.784 7.0005 1.75 7.0005H7.25C8.216 7.0005 9 7.7845 9 8.7505V13.5005C9 14.694 8.52589 15.8386 7.68198 16.6825C6.83807 17.5264 5.69347 18.0005 4.5 18.0005C3.30653 18.0005 2.16193 17.5264 1.31802 16.6825C0.474106 15.8386 0 14.694 0 13.5005V8.7505ZM1.75 8.5005C1.6837 8.5005 1.62011 8.52684 1.57322 8.57372C1.52634 8.62061 1.5 8.6842 1.5 8.7505V13.5005C1.5 14.2961 1.81607 15.0592 2.37868 15.6218C2.94129 16.1844 3.70435 16.5005 4.5 16.5005C5.29565 16.5005 6.05871 16.1844 6.62132 15.6218C7.18393 15.0592 7.5 14.2961 7.5 13.5005V8.7505C7.5 8.6842 7.47366 8.62061 7.42678 8.57372C7.37989 8.52684 7.3163 8.5005 7.25 8.5005H1.75ZM7.527 5.6145C7.98349 5.87137 8.49928 6.00424 9.02306 5.9999C9.54684 5.99555 10.0604 5.85415 10.5125 5.58975C10.9647 5.32534 11.3398 4.94716 11.6004 4.49281C11.861 4.03847 11.9982 3.5238 11.9982 3C11.9982 2.4762 11.861 1.96153 11.6004 1.50719C11.3398 1.05284 10.9647 0.674658 10.5125 0.410255C10.0604 0.145852 9.54684 0.00444615 9.02306 0.000103148C8.49928 -0.00423985 7.98349 0.128632 7.527 0.3855C7.854 0.7635 8.111 1.2035 8.279 1.6855C8.50742 1.56035 8.7645 1.49684 9.02492 1.50121C9.28534 1.50558 9.54014 1.57769 9.76423 1.71044C9.98832 1.84318 10.174 2.03199 10.303 2.25828C10.4319 2.48457 10.4997 2.74054 10.4997 3.001C10.4997 3.26146 10.4319 3.51743 10.303 3.74372C10.174 3.97001 9.98832 4.15882 9.76423 4.29156C9.54014 4.42431 9.28534 4.49642 9.02492 4.50079C8.7645 4.50516 8.50742 4.44165 8.279 4.3165C8.11243 4.79272 7.85728 5.23313 7.527 5.6145ZM7.86 17.8545C8.22533 17.9505 8.60533 17.9992 9 18.0005C10.1935 18.0005 11.3381 17.5264 12.182 16.6825C13.0259 15.8386 13.5 14.694 13.5 13.5005V8.7505C13.5 8.28637 13.3156 7.84125 12.9874 7.51306C12.6592 7.18487 12.2141 7.0005 11.75 7.0005H9.37C9.713 7.4155 9.936 7.9335 9.988 8.5005H11.748C11.8143 8.5005 11.8779 8.52684 11.9248 8.57372C11.9717 8.62061 11.998 8.6842 11.998 8.7505V13.5005C11.998 14.2766 11.6973 15.0225 11.1589 15.5816C10.6206 16.1406 9.88656 16.4693 9.111 16.4985C8.772 17.0185 8.35 17.4765 7.86 17.8545ZM12.026 5.6145C12.4825 5.87137 12.9983 6.00424 13.5221 5.9999C14.0458 5.99555 14.5594 5.85415 15.0115 5.58975C15.4637 5.32534 15.8388 4.94716 16.0994 4.49281C16.36 4.03847 16.4972 3.5238 16.4972 3C16.4972 2.4762 16.36 1.96153 16.0994 1.50719C15.8388 1.05284 15.4637 0.674658 15.0115 0.410255C14.5594 0.145852 14.0458 0.00444615 13.5221 0.000103148C12.9983 -0.00423985 12.4825 0.128632 12.026 0.3855C12.353 0.7635 12.61 1.2035 12.778 1.6855C13.0064 1.56035 13.2635 1.49684 13.5239 1.50121C13.7843 1.50558 14.0391 1.57769 14.2632 1.71044C14.4873 1.84318 14.673 2.03199 14.802 2.25828C14.9309 2.48457 14.9987 2.74054 14.9987 3.001C14.9987 3.26146 14.9309 3.51743 14.802 3.74372C14.673 3.97001 14.4873 4.15882 14.2632 4.29156C14.0391 4.42431 13.7843 4.49642 13.5239 4.50079C13.2635 4.50516 13.0064 4.44165 12.778 4.3165C12.6114 4.79272 12.3563 5.23313 12.026 5.6145ZM12.359 17.8545C12.7243 17.9505 13.1043 17.9992 13.499 18.0005C14.6925 18.0005 15.8371 17.5264 16.681 16.6825C17.5249 15.8386 17.999 14.694 17.999 13.5005V8.7505C17.999 8.28654 17.8148 7.84158 17.4868 7.51342C17.1588 7.18526 16.714 7.00077 16.25 7.0005H13.87C14.213 7.4155 14.437 7.9335 14.488 8.5005H16.248C16.3143 8.5005 16.3779 8.52684 16.4248 8.57372C16.4717 8.62061 16.498 8.6842 16.498 8.7505V13.5005C16.498 14.2766 16.1973 15.0225 15.6589 15.5816C15.1206 16.1406 14.3866 16.4693 13.611 16.4985C13.272 17.0185 12.849 17.4765 12.359 17.8545Z" fill="#1B7692"/>
</svg>
