<svg width="21" height="23" viewBox="0 0 21 23" fill="none" xmlns="http://www.w3.org/2000/svg">
<path d="M20.3298 3.60784H15.6383V2.48039C15.6383 1.82255 15.3794 1.19165 14.9185 0.72649C14.4577 0.261326 13.8326 0 13.1809 0H7.81915C7.16739 0 6.54233 0.261326 6.08147 0.72649C5.62061 1.19165 5.3617 1.82255 5.3617 2.48039V3.60784H0.670213C0.492461 3.60784 0.32199 3.67911 0.196301 3.80598C0.0706114 3.93284 0 4.1049 0 4.28431C0 4.46373 0.0706114 4.63579 0.196301 4.76265C0.32199 4.88951 0.492461 4.96078 0.670213 4.96078H1.78723V21.4216C1.78723 21.8402 1.95199 22.2417 2.24527 22.5377C2.53854 22.8337 2.93631 23 3.35106 23H17.6489C18.0637 23 18.4615 22.8337 18.7547 22.5377C19.048 22.2417 19.2128 21.8402 19.2128 21.4216V4.96078H20.3298C20.5075 4.96078 20.678 4.88951 20.8037 4.76265C20.9294 4.63579 21 4.46373 21 4.28431C21 4.1049 20.9294 3.93284 20.8037 3.80598C20.678 3.67911 20.5075 3.60784 20.3298 3.60784ZM6.70213 2.48039C6.70213 2.18137 6.81981 1.8946 7.0293 1.68316C7.23878 1.47173 7.5229 1.35294 7.81915 1.35294H13.1809C13.4771 1.35294 13.7612 1.47173 13.9707 1.68316C14.1802 1.8946 14.2979 2.18137 14.2979 2.48039V3.60784H6.70213V2.48039ZM17.8723 21.4216C17.8723 21.4814 17.8488 21.5387 17.8069 21.581C17.765 21.6233 17.7082 21.6471 17.6489 21.6471H3.35106C3.29181 21.6471 3.23499 21.6233 3.19309 21.581C3.1512 21.5387 3.12766 21.4814 3.12766 21.4216V4.96078H17.8723V21.4216ZM8.48936 9.69608V16.9118C8.48936 17.0912 8.41875 17.2632 8.29306 17.3901C8.16737 17.517 7.9969 17.5882 7.81915 17.5882C7.6414 17.5882 7.47093 17.517 7.34524 17.3901C7.21955 17.2632 7.14894 17.0912 7.14894 16.9118V9.69608C7.14894 9.51667 7.21955 9.3446 7.34524 9.21774C7.47093 9.09088 7.6414 9.01961 7.81915 9.01961C7.9969 9.01961 8.16737 9.09088 8.29306 9.21774C8.41875 9.3446 8.48936 9.51667 8.48936 9.69608ZM13.8511 9.69608V16.9118C13.8511 17.0912 13.7805 17.2632 13.6548 17.3901C13.5291 17.517 13.3586 17.5882 13.1809 17.5882C13.0031 17.5882 12.8326 17.517 12.7069 17.3901C12.5812 17.2632 12.5106 17.0912 12.5106 16.9118V9.69608C12.5106 9.51667 12.5812 9.3446 12.7069 9.21774C12.8326 9.09088 13.0031 9.01961 13.1809 9.01961C13.3586 9.01961 13.5291 9.09088 13.6548 9.21774C13.7805 9.3446 13.8511 9.51667 13.8511 9.69608Z" fill="#1B7692"/>
</svg>
