<svg width="9" height="11" viewBox="0 0 9 11" fill="none" xmlns="http://www.w3.org/2000/svg">
<path d="M6.31579 1L5.26316 0H1.05263C0.773456 0 0.505715 0.105357 0.308309 0.292893C0.110902 0.48043 0 0.734784 0 1V7C0 7.26522 0.110902 7.51957 0.308309 7.70711C0.505715 7.89464 0.773456 8 1.05263 8H4.73684V9L6.84211 7.5L4.73684 6V7H1.05263V1H6.31579ZM10 4.5V10C10 10.2652 9.8891 10.5196 9.69169 10.7071C9.49428 10.8946 9.22654 11 8.94737 11H3.15789C2.87872 11 2.61098 10.8946 2.41357 10.7071C2.21617 10.5196 2.10526 10.2652 2.10526 10V9H3.15789V10H8.94737V5.5H6.31579V3H3.15789V6H2.10526V3C2.10526 2.73478 2.21617 2.48043 2.41357 2.29289C2.61098 2.10536 2.87872 2 3.15789 2H7.36842L10 4.5Z" fill="#1B7692"/>
</svg>
