<svg width="17" height="20" viewBox="0 0 17 20" fill="none" xmlns="http://www.w3.org/2000/svg">
<path d="M14.875 4.58464L14.4583 9.58464M2.375 4.58464L2.87917 12.9488C3.0075 15.0905 3.0725 16.1613 3.6075 16.9321C3.87167 17.3126 4.21224 17.6339 4.6075 17.8755C5.0925 18.1721 5.6775 18.2888 6.54167 18.3346M7.79167 12.918L8.73833 14.1396C8.91028 13.4978 9.27015 12.9219 9.77174 12.4861C10.2733 12.0502 10.8937 11.7742 11.5533 11.6935C12.2129 11.6128 12.8815 11.7311 13.4734 12.0332C14.0653 12.3352 14.5534 12.8073 14.875 13.3888M16.125 17.0846L15.1783 15.8646C15.0078 16.5015 14.6522 17.0735 14.1565 17.5082C13.6608 17.943 13.0474 18.221 12.3937 18.3071C11.74 18.3931 11.0755 18.2834 10.4842 17.9918C9.89286 17.7002 9.4013 17.2398 9.07167 16.6688M1.125 4.58464H16.125M12.005 4.58464L11.4358 3.4113C11.0583 2.6313 10.8692 2.24214 10.5433 1.9988C10.471 1.9449 10.3943 1.89696 10.3142 1.85547C9.95333 1.66797 9.52 1.66797 8.65417 1.66797C7.76583 1.66797 7.32167 1.66797 6.95417 1.86297C6.87293 1.90648 6.79544 1.95665 6.7225 2.01297C6.39333 2.26547 6.20917 2.66964 5.84083 3.47714L5.33583 4.58464" stroke="#1B7692" stroke-width="1.5" stroke-linecap="round" stroke-linejoin="round"/>
</svg>
