<svg width="24" height="24" viewBox="0 0 20 20" fill="none" xmlns="http://www.w3.org/2000/svg">
<g clip-path="url(#clip0_355_3039)">
<path d="M12.0669 2.00581C11.9701 1.58821 11.729 1.21821 11.386 0.961101C11.043 0.703995 10.6202 0.576308 10.1922 0.600574C9.76419 0.62484 9.35853 0.799497 9.04678 1.09373C8.73503 1.38796 8.53723 1.78285 8.48828 2.20871C8.43932 2.63458 8.54237 3.06405 8.77923 3.42134C9.01609 3.77863 9.37153 4.04078 9.78285 4.16152C10.1942 4.28226 10.6349 4.25384 11.0273 4.08127C11.4197 3.9087 11.7385 3.60307 11.9276 3.21831C13.0782 3.48012 14.1479 4.01801 15.0443 4.78556C15.9406 5.55311 16.6368 6.52727 17.0725 7.62394L18.1819 7.18769C17.6686 5.88694 16.8417 4.73323 15.7749 3.82918C14.708 2.92513 13.4343 2.29877 12.0669 2.00581ZM10.3032 3.02956C10.222 3.03217 10.1411 3.01843 10.0653 2.98915C9.98947 2.95987 9.92033 2.91566 9.86197 2.85914C9.8036 2.80261 9.75718 2.73493 9.72549 2.66012C9.69379 2.5853 9.67746 2.50488 9.67746 2.42363C9.67746 2.34237 9.69379 2.26195 9.72549 2.18713C9.75718 2.11232 9.8036 2.04464 9.86197 1.98811C9.92033 1.93159 9.98947 1.88738 10.0653 1.8581C10.1411 1.82882 10.222 1.81508 10.3032 1.81769C10.464 1.81769 10.6182 1.88156 10.7319 1.99525C10.8456 2.10895 10.9094 2.26315 10.9094 2.42394C10.9094 2.58473 10.8456 2.73893 10.7319 2.85262C10.6182 2.96632 10.464 3.02956 10.3032 3.02956ZM7.6363 3.53331L7.18818 2.42456C5.88743 2.93791 4.73372 3.76478 3.82967 4.83162C2.92562 5.89847 2.29926 7.17221 2.0063 8.53956C1.5887 8.63634 1.2187 8.87751 0.961589 9.22052C0.704483 9.56353 0.576797 9.98633 0.601062 10.4143C0.625328 10.8423 0.799986 11.248 1.09422 11.5597C1.38844 11.8715 1.78333 12.0693 2.2092 12.1182C2.63507 12.1672 3.06454 12.0641 3.42183 11.8273C3.77912 11.5904 4.04127 11.235 4.16201 10.8236C4.28275 10.4123 4.25433 9.97158 4.08176 9.57918C3.90918 9.18678 3.60356 8.86794 3.2188 8.67894C3.48169 7.5269 4.02133 6.45626 4.79104 5.55969C5.56075 4.66311 6.53734 3.96759 7.6363 3.53331ZM2.4238 10.9096C2.34419 10.9096 2.26535 10.8939 2.1918 10.8634C2.11825 10.8329 2.05141 10.7883 1.99512 10.732C1.93882 10.6757 1.89417 10.6089 1.8637 10.5353C1.83323 10.4618 1.81755 10.3829 1.81755 10.3033C1.81755 10.2237 1.83323 10.1449 1.8637 10.0713C1.89417 9.99776 1.93882 9.93092 1.99512 9.87463C2.05141 9.81833 2.11825 9.77368 2.1918 9.74321C2.26535 9.71274 2.34419 9.69706 2.4238 9.69706C2.58459 9.69706 2.73879 9.76093 2.85248 9.87463C2.96618 9.98832 3.03005 10.1425 3.03005 10.3033C3.03005 10.4641 2.96618 10.6183 2.85248 10.732C2.73879 10.8457 2.58459 10.9096 2.4238 10.9096ZM10.3032 16.3639C9.96507 16.365 9.63395 16.4604 9.34702 16.6392C9.06008 16.8181 8.82868 17.0734 8.6788 17.3764C7.52794 17.1147 6.45809 16.5767 5.5616 15.809C4.66512 15.0414 3.96894 14.0671 3.53318 12.9702L2.42443 13.4183C2.93944 14.7213 3.76908 15.8764 4.83927 16.7806C5.90947 17.6848 7.18691 18.3099 8.55755 18.6002C8.63628 18.9339 8.80771 19.2385 9.05208 19.4789C9.29645 19.7194 9.6038 19.8859 9.9387 19.9592C10.2736 20.0325 10.6224 20.0097 10.9449 19.8933C11.2674 19.777 11.5504 19.5719 11.7614 19.3016C11.9723 19.0314 12.1026 18.707 12.1372 18.366C12.1717 18.0249 12.1092 17.681 11.9568 17.3739C11.8044 17.0668 11.5683 16.8091 11.2757 16.6304C10.9831 16.4517 10.646 16.3593 10.3032 16.3639ZM10.3032 18.7883C10.1424 18.7883 9.98818 18.7244 9.87449 18.6107C9.7608 18.4971 9.69693 18.3428 9.69693 18.1821C9.69693 18.0213 9.7608 17.8671 9.87449 17.7534C9.98818 17.6397 10.1424 17.5758 10.3032 17.5758C10.464 17.5758 10.6182 17.6397 10.7319 17.7534C10.8456 17.8671 10.9094 18.0213 10.9094 18.1821C10.9094 18.3428 10.8456 18.4971 10.7319 18.6107C10.6182 18.7244 10.464 18.7883 10.3032 18.7883ZM20 10.3027C20.0012 9.97818 19.9154 9.65928 19.7517 9.37908C19.588 9.09888 19.3524 8.86757 19.0692 8.70916C18.7859 8.55075 18.4655 8.47099 18.1411 8.47817C17.8166 8.48535 17.5 8.57921 17.2241 8.75C16.9482 8.92079 16.723 9.16229 16.5718 9.44946C16.4207 9.73663 16.3492 10.059 16.3646 10.3831C16.3801 10.7073 16.482 11.0214 16.6598 11.2929C16.8376 11.5643 17.0847 11.7833 17.3757 11.9271C17.1138 13.0778 16.5758 14.1475 15.8082 15.0439C15.0405 15.9403 14.0662 16.6364 12.9694 17.0721L13.4182 18.1814C14.7211 17.6664 15.8763 16.8368 16.7805 15.7666C17.6847 14.6964 18.3098 13.419 18.6 12.0483C18.9946 11.955 19.3466 11.7326 19.6003 11.4163C19.8539 11.1 19.9946 10.7081 20 10.3027ZM18.1813 10.9089C18.0205 10.9089 17.8663 10.8451 17.7526 10.7314C17.6389 10.6177 17.5751 10.4635 17.5751 10.3027C17.5751 10.1419 17.6389 9.9877 17.7526 9.874C17.8663 9.76031 18.0205 9.69644 18.1813 9.69644C18.3421 9.69644 18.4963 9.76031 18.61 9.874C18.7237 9.9877 18.7875 10.1419 18.7875 10.3027C18.7875 10.4635 18.7237 10.6177 18.61 10.7314C18.4963 10.8451 18.3421 10.9089 18.1813 10.9089Z" fill="#1B7692"/>
<path d="M11.9937 10.2195C12.3385 9.8828 12.5752 9.45095 12.6734 8.97912C12.7717 8.50728 12.7271 8.01687 12.5453 7.57051C12.3635 7.12415 12.0528 6.7421 11.6529 6.47315C11.2529 6.20419 10.7819 6.06055 10.3 6.06055C9.818 6.06055 9.34699 6.20419 8.94705 6.47315C8.54712 6.7421 8.23643 7.12415 8.05464 7.57051C7.87286 8.01687 7.82825 8.50728 7.92649 8.97912C8.02473 9.45095 8.26138 9.8828 8.60621 10.2195C8.19577 10.4968 7.85957 10.8705 7.62705 11.3079C7.39453 11.7452 7.27278 12.2329 7.27246 12.7283V13.9401H13.3331V12.7276C13.3321 12.2318 13.2095 11.7438 12.976 11.3064C12.7425 10.869 12.4052 10.4962 11.9937 10.2195ZM9.09059 8.48514C9.09059 8.32591 9.12195 8.16824 9.18288 8.02113C9.24382 7.87403 9.33313 7.74036 9.44572 7.62777C9.55831 7.51518 9.69197 7.42587 9.83908 7.36493C9.98619 7.304 10.1439 7.27264 10.3031 7.27264C10.4623 7.27264 10.62 7.304 10.7671 7.36493C10.9142 7.42587 11.0479 7.51518 11.1605 7.62777C11.273 7.74036 11.3624 7.87403 11.4233 8.02113C11.4842 8.16824 11.5156 8.32591 11.5156 8.48514C11.5156 8.80671 11.3878 9.11512 11.1605 9.3425C10.9331 9.56989 10.6247 9.69764 10.3031 9.69764C9.98151 9.69764 9.67311 9.56989 9.44572 9.3425C9.21833 9.11512 9.09059 8.80671 9.09059 8.48514ZM8.48434 12.7276C8.47986 12.486 8.52358 12.2459 8.61295 12.0213C8.70233 11.7968 8.83556 11.5923 9.00486 11.4198C9.17416 11.2474 9.37614 11.1104 9.59899 11.0169C9.82184 10.9233 10.0611 10.8752 10.3028 10.8752C10.5445 10.8752 10.7837 10.9233 11.0066 11.0169C11.2294 11.1104 11.4314 11.2474 11.6007 11.4198C11.77 11.5923 11.9032 11.7968 11.9926 12.0213C12.082 12.2459 12.1257 12.486 12.1212 12.7276H8.48434Z" fill="#1B7692"/>
</g>
<defs>
<clipPath id="clip0_355_3039">
<rect width="20" height="20" fill="white"/>
</clipPath>
</defs>
</svg>
