<svg width="23" height="23" viewBox="0 0 23 23" fill="none" xmlns="http://www.w3.org/2000/svg">
<g clip-path="url(#clip0_507_4047)">
<path d="M13.8771 2.30688C13.7658 1.82663 13.4884 1.40113 13.094 1.10546C12.6995 0.809789 12.2133 0.66295 11.7211 0.690856C11.2289 0.718761 10.7624 0.919617 10.4039 1.25798C10.0454 1.59635 9.81794 2.05047 9.76164 2.54022C9.70535 3.02996 9.82385 3.52385 10.0962 3.93474C10.3686 4.34562 10.7774 4.64709 11.2504 4.78595C11.7234 4.9248 12.2303 4.89211 12.6815 4.69365C13.1328 4.4952 13.4995 4.14372 13.7168 3.70125C15.0401 4.00234 16.2702 4.62091 17.301 5.50359C18.3319 6.38628 19.1324 7.50655 19.6336 8.76772L20.9093 8.26604C20.319 6.77018 19.3681 5.44341 18.1412 4.40375C16.9143 3.3641 15.4495 2.64378 13.8771 2.30688ZM11.8488 3.48419C11.7554 3.48719 11.6623 3.47139 11.5752 3.43772C11.488 3.40405 11.4085 3.3532 11.3414 3.2882C11.2743 3.2232 11.2209 3.14537 11.1844 3.05933C11.148 2.97329 11.1292 2.8808 11.1292 2.78736C11.1292 2.69392 11.148 2.60144 11.1844 2.5154C11.2209 2.42936 11.2743 2.35153 11.3414 2.28653C11.4085 2.22152 11.488 2.17068 11.5752 2.13701C11.6623 2.10334 11.7554 2.08754 11.8488 2.09054C12.0337 2.09054 12.211 2.16399 12.3418 2.29474C12.4725 2.42549 12.546 2.60282 12.546 2.78772C12.546 2.97263 12.4725 3.14996 12.3418 3.28071C12.211 3.41146 12.0337 3.48419 11.8488 3.48419ZM8.78187 4.0635L8.26652 2.78844C6.77067 3.37879 5.4439 4.32969 4.40424 5.55656C3.36459 6.78343 2.64427 8.24824 2.30737 9.82069C1.82712 9.93198 1.40162 10.2093 1.10595 10.6038C0.810278 10.9983 0.663438 11.4845 0.691344 11.9767C0.719249 12.4688 0.920106 12.9353 1.25847 13.2939C1.59683 13.6524 2.05096 13.8798 2.5407 13.9361C3.03045 13.9924 3.52434 13.8739 3.93523 13.6015C4.34611 13.3292 4.64758 12.9204 4.78643 12.4474C4.92529 11.9744 4.8926 11.4675 4.69414 11.0162C4.49568 10.565 4.14421 10.1983 3.70174 9.98097C4.00406 8.65613 4.62466 7.4249 5.50982 6.39383C6.39499 5.36277 7.51806 4.56292 8.78187 4.0635ZM2.78749 12.5462C2.69594 12.5462 2.60528 12.5282 2.52069 12.4931C2.4361 12.4581 2.35925 12.4067 2.29451 12.342C2.22977 12.2773 2.17841 12.2004 2.14338 12.1158C2.10834 12.0312 2.09031 11.9406 2.09031 11.849C2.09031 11.7574 2.10834 11.6668 2.14338 11.5822C2.17841 11.4976 2.22977 11.4208 2.29451 11.356C2.35925 11.2913 2.4361 11.2399 2.52069 11.2049C2.60528 11.1699 2.69594 11.1518 2.78749 11.1518C2.9724 11.1518 3.14973 11.2253 3.28048 11.356C3.41123 11.4868 3.48468 11.6641 3.48468 11.849C3.48468 12.0339 3.41123 12.2112 3.28048 12.342C3.14973 12.4727 2.9724 12.5462 2.78749 12.5462ZM11.8488 18.8187C11.4599 18.82 11.0792 18.9296 10.7492 19.1353C10.4192 19.341 10.1531 19.6346 9.98074 19.9831C8.65726 19.6821 7.42693 19.0634 6.39597 18.1806C5.36501 17.2978 4.56441 16.1773 4.06327 14.9159L2.78821 15.4313C3.38048 16.9296 4.33456 18.2581 5.56529 19.2979C6.79601 20.3377 8.26507 21.0566 9.84131 21.3904C9.93184 21.7741 10.129 22.1244 10.41 22.401C10.691 22.6775 11.0445 22.8689 11.4296 22.9533C11.8148 23.0376 12.2159 23.0113 12.5867 22.8775C12.9576 22.7438 13.2831 22.5079 13.5257 22.1971C13.7683 21.8863 13.9181 21.5133 13.9579 21.1211C13.9976 20.7288 13.9257 20.3333 13.7504 19.9802C13.5751 19.627 13.3036 19.3306 12.9672 19.1251C12.6307 18.9196 12.243 18.8134 11.8488 18.8187ZM11.8488 21.6068C11.6639 21.6068 11.4865 21.5333 11.3558 21.4026C11.225 21.2718 11.1516 21.0945 11.1516 20.9096C11.1516 20.7247 11.225 20.5473 11.3558 20.4166C11.4865 20.2858 11.6639 20.2124 11.8488 20.2124C12.0337 20.2124 12.211 20.2858 12.3418 20.4166C12.4725 20.5473 12.546 20.7247 12.546 20.9096C12.546 21.0945 12.4725 21.2718 12.3418 21.4026C12.211 21.5333 12.0337 21.6068 11.8488 21.6068ZM23.0002 11.8483C23.0015 11.4751 22.9029 11.1084 22.7146 10.7861C22.5264 10.4639 22.2554 10.1979 21.9297 10.0157C21.604 9.83355 21.2354 9.74184 20.8624 9.7501C20.4893 9.75835 20.1252 9.86628 19.8078 10.0627C19.4905 10.2591 19.2315 10.5368 19.0577 10.8671C18.8839 11.1973 18.8017 11.5681 18.8194 11.9408C18.8372 12.3136 18.9544 12.6748 19.1589 12.987C19.3633 13.2992 19.6476 13.551 19.9822 13.7163C19.681 15.0397 19.0623 16.2699 18.1795 17.3007C17.2967 18.3315 16.1763 19.132 14.915 19.6331L15.431 20.9088C16.9294 20.3166 18.2578 19.3625 19.2977 18.1318C20.3375 16.9011 21.0564 15.432 21.3902 13.8558C21.8439 13.7485 22.2488 13.4926 22.5404 13.1289C22.8321 12.7652 22.994 12.3145 23.0002 11.8483ZM20.9086 12.5455C20.7237 12.5455 20.5464 12.472 20.4156 12.3413C20.2849 12.2105 20.2114 12.0332 20.2114 11.8483C20.2114 11.6634 20.2849 11.486 20.4156 11.3553C20.5464 11.2246 20.7237 11.1511 20.9086 11.1511C21.0935 11.1511 21.2709 11.2246 21.4016 11.3553C21.5324 11.486 21.6058 11.6634 21.6058 11.8483C21.6058 12.0332 21.5324 12.2105 21.4016 12.3413C21.2709 12.472 21.0935 12.5455 20.9086 12.5455Z" fill="#1B7692"/>
<path d="M13.7927 11.7516C14.1893 11.3643 14.4614 10.8677 14.5744 10.3251C14.6874 9.7825 14.6361 9.21852 14.427 8.70521C14.218 8.19189 13.8607 7.75254 13.4008 7.44324C12.9408 7.13395 12.3992 6.96875 11.8449 6.96875C11.2907 6.96875 10.749 7.13395 10.2891 7.44324C9.82914 7.75254 9.47184 8.19189 9.26279 8.70521C9.05374 9.21852 9.00243 9.7825 9.11541 10.3251C9.2284 10.8677 9.50054 11.3643 9.89709 11.7516C9.42509 12.0705 9.03846 12.5002 8.77106 13.0032C8.50366 13.5061 8.36365 14.067 8.36328 14.6366V16.0303H15.333V14.6359C15.3319 14.0657 15.1909 13.5045 14.9224 13.0014C14.6538 12.4984 14.2659 12.0697 13.7927 11.7516ZM10.4541 9.75703C10.4541 9.57392 10.4902 9.3926 10.5603 9.22342C10.6303 9.05425 10.733 8.90054 10.8625 8.77106C10.992 8.64158 11.1457 8.53887 11.3149 8.46879C11.4841 8.39872 11.6654 8.36265 11.8485 8.36265C12.0316 8.36265 12.2129 8.39872 12.3821 8.46879C12.5513 8.53887 12.705 8.64158 12.8345 8.77106C12.964 8.90054 13.0667 9.05425 13.1367 9.22342C13.2068 9.3926 13.2429 9.57392 13.2429 9.75703C13.2429 10.1268 13.096 10.4815 12.8345 10.743C12.573 11.0045 12.2183 11.1514 11.8485 11.1514C11.4787 11.1514 11.124 11.0045 10.8625 10.743C10.601 10.4815 10.4541 10.1268 10.4541 9.75703ZM9.75694 14.6359C9.75179 14.358 9.80207 14.0819 9.90485 13.8237C10.0076 13.5654 10.1608 13.3303 10.3555 13.1319C10.5502 12.9336 10.7825 12.7761 11.0388 12.6685C11.2951 12.561 11.5702 12.5056 11.8481 12.5056C12.1261 12.5056 12.4012 12.561 12.6575 12.6685C12.9138 12.7761 13.146 12.9336 13.3407 13.1319C13.5354 13.3303 13.6887 13.5654 13.7914 13.8237C13.8942 14.0819 13.9445 14.358 13.9393 14.6359H9.75694Z" fill="#1B7692"/>
</g>
<defs>
<clipPath id="clip0_507_4047">
<rect width="23" height="23" fill="white"/>
</clipPath>
</defs>
</svg>
