<svg width="16" height="17" viewBox="0 0 16 17" fill="none" xmlns="http://www.w3.org/2000/svg">
<path d="M16 3.76686V14.6041C16 15.0589 15.846 15.4385 15.538 15.743C15.2293 16.0481 14.845 16.2007 14.385 16.2007H1.615C1.155 16.2007 0.771 16.0485 0.463 15.744C0.154333 15.4388 0 15.0589 0 14.6041V1.97943C0 1.52467 0.154333 1.14504 0.463 0.840543C0.771 0.535389 1.155 0.382812 1.615 0.382812H12.577L16 3.76686ZM15 4.189L12.15 1.37143H1.615C1.43567 1.37143 1.28833 1.42844 1.173 1.54246C1.05767 1.65648 1 1.80214 1 1.97943V14.6041C1 14.7814 1.05767 14.927 1.173 15.0411C1.28833 15.1551 1.43567 15.2121 1.615 15.2121H14.385C14.5643 15.2121 14.7117 15.1551 14.827 15.0411C14.9423 14.927 15 14.7814 15 14.6041V4.189ZM8 12.7781C8.55133 12.7781 9.02233 12.585 9.413 12.1988C9.80433 11.8119 10 11.3459 10 10.8009C10 10.2558 9.80433 9.79018 9.413 9.40396C9.02233 9.01708 8.55133 8.82364 8 8.82364C7.44867 8.82364 6.97767 9.01708 6.587 9.40396C6.19567 9.79084 6 10.2565 6 10.8009C6 11.3453 6.19567 11.8112 6.587 12.1988C6.97767 12.585 7.44867 12.7781 8 12.7781ZM2.77 6.08715H10.192V3.12129H2.77V6.08715ZM1 4.189V15.2121V1.37143V4.189Z" fill="#1B7692"/>
</svg>
