<svg width="303" height="296" viewBox="0 0 303 296" fill="none" xmlns="http://www.w3.org/2000/svg">
<path d="M3 8V238.215H203.563V123.108H88.9558V8H3ZM117.608 8V94.3308H203.563L117.608 8ZM31.6519 65.5538H60.3039V94.3308H31.6519V65.5538ZM31.6519 123.108H60.3039V151.885H31.6519V123.108ZM31.6519 180.662H146.26V209.438H31.6519V180.662Z" stroke="#C7C7C7" stroke-width="6"/>
<g clip-path="url(#clip0_6342_14172)">
<path d="M211.225 204.191L235.019 289.168L254.28 259.709L290.537 295.966L303 283.503L265.61 247.246L296.202 229.118L211.225 204.191Z" fill="#C2BEBE"/>
<path d="M212.358 250.646H133.047V148.674H269.009V209.857L280.34 212.123V137.344H121.717V261.976H214.624L212.358 250.646Z" fill="#C2BEBE"/>
</g>
<defs>
<clipPath id="clip0_6342_14172">
<rect width="181.283" height="181.283" fill="white" transform="translate(121.717 114.684)"/>
</clipPath>
</defs>
</svg>
