<svg width="21" height="22" viewBox="0 0 21 22" fill="none" xmlns="http://www.w3.org/2000/svg">
<path d="M10.4282 14.0312C12.0851 14.0312 13.4282 12.6881 13.4282 11.0312C13.4282 9.3744 12.0851 8.03125 10.4282 8.03125C8.77137 8.03125 7.42822 9.3744 7.42822 11.0312C7.42822 12.6881 8.77137 14.0312 10.4282 14.0312Z" stroke="black" stroke-width="1.5"/>
<path opacity="0.5" d="M12.1932 1.18325C11.8262 1.03125 11.3602 1.03125 10.4282 1.03125C9.49618 1.03125 9.03018 1.03125 8.66318 1.18325C8.42037 1.28376 8.19974 1.43115 8.01391 1.61697C7.82808 1.8028 7.6807 2.02343 7.58019 2.26625C7.48819 2.48925 7.45118 2.75025 7.43718 3.12925C7.43095 3.40324 7.35519 3.67115 7.217 3.90782C7.07881 4.14449 6.88273 4.34216 6.64718 4.48225C6.40808 4.61629 6.13883 4.68735 5.86472 4.68875C5.59061 4.69015 5.32064 4.62184 5.08018 4.49025C4.74418 4.31225 4.50118 4.21425 4.26018 4.18225C3.7345 4.11312 3.20288 4.25556 2.78219 4.57825C2.46819 4.82125 2.23418 5.22425 1.76818 6.03125C1.30218 6.83825 1.06818 7.24125 1.01718 7.63625C0.98282 7.8967 1.0001 8.16137 1.06805 8.41514C1.136 8.66892 1.25328 8.90681 1.41318 9.11525C1.56118 9.30725 1.76818 9.46825 2.08918 9.67025C2.56218 9.96725 2.86619 10.4732 2.86619 11.0312C2.86619 11.5893 2.56218 12.0952 2.08918 12.3912C1.76818 12.5942 1.56018 12.7553 1.41318 12.9473C1.25328 13.1557 1.136 13.3936 1.06805 13.6474C1.0001 13.9011 0.98282 14.1658 1.01718 14.4263C1.06918 14.8203 1.30218 15.2243 1.76718 16.0312C2.23418 16.8382 2.46719 17.2412 2.78219 17.4842C2.99062 17.6442 3.22852 17.7614 3.48229 17.8294C3.73606 17.8973 4.00073 17.9146 4.26119 17.8803C4.50119 17.8483 4.74418 17.7503 5.08018 17.5723C5.32064 17.4407 5.59061 17.3723 5.86472 17.3737C6.13883 17.3751 6.40808 17.4462 6.64718 17.5802C7.13018 17.8602 7.41718 18.3753 7.43718 18.9333C7.45118 19.3133 7.48719 19.5732 7.58019 19.7962C7.6807 20.0391 7.82808 20.2597 8.01391 20.4455C8.19974 20.6314 8.42037 20.7787 8.66318 20.8792C9.03018 21.0312 9.49618 21.0312 10.4282 21.0312C11.3602 21.0312 11.8262 21.0312 12.1932 20.8792C12.436 20.7787 12.6566 20.6314 12.8425 20.4455C13.0283 20.2597 13.1757 20.0391 13.2762 19.7962C13.3682 19.5732 13.4052 19.3133 13.4192 18.9333C13.4392 18.3753 13.7262 17.8592 14.2092 17.5802C14.4483 17.4462 14.7175 17.3751 14.9917 17.3737C15.2658 17.3723 15.5357 17.4407 15.7762 17.5723C16.1122 17.7503 16.3552 17.8483 16.5952 17.8803C16.8556 17.9146 17.1203 17.8973 17.3741 17.8294C17.6278 17.7614 17.8657 17.6442 18.0742 17.4842C18.3892 17.2422 18.6222 16.8382 19.0882 16.0312C19.5542 15.2243 19.7882 14.8213 19.8392 14.4263C19.8735 14.1658 19.8563 13.9011 19.7883 13.6474C19.7204 13.3936 19.6031 13.1557 19.4432 12.9473C19.2952 12.7553 19.0882 12.5943 18.7672 12.3923C18.5329 12.2499 18.3387 12.0502 18.2028 11.8122C18.0669 11.5741 17.9937 11.3054 17.9902 11.0312C17.9902 10.4732 18.2942 9.96725 18.7672 9.67125C19.0882 9.46825 19.2962 9.30725 19.4432 9.11525C19.6031 8.90681 19.7204 8.66892 19.7883 8.41514C19.8563 8.16137 19.8735 7.8967 19.8392 7.63625C19.7872 7.24225 19.5542 6.83825 19.0892 6.03125C18.6222 5.22425 18.3892 4.82125 18.0742 4.57825C17.8657 4.41834 17.6278 4.30106 17.3741 4.23312C17.1203 4.16517 16.8556 4.14789 16.5952 4.18225C16.3552 4.21425 16.1122 4.31225 15.7752 4.49025C15.5348 4.62167 15.2651 4.68987 14.9912 4.68847C14.7172 4.68707 14.4482 4.61611 14.2092 4.48225C13.9736 4.34216 13.7776 4.14449 13.6394 3.90782C13.5012 3.67115 13.4254 3.40324 13.4192 3.12925C13.4052 2.74925 13.3692 2.48925 13.2762 2.26625C13.1757 2.02343 13.0283 1.8028 12.8425 1.61697C12.6566 1.43115 12.436 1.28376 12.1932 1.18325Z" stroke="black" stroke-width="1.5"/>
</svg>
