<svg width="25" height="24" viewBox="0 0 25 24" fill="none" xmlns="http://www.w3.org/2000/svg">
<path d="M14.5833 22H10.4166C6.48846 22 4.52388 22 3.30409 20.828C2.08325 19.657 2.08325 17.771 2.08325 14V12C2.08325 8.229 2.08325 6.343 3.30409 5.172C4.52388 4 6.48846 4 10.4166 4H14.5833C18.5114 4 20.476 4 21.6958 5.172C22.9166 6.343 22.9166 8.229 22.9166 12V14C22.9166 17.771 22.9166 19.657 21.6958 20.828C21.0155 21.482 20.1041 21.771 18.7499 21.898M7.29159 4V2.5M17.7083 4V2.5M22.3958 9H11.1978M2.08325 9H6.11971" stroke="#146578" stroke-width="1.5" stroke-linecap="round"/>
<path d="M18.75 17C18.75 17.2652 18.6403 17.5196 18.4449 17.7071C18.2496 17.8946 17.9846 18 17.7083 18C17.4321 18 17.1671 17.8946 16.9718 17.7071C16.7764 17.5196 16.6667 17.2652 16.6667 17C16.6667 16.7348 16.7764 16.4804 16.9718 16.2929C17.1671 16.1054 17.4321 16 17.7083 16C17.9846 16 18.2496 16.1054 18.4449 16.2929C18.6403 16.4804 18.75 16.7348 18.75 17ZM18.75 13C18.75 13.2652 18.6403 13.5196 18.4449 13.7071C18.2496 13.8946 17.9846 14 17.7083 14C17.4321 14 17.1671 13.8946 16.9718 13.7071C16.7764 13.5196 16.6667 13.2652 16.6667 13C16.6667 12.7348 16.7764 12.4804 16.9718 12.2929C17.1671 12.1054 17.4321 12 17.7083 12C17.9846 12 18.2496 12.1054 18.4449 12.2929C18.6403 12.4804 18.75 12.7348 18.75 13ZM13.5417 17C13.5417 17.2652 13.4319 17.5196 13.2366 17.7071C13.0412 17.8946 12.7763 18 12.5 18C12.2237 18 11.9588 17.8946 11.7634 17.7071C11.5681 17.5196 11.4583 17.2652 11.4583 17C11.4583 16.7348 11.5681 16.4804 11.7634 16.2929C11.9588 16.1054 12.2237 16 12.5 16C12.7763 16 13.0412 16.1054 13.2366 16.2929C13.4319 16.4804 13.5417 16.7348 13.5417 17ZM13.5417 13C13.5417 13.2652 13.4319 13.5196 13.2366 13.7071C13.0412 13.8946 12.7763 14 12.5 14C12.2237 14 11.9588 13.8946 11.7634 13.7071C11.5681 13.5196 11.4583 13.2652 11.4583 13C11.4583 12.7348 11.5681 12.4804 11.7634 12.2929C11.9588 12.1054 12.2237 12 12.5 12C12.7763 12 13.0412 12.1054 13.2366 12.2929C13.4319 12.4804 13.5417 12.7348 13.5417 13ZM8.33333 17C8.33333 17.2652 8.22359 17.5196 8.02824 17.7071C7.83289 17.8946 7.56793 18 7.29167 18C7.0154 18 6.75045 17.8946 6.5551 17.7071C6.35975 17.5196 6.25 17.2652 6.25 17C6.25 16.7348 6.35975 16.4804 6.5551 16.2929C6.75045 16.1054 7.0154 16 7.29167 16C7.56793 16 7.83289 16.1054 8.02824 16.2929C8.22359 16.4804 8.33333 16.7348 8.33333 17ZM8.33333 13C8.33333 13.2652 8.22359 13.5196 8.02824 13.7071C7.83289 13.8946 7.56793 14 7.29167 14C7.0154 14 6.75045 13.8946 6.5551 13.7071C6.35975 13.5196 6.25 13.2652 6.25 13C6.25 12.7348 6.35975 12.4804 6.5551 12.2929C6.75045 12.1054 7.0154 12 7.29167 12C7.56793 12 7.83289 12.1054 8.02824 12.2929C8.22359 12.4804 8.33333 12.7348 8.33333 13Z" fill="#146578"/>
</svg>
