<svg width="57" height="57" viewBox="0 0 57 57" fill="none" xmlns="http://www.w3.org/2000/svg">
<path opacity="0.5" fill-rule="evenodd" clip-rule="evenodd" d="M7.71875 28.5C7.71875 28.9724 7.90642 29.4255 8.24047 29.7595C8.57451 30.0936 9.02758 30.2812 9.5 30.2812H31.4688V26.7188H9.5C8.51675 26.7188 7.71875 27.5167 7.71875 28.5Z" fill="#707070"/>
<path d="M31.4689 14.2504C31.4692 13.8983 31.5738 13.5542 31.7695 13.2616C31.9653 12.969 32.2434 12.7409 32.5687 12.6062C32.8939 12.4715 33.2519 12.4362 33.5972 12.5048C33.9425 12.5734 34.2597 12.7428 34.5089 12.9916L48.7589 27.2416C49.0924 27.5756 49.2798 28.0284 49.2798 28.5004C49.2798 28.9724 49.0924 29.4252 48.7589 29.7591L34.5089 44.0091C34.2597 44.2579 33.9425 44.4273 33.5972 44.4959C33.2519 44.5645 32.8939 44.5293 32.5687 44.3946C32.2434 44.2599 31.9653 44.0318 31.7695 43.7392C31.5738 43.4465 31.4692 43.1025 31.4689 42.7504L31.4689 14.2504Z" fill="#C7C7C7"/>
</svg>
