<svg width="16" height="16" viewBox="0 0 16 16" fill="none" xmlns="http://www.w3.org/2000/svg">
<path d="M12.2101 12.7908L12.7316 12.2799C15.1447 12.3577 15.1817 12.2742 15.2878 12.0297L15.9507 10.4382L16 10.2873L15.9461 10.1553C15.9177 10.0856 15.8302 9.87763 14.3235 8.46103V7.71588C16.062 6.06442 16.0249 5.97985 15.9258 5.73813L15.2658 4.13011C15.1667 3.88896 15.129 3.79467 12.7334 3.85925L12.2118 3.32781C12.2656 2.545 12.2383 1.75881 12.1301 0.981489L12.0629 0.831201L10.3394 0.0883324C10.0856 -0.0259551 9.99638 -0.0670986 8.36914 1.68036L7.63781 1.6695C5.96248 -0.0939561 5.88309 -0.0619557 5.63216 0.0380458L4.02984 0.676913C3.77892 0.776914 3.69026 0.812343 3.78761 3.21238L3.27012 3.72096C0.858239 3.64324 0.821152 3.72782 0.716262 3.97125L0.0521551 5.56327L0 5.71585L0.0544731 5.84842C0.0828686 5.91699 0.166896 6.12271 1.67707 7.54102V8.28389C-0.0614268 9.93534 -0.0237595 10.0199 0.0759145 10.2622L0.735386 11.8719C0.836219 12.1182 0.872148 12.2057 3.26722 12.1439L3.78877 12.6782C3.73471 13.4598 3.76131 14.2448 3.86816 15.0211L3.93539 15.1726L5.66983 15.92C5.92191 16.024 6.00942 16.0611 7.63202 14.32L8.36335 14.3291C10.041 16.0949 10.1268 16.0606 10.3719 15.9629L11.9707 15.3257C12.2234 15.2268 12.3115 15.192 12.2101 12.7908ZM5.33836 9.06276C5.13614 8.54163 5.09451 7.97323 5.21868 7.42886C5.34285 6.8845 5.62729 6.38842 6.03632 6.00287C6.44535 5.61732 6.96073 5.35948 7.51782 5.26169C8.0749 5.16391 8.64886 5.23054 9.16768 5.45322C9.68651 5.6759 10.1271 6.04472 10.4341 6.5134C10.7412 6.98207 10.901 7.52973 10.8936 8.08765C10.8861 8.64557 10.7118 9.1889 10.3924 9.64946C10.073 10.11 9.62272 10.4673 9.09815 10.6765C8.38243 10.9525 7.58497 10.9376 6.88033 10.6352C6.17568 10.3327 5.62124 9.76736 5.33836 9.06276Z" fill="#99B8C4"/>
</svg>
