<svg width="15" height="15" viewBox="0 0 15 15" fill="none" xmlns="http://www.w3.org/2000/svg">
<g clip-path="url(#clip0_344_2960)">
<path d="M12.5 8.5V7.5C12.5 7.23478 12.3946 6.98043 12.2071 6.79289C12.0196 6.60536 11.7652 6.5 11.5 6.5H1.5C1.23478 6.5 0.98043 6.60536 0.792893 6.79289C0.605357 6.98043 0.5 7.23478 0.5 7.5V13.5C0.5 13.7652 0.605357 14.0196 0.792893 14.2071C0.98043 14.3946 1.23478 14.5 1.5 14.5H11.5C11.7652 14.5 12.0196 14.3946 12.2071 14.2071C12.3946 14.0196 12.5 13.7652 12.5 13.5V12.5M12.5 8.5H8.5C7.96957 8.5 7.46086 8.71071 7.08579 9.08579C6.71071 9.46086 6.5 9.96957 6.5 10.5C6.5 11.0304 6.71071 11.5391 7.08579 11.9142C7.46086 12.2893 7.96957 12.5 8.5 12.5H12.5M12.5 8.5C13.0304 8.5 13.5391 8.71071 13.9142 9.08579C14.2893 9.46086 14.5 9.96957 14.5 10.5C14.5 11.0304 14.2893 11.5391 13.9142 11.9142C13.5391 12.2893 13.0304 12.5 12.5 12.5M3.5 6.5V3.5C3.5 2.70435 3.81607 1.94129 4.37868 1.37868C4.94129 0.81607 5.70435 0.5 6.5 0.5C7.29565 0.5 8.05871 0.81607 8.62132 1.37868C9.18393 1.94129 9.5 2.70435 9.5 3.5V6.5M12 10.5H13M10 10.5H11M8 10.5H9" stroke="#1B7692"/>
</g>
<defs>
<clipPath id="clip0_344_2960">
<rect width="15" height="15" fill="white"/>
</clipPath>
</defs>
</svg>
