<svg width="14" height="18" viewBox="0 0 14 18" fill="none" xmlns="http://www.w3.org/2000/svg">
<path d="M8.5 9H13M8.5 13H13M8.5 17H13M1 2C1 1.73478 1.07902 1.48043 1.21967 1.29289C1.36032 1.10536 1.55109 1 1.75 1H12.25C12.4489 1 12.6397 1.10536 12.7803 1.29289C12.921 1.48043 13 1.73478 13 2V4C13 4.26522 12.921 4.51957 12.7803 4.70711C12.6397 4.89464 12.4489 5 12.25 5H1.75C1.55109 5 1.36032 4.89464 1.21967 4.70711C1.07902 4.51957 1 4.26522 1 4V2ZM1 10C1 9.73478 1.07902 9.48043 1.21967 9.29289C1.36032 9.10536 1.55109 9 1.75 9H4.75C4.94891 9 5.13968 9.10536 5.28033 9.29289C5.42098 9.48043 5.5 9.73478 5.5 10V16C5.5 16.2652 5.42098 16.5196 5.28033 16.7071C5.13968 16.8946 4.94891 17 4.75 17H1.75C1.55109 17 1.36032 16.8946 1.21967 16.7071C1.07902 16.5196 1 16.2652 1 16V10Z" stroke="#146578" stroke-width="2" stroke-linecap="round" stroke-linejoin="round"/>
</svg>
