<svg width="27" height="19" viewBox="0 0 27 19" fill="none" xmlns="http://www.w3.org/2000/svg">
<path d="M0 3.95833C0 2.90852 0.444474 1.9017 1.23564 1.15937C2.02681 0.417037 3.09987 0 4.21875 0H22.7812C23.9001 0 24.9732 0.417037 25.7644 1.15937C26.5555 1.9017 27 2.90852 27 3.95833V15.0417C27 16.0915 26.5555 17.0983 25.7644 17.8406C24.9732 18.583 23.9001 19 22.7812 19H4.21875C3.09987 19 2.02681 18.583 1.23564 17.8406C0.444474 17.0983 0 16.0915 0 15.0417L0 3.95833ZM4.21875 1.58333C3.54742 1.58333 2.90359 1.83356 2.42889 2.27895C1.95418 2.72435 1.6875 3.32844 1.6875 3.95833V15.0417C1.6875 15.6716 1.95418 16.2756 2.42889 16.721C2.90359 17.1664 3.54742 17.4167 4.21875 17.4167H22.7812C23.4526 17.4167 24.0964 17.1664 24.5711 16.721C25.0458 16.2756 25.3125 15.6716 25.3125 15.0417V3.95833C25.3125 3.32844 25.0458 2.72435 24.5711 2.27895C24.0964 1.83356 23.4526 1.58333 22.7812 1.58333H4.21875ZM22.5349 8.9395C22.6135 9.01304 22.6758 9.1004 22.7183 9.19658C22.7609 9.29276 22.7828 9.39587 22.7828 9.5C22.7828 9.60413 22.7609 9.70724 22.7183 9.80342C22.6758 9.8996 22.6135 9.98696 22.5349 10.0605L17.4724 14.8105C17.3139 14.9592 17.0991 15.0427 16.875 15.0427C16.6509 15.0427 16.4361 14.9592 16.2776 14.8105C16.1192 14.6618 16.0302 14.4602 16.0302 14.25C16.0302 14.0398 16.1192 13.8382 16.2776 13.6895L21.3401 8.9395C21.4185 8.86578 21.5116 8.80728 21.6141 8.76737C21.7166 8.72746 21.8265 8.70692 21.9375 8.70692C22.0485 8.70692 22.1584 8.72746 22.2609 8.76737C22.3634 8.80728 22.4565 8.86578 22.5349 8.9395ZM22.5349 12.8978C22.6135 12.9714 22.6758 13.0587 22.7183 13.1549C22.7609 13.2511 22.7828 13.3542 22.7828 13.4583C22.7828 13.5625 22.7609 13.6656 22.7183 13.7618C22.6758 13.8579 22.6135 13.9453 22.5349 14.0188L21.6911 14.8105C21.5327 14.9592 21.3178 15.0427 21.0938 15.0427C20.8697 15.0427 20.6548 14.9592 20.4964 14.8105C20.3379 14.6618 20.2489 14.4602 20.2489 14.25C20.2489 14.0398 20.3379 13.8382 20.4964 13.6895L21.3401 12.8978C21.4185 12.8241 21.5116 12.7656 21.6141 12.7257C21.7166 12.6858 21.8265 12.6653 21.9375 12.6653C22.0485 12.6653 22.1584 12.6858 22.2609 12.7257C22.3634 12.7656 22.4565 12.8241 22.5349 12.8978Z" fill="#757575"/>
</svg>
