<svg width="29" height="28" viewBox="0 0 29 28" fill="none" xmlns="http://www.w3.org/2000/svg">
<path d="M12.5667 0C12.3103 0 12.0644 0.134091 11.8831 0.372773C11.7018 0.611456 11.6 0.935179 11.6 1.27273V3.81818H1.93333C1.42058 3.81818 0.928831 4.08636 0.56626 4.56373C0.20369 5.04109 0 5.68854 0 6.36364V21.6364C0 22.3115 0.20369 22.9589 0.56626 23.4363C0.928831 23.9136 1.42058 24.1818 1.93333 24.1818H11.6V26.7273C11.6 27.0648 11.7018 27.3885 11.8831 27.6272C12.0644 27.8659 12.3103 28 12.5667 28C12.823 28 13.0689 27.8659 13.2502 27.6272C13.4315 27.3885 13.5333 27.0648 13.5333 26.7273V1.27273C13.5333 0.935179 13.4315 0.611456 13.2502 0.372773C13.0689 0.134091 12.823 0 12.5667 0ZM1.93333 21.6364V6.36364H11.6V21.6364H1.93333ZM29 6.36364V21.6364C29 22.3115 28.7963 22.9589 28.4337 23.4363C28.0712 23.9136 27.5794 24.1818 27.0667 24.1818H16.4333C16.177 24.1818 15.9311 24.0477 15.7498 23.809C15.5685 23.5704 15.4667 23.2466 15.4667 22.9091C15.4667 22.5715 15.5685 22.2478 15.7498 22.0091C15.9311 21.7705 16.177 21.6364 16.4333 21.6364H27.0667V6.36364H16.4333C16.177 6.36364 15.9311 6.22955 15.7498 5.99086C15.5685 5.75218 15.4667 5.42846 15.4667 5.09091C15.4667 4.75336 15.5685 4.42964 15.7498 4.19096C15.9311 3.95227 16.177 3.81818 16.4333 3.81818H27.0667C27.5794 3.81818 28.0712 4.08636 28.4337 4.56373C28.7963 5.04109 29 5.68854 29 6.36364ZM9.66667 11.4545C9.66667 11.7921 9.56482 12.1158 9.38354 12.3545C9.20225 12.5932 8.95638 12.7273 8.7 12.7273H7.73333V16.5455C7.73333 16.883 7.63149 17.2067 7.4502 17.4454C7.26892 17.6841 7.02304 17.8182 6.76667 17.8182C6.51029 17.8182 6.26442 17.6841 6.08313 17.4454C5.90184 17.2067 5.8 16.883 5.8 16.5455V12.7273H4.83333C4.57696 12.7273 4.33108 12.5932 4.1498 12.3545C3.96851 12.1158 3.86667 11.7921 3.86667 11.4545C3.86667 11.117 3.96851 10.7933 4.1498 10.5546C4.33108 10.3159 4.57696 10.1818 4.83333 10.1818H8.7C8.95638 10.1818 9.20225 10.3159 9.38354 10.5546C9.56482 10.7933 9.66667 11.117 9.66667 11.4545Z" fill="#757575"/>
</svg>
