<svg width="29" height="5" viewBox="0 0 29 5" fill="none" xmlns="http://www.w3.org/2000/svg">
<path d="M2.9375 0.1875C1.66562 0.1875 0.625 1.22812 0.625 2.5C0.625 3.77187 1.66562 4.8125 2.9375 4.8125C4.20937 4.8125 5.25 3.77187 5.25 2.5C5.25 1.22812 4.20937 0.1875 2.9375 0.1875ZM26.0625 0.1875C24.7906 0.1875 23.75 1.22812 23.75 2.5C23.75 3.77187 24.7906 4.8125 26.0625 4.8125C27.3344 4.8125 28.375 3.77187 28.375 2.5C28.375 1.22812 27.3344 0.1875 26.0625 0.1875ZM14.5 0.1875C13.2281 0.1875 12.1875 1.22812 12.1875 2.5C12.1875 3.77187 13.2281 4.8125 14.5 4.8125C15.7719 4.8125 16.8125 3.77187 16.8125 2.5C16.8125 1.22812 15.7719 0.1875 14.5 0.1875Z" fill="black"/>
</svg>
