<svg width="18" height="17" viewBox="0 0 18 17" fill="none" xmlns="http://www.w3.org/2000/svg">
<path d="M0.104492 2C0.104492 0.89543 0.999923 0 2.10449 0H14.2035C15.8603 0 17.2035 1.34315 17.2035 3V15C17.2035 16.1046 16.308 17 15.2035 17H2.10449C0.999921 17 0.104492 16.1046 0.104492 15V2Z" fill="#1B7692"/>
<path d="M9.86865 8.5H13.9937M9.86865 11.25H13.9937M9.86865 14H13.9937M2.99365 3.6875C2.99365 3.50516 3.06609 3.3303 3.19502 3.20136C3.32395 3.07243 3.49882 3 3.68115 3H13.3062C13.4885 3 13.6634 3.07243 13.7923 3.20136C13.9212 3.3303 13.9937 3.50516 13.9937 3.6875V5.0625C13.9937 5.24484 13.9212 5.4197 13.7923 5.54864C13.6634 5.67757 13.4885 5.75 13.3062 5.75H3.68115C3.49882 5.75 3.32395 5.67757 3.19502 5.54864C3.06609 5.4197 2.99365 5.24484 2.99365 5.0625V3.6875ZM2.99365 9.1875C2.99365 9.00516 3.06609 8.8303 3.19502 8.70136C3.32395 8.57243 3.49882 8.5 3.68115 8.5H6.43115C6.61349 8.5 6.78836 8.57243 6.91729 8.70136C7.04622 8.8303 7.11865 9.00516 7.11865 9.1875V13.3125C7.11865 13.4948 7.04622 13.6697 6.91729 13.7986C6.78836 13.9276 6.61349 14 6.43115 14H3.68115C3.49882 14 3.32395 13.9276 3.19502 13.7986C3.06609 13.6697 2.99365 13.4948 2.99365 13.3125V9.1875Z" stroke="white" stroke-linecap="round" stroke-linejoin="round"/>
</svg>
