<svg width="18" height="24" viewBox="0 0 18 24" fill="none" xmlns="http://www.w3.org/2000/svg">
<path d="M3.31579 5.63158H5.63158V2.73684M1 5.05263L5.05263 1H17.2105V23H1V5.05263Z" stroke="#1B7692"/>
<path d="M16.0526 3.31641H13.7368L13.1578 5.6322L11.9999 6.21114L10.2631 5.05325L7.94729 6.79009L9.10519 8.52693L8.52624 10.2638L6.21045 10.8427V13.1585L8.52624 13.7375L9.10519 15.4743L7.94729 17.2111L9.68413 18.948L11.9999 17.7901L13.7368 18.369V20.6848H15.4736" stroke="#1B7692"/>
<path d="M16 8.5001C15.4286 8.00011 13.1429 7.49991 12 9.00005" stroke="#1B7692"/>
<path d="M11.244 10C10.6494 11.8088 10.7683 15.3359 16 14.9742" stroke="#1B7692"/>
</svg>
