<svg width="16" height="16" viewBox="0 0 16 16" fill="none" xmlns="http://www.w3.org/2000/svg">
<path d="M5.75016 5.66732H2.75016C2.57335 5.66732 2.40378 5.59708 2.27876 5.47206C2.15373 5.34703 2.0835 5.17746 2.0835 5.00065V2.00065C2.0835 1.82384 2.15373 1.65427 2.27876 1.52925C2.40378 1.40422 2.57335 1.33398 2.75016 1.33398C2.92697 1.33398 3.09654 1.40422 3.22157 1.52925C3.34659 1.65427 3.41683 1.82384 3.41683 2.00065V4.33398H5.75016C5.92697 4.33398 6.09654 4.40422 6.22157 4.52925C6.34659 4.65427 6.41683 4.82384 6.41683 5.00065C6.41683 5.17746 6.34659 5.34703 6.22157 5.47206C6.09654 5.59708 5.92697 5.66732 5.75016 5.66732Z" fill="#1B7692"/>
<path d="M14.0001 8.66641C13.8233 8.66641 13.6537 8.59617 13.5287 8.47115C13.4037 8.34612 13.3334 8.17655 13.3334 7.99974C13.3339 6.8261 12.9471 5.68511 12.2328 4.75381C11.5186 3.82252 10.517 3.153 9.38332 2.84916C8.2497 2.54531 7.04748 2.62413 5.96322 3.07337C4.87896 3.52262 3.9733 4.31717 3.38677 5.33374C3.29818 5.48677 3.15244 5.59835 2.98159 5.64392C2.81075 5.68949 2.6288 5.66532 2.47577 5.57674C2.32274 5.48816 2.21116 5.34241 2.16559 5.17157C2.12002 5.00072 2.14418 4.81877 2.23277 4.66574C2.96627 3.39523 4.09856 2.40231 5.45397 1.841C6.80939 1.27969 8.31216 1.18139 9.72915 1.56133C11.1461 1.94128 12.3981 2.77824 13.2909 3.94236C14.1837 5.10648 14.6673 6.5327 14.6668 7.99974C14.6668 8.17655 14.5965 8.34612 14.4715 8.47115C14.3465 8.59617 14.1769 8.66641 14.0001 8.66641ZM13.2501 14.6664C13.0733 14.6664 12.9037 14.5962 12.7787 14.4711C12.6537 14.3461 12.5834 14.1766 12.5834 13.9997V11.6664H10.2501C10.0733 11.6664 9.90372 11.5962 9.77869 11.4711C9.65367 11.3461 9.58343 11.1766 9.58343 10.9997C9.58343 10.8229 9.65367 10.6534 9.77869 10.5283C9.90372 10.4033 10.0733 10.3331 10.2501 10.3331H13.2501C13.4269 10.3331 13.5965 10.4033 13.7215 10.5283C13.8465 10.6534 13.9168 10.8229 13.9168 10.9997V13.9997C13.9168 14.1766 13.8465 14.3461 13.7215 14.4711C13.5965 14.5962 13.4269 14.6664 13.2501 14.6664Z" fill="#1B7692"/>
<path d="M8.00016 14.6673C6.2327 14.6652 4.53824 13.9621 3.28846 12.7124C2.03867 11.4626 1.33561 9.76811 1.3335 8.00065C1.3335 7.82384 1.40373 7.65427 1.52876 7.52925C1.65378 7.40422 1.82335 7.33398 2.00016 7.33398C2.17697 7.33398 2.34654 7.40422 2.47157 7.52925C2.59659 7.65427 2.66683 7.82384 2.66683 8.00065C2.66632 9.17429 3.0532 10.3153 3.76743 11.2466C4.48167 12.1779 5.48331 12.8474 6.61694 13.1512C7.75057 13.4551 8.95279 13.3763 10.037 12.927C11.1213 12.4778 12.027 11.6832 12.6135 10.6667C12.6574 10.5909 12.7157 10.5245 12.7852 10.4713C12.8548 10.418 12.9341 10.379 13.0187 10.3565C13.1033 10.3339 13.1915 10.3282 13.2783 10.3398C13.3651 10.3513 13.4487 10.3798 13.5245 10.4237C13.6003 10.4675 13.6667 10.5259 13.7199 10.5954C13.7731 10.6649 13.8121 10.7442 13.8347 10.8288C13.8572 10.9134 13.8629 11.0016 13.8514 11.0884C13.8399 11.1752 13.8114 11.2589 13.7675 11.3347C13.1812 12.3456 12.3402 13.1853 11.3282 13.7701C10.3163 14.3548 9.16886 14.6642 8.00016 14.6673Z" fill="#1B7692"/>
</svg>
