<svg width="144" height="79" viewBox="0 0 144 79" fill="none" xmlns="http://www.w3.org/2000/svg">
<path d="M87.2709 27.0827V17.7077C87.2709 14.945 86.1734 12.2955 84.2199 10.342C82.2664 8.38848 79.6169 7.29102 76.8542 7.29102H59.1459C56.3832 7.29102 53.7337 8.38848 51.7802 10.342C49.8267 12.2955 48.7292 14.945 48.7292 17.7077V32.291C48.7292 33.659 48.9987 35.0135 49.5222 36.2773C50.0457 37.5411 50.8129 38.6894 51.7802 39.6567C53.7337 41.6102 56.3832 42.7077 59.1459 42.7077H72.1876" stroke="white" stroke-width="2.5" stroke-linecap="round" stroke-linejoin="round"/>
<path d="M49.271 35.4154L54.9793 28.7488C55.729 28.0042 56.7129 27.5415 57.7645 27.439C58.8161 27.3365 59.8708 27.6005 60.7502 28.1863C61.6295 28.772 62.6842 29.036 63.7358 28.9335C64.7874 28.831 65.7713 28.3683 66.521 27.6238L71.3752 22.7696C72.7699 21.3701 74.6166 20.5117 76.5857 20.3476C78.5547 20.1835 80.518 20.7244 82.1252 21.8738L87.271 25.8529M59.6877 21.1863C60.1418 21.1835 60.591 21.0914 61.0095 20.915C61.4281 20.7387 61.8078 20.4817 62.127 20.1586C62.4462 19.8355 62.6986 19.4528 62.8699 19.0321C63.0412 18.6115 63.1279 18.1612 63.1252 17.7071C63.1224 17.2529 63.0303 16.8038 62.8539 16.3852C62.6776 15.9667 62.4206 15.587 62.0975 15.2678C61.7744 14.9486 61.3917 14.6961 60.971 14.5249C60.5504 14.3536 60.1001 14.2669 59.646 14.2696C58.7288 14.2751 57.8513 14.6448 57.2067 15.2972C56.562 15.9497 56.203 16.8316 56.2085 17.7488C56.214 18.666 56.5837 19.5434 57.2361 20.1881C57.8886 20.8327 58.7705 21.1918 59.6877 21.1863Z" stroke="white" stroke-width="2.5" stroke-linecap="round" stroke-linejoin="round"/>
<path d="M81.9729 31.25V41.6667" stroke="white" stroke-width="2.5" stroke-miterlimit="10" stroke-linecap="round"/>
<path d="M86.75 35.6338L82.6521 31.5359C82.5633 31.446 82.4575 31.3746 82.341 31.3258C82.2244 31.2771 82.0993 31.252 81.9729 31.252C81.8465 31.252 81.7214 31.2771 81.6048 31.3258C81.4882 31.3746 81.3825 31.446 81.2937 31.5359L77.1958 35.6338" stroke="white" stroke-width="2.5" stroke-linecap="round" stroke-linejoin="round"/>
<path d="M1.48 63.92V55.1H3.76V63.96C3.76 66.12 4.98 67.14 6.9 67.14C8.84 67.14 10.06 66.12 10.06 63.96V55.1H12.34V63.92C12.34 67.46 9.78 69.14 6.88 69.14C3.96 69.14 1.48 67.46 1.48 63.92ZM17.5886 59.6C18.2886 58.68 19.6286 57.8 21.4286 57.8C24.3286 57.8 26.6086 60.04 26.6086 63.44C26.6086 66.84 24.3286 69.18 21.4286 69.18C19.6086 69.18 18.3086 68.26 17.5886 67.4V74.24H15.3086V57.98H17.5886V59.6ZM24.2886 63.44C24.2886 61.06 22.6486 59.78 20.9286 59.78C19.2286 59.78 17.5886 61.12 17.5886 63.48C17.5886 65.86 19.2286 67.2 20.9286 67.2C22.6486 67.2 24.2886 65.82 24.2886 63.44ZM28.8633 69V54.2H31.1433V69H28.8633ZM44.6367 63.48C44.6367 66.94 42.0767 69.18 38.9167 69.18C35.7767 69.18 33.3967 66.94 33.3967 63.48C33.3967 60.02 35.8767 57.8 39.0167 57.8C42.1567 57.8 44.6367 60.02 44.6367 63.48ZM35.7167 63.48C35.7167 65.98 37.1967 67.2 38.9167 67.2C40.6167 67.2 42.2967 65.98 42.2967 63.48C42.2967 60.98 40.6767 59.78 38.9767 59.78C37.2567 59.78 35.7167 60.98 35.7167 63.48ZM46.1306 63.44C46.1306 60.04 48.4306 57.8 51.3306 57.8C53.1906 57.8 54.4706 58.68 55.1506 59.58V57.98H57.4506V69H55.1506V67.36C54.4506 68.3 53.1306 69.18 51.2906 69.18C48.4306 69.18 46.1306 66.84 46.1306 63.44ZM55.1506 63.48C55.1506 61.12 53.5306 59.78 51.8106 59.78C50.1106 59.78 48.4706 61.06 48.4706 63.44C48.4706 65.82 50.1106 67.2 51.8106 67.2C53.5306 67.2 55.1506 65.86 55.1506 63.48ZM59.6853 63.44C59.6853 60.04 61.9853 57.8 64.9053 57.8C66.3453 57.8 67.8653 58.48 68.7053 59.52V54.2H71.0053V69H68.7053V67.34C68.0053 68.34 66.6853 69.18 64.8853 69.18C61.9853 69.18 59.6853 66.84 59.6853 63.44ZM68.7053 63.48C68.7053 61.12 67.0853 59.78 65.3653 59.78C63.6653 59.78 62.0253 61.06 62.0253 63.44C62.0253 65.82 63.6653 67.2 65.3653 67.2C67.0853 67.2 68.7053 65.86 68.7053 63.48ZM79.1953 69V55.1H81.4753V69H79.1953ZM100.089 69V62.84C100.089 60.82 98.9888 59.78 97.3288 59.78C95.6488 59.78 94.5488 60.82 94.5488 62.84V69H92.2888V62.84C92.2888 60.82 91.1888 59.78 89.5288 59.78C87.8488 59.78 86.7488 60.82 86.7488 62.84V69H84.4688V57.98H86.7488V59.24C87.4888 58.34 88.6888 57.8 90.0088 57.8C91.7488 57.8 93.2088 58.54 93.9688 59.98C94.6488 58.64 96.2088 57.8 97.8088 57.8C100.389 57.8 102.349 59.42 102.349 62.5V69H100.089ZM104.49 63.44C104.49 60.04 106.79 57.8 109.69 57.8C111.55 57.8 112.83 58.68 113.51 59.58V57.98H115.81V69H113.51V67.36C112.81 68.3 111.49 69.18 109.65 69.18C106.79 69.18 104.49 66.84 104.49 63.44ZM113.51 63.48C113.51 61.12 111.89 59.78 110.17 59.78C108.47 59.78 106.83 61.06 106.83 63.44C106.83 65.82 108.47 67.2 110.17 67.2C111.89 67.2 113.51 65.86 113.51 63.48ZM118.045 63.44C118.045 60.04 120.345 57.8 123.245 57.8C125.045 57.8 126.385 58.64 127.065 59.58V57.98H129.365V69.18C129.365 72.18 127.425 74.44 123.985 74.44C121.045 74.44 118.865 72.98 118.585 70.54H120.845C121.185 71.68 122.405 72.46 123.985 72.46C125.745 72.46 127.065 71.38 127.065 69.18V67.34C126.365 68.28 125.045 69.18 123.245 69.18C120.345 69.18 118.045 66.84 118.045 63.44ZM127.065 63.48C127.065 61.12 125.445 59.78 123.725 59.78C122.025 59.78 120.385 61.06 120.385 63.44C120.385 65.82 122.025 67.2 123.725 67.2C125.445 67.2 127.065 65.86 127.065 63.48ZM136.999 59.72C135.459 59.72 134.219 60.76 133.979 62.5H140.079C140.039 60.8 138.699 59.72 136.999 59.72ZM142.159 65.72C141.539 67.64 139.799 69.18 137.099 69.18C133.939 69.18 131.599 66.94 131.599 63.48C131.599 60.02 133.839 57.8 137.099 57.8C140.239 57.8 142.459 59.98 142.459 63.22C142.459 63.6 142.439 63.96 142.379 64.34H133.959C134.119 66.16 135.419 67.26 137.099 67.26C138.499 67.26 139.279 66.58 139.699 65.72H142.159Z" fill="#F0F0F0"/>
</svg>
