<svg width="18" height="18" viewBox="0 0 18 18" fill="none" xmlns="http://www.w3.org/2000/svg">
<path d="M1 17V15.2222C1 14.2792 1.3746 13.3749 2.0414 12.7081C2.70819 12.0413 3.61256 11.6667 4.55556 11.6667H8.11111C9.0541 11.6667 9.95847 12.0413 10.6253 12.7081C11.2921 13.3749 11.6667 14.2792 11.6667 15.2222V17M12.5556 1.11556C13.3204 1.31138 13.9983 1.75618 14.4823 2.37983C14.9664 3.00348 15.2292 3.77052 15.2292 4.56C15.2292 5.34948 14.9664 6.11652 14.4823 6.74017C13.9983 7.36382 13.3204 7.80862 12.5556 8.00444M17 17V15.2222C16.9955 14.4375 16.7315 13.6763 16.2491 13.0572C15.7668 12.4382 15.0932 11.9962 14.3333 11.8M2.77778 4.55556C2.77778 5.49855 3.15238 6.40292 3.81918 7.06971C4.48597 7.73651 5.39034 8.11111 6.33333 8.11111C7.27633 8.11111 8.1807 7.73651 8.84749 7.06971C9.51429 6.40292 9.88889 5.49855 9.88889 4.55556C9.88889 3.61256 9.51429 2.70819 8.84749 2.0414C8.1807 1.3746 7.27633 1 6.33333 1C5.39034 1 4.48597 1.3746 3.81918 2.0414C3.15238 2.70819 2.77778 3.61256 2.77778 4.55556Z" stroke="#1B7692" stroke-width="2" stroke-linecap="round" stroke-linejoin="round"/>
</svg>
