<svg width="28" height="15" viewBox="0 0 28 15" fill="none" xmlns="http://www.w3.org/2000/svg">
<path d="M17.3479 9.59953L17.3478 9.60058C18.7468 9.91158 19.8711 10.8975 20.3358 12.1714L20.3371 12.1749C20.491 12.5869 20.5729 13.0339 20.5729 13.5C20.5729 14.0366 20.1189 14.5 19.5174 14.5H8.62847C8.0269 14.5 7.57292 14.0366 7.57292 13.5C7.57292 13.0372 7.65858 12.5887 7.81007 12.1712C8.26186 10.9352 9.33352 9.97101 10.6749 9.63034C11.0157 9.54619 11.3736 9.5 11.7444 9.5H16.4111C16.7351 9.5 17.0518 9.53366 17.3479 9.59953ZM7.45282 1.2386C7.9406 1.70896 8.21111 2.34295 8.21111 3C8.21111 3.65705 7.9406 4.29104 7.45282 4.7614C6.96442 5.23235 6.29826 5.5 5.6 5.5C4.90174 5.5 4.23558 5.23235 3.74718 4.7614C3.2594 4.29104 2.98889 3.65705 2.98889 3C2.98889 2.34295 3.2594 1.70896 3.74718 1.2386C4.23558 0.767646 4.90174 0.5 5.6 0.5C6.29826 0.5 6.96442 0.767646 7.45282 1.2386ZM1.55556 11.5C0.953986 11.5 0.5 11.0366 0.5 10.5C0.5 9.13844 1.65399 8 3.11111 8H7.77778C7.8954 8 8.01122 8.00739 8.1247 8.0217C6.82563 8.8246 5.82825 10.0491 5.34464 11.5H1.55556ZM26.4444 11.5H22.8108C22.3238 10.0406 21.3186 8.81126 20.0103 8.00798C20.0801 8.00269 20.1508 8 20.2222 8H24.8889C26.346 8 27.5 9.13844 27.5 10.5C27.5 11.0366 27.046 11.5 26.4444 11.5ZM24.5639 1.2386C25.0517 1.70896 25.3222 2.34295 25.3222 3C25.3222 3.65705 25.0517 4.29104 24.5639 4.7614C24.0755 5.23235 23.4094 5.5 22.7111 5.5C22.0129 5.5 21.3467 5.23235 20.8583 4.7614C20.3705 4.29104 20.1 3.65705 20.1 3C20.1 2.34295 20.3705 1.70896 20.8583 1.2386C21.3467 0.767646 22.0129 0.5 22.7111 0.5C23.4094 0.5 24.0755 0.767646 24.5639 1.2386ZM16.4806 6.04173C15.8463 6.65334 14.9823 7 14.0778 7C13.1732 7 12.3092 6.65334 11.675 6.04173C11.0413 5.43072 10.6889 4.60596 10.6889 3.75C10.6889 2.89404 11.0413 2.06928 11.675 1.45827C12.3092 0.846664 13.1732 0.5 14.0778 0.5C14.9823 0.5 15.8463 0.846664 16.4806 1.45827C17.1142 2.06928 17.4667 2.89403 17.4667 3.75C17.4667 4.60597 17.1142 5.43072 16.4806 6.04173Z" stroke="#1B7692"/>
</svg>
