<svg width="14" height="14" viewBox="0 0 14 14" fill="none" xmlns="http://www.w3.org/2000/svg">
<path d="M3 1.5C3 1.89782 2.84196 2.27936 2.56066 2.56066C2.27936 2.84196 1.89782 3 1.5 3C1.10218 3 0.720644 2.84196 0.43934 2.56066C0.158035 2.27936 0 1.89782 0 1.5C0 1.10218 0.158035 0.720644 0.43934 0.43934C0.720644 0.158035 1.10218 0 1.5 0C1.89782 0 2.27936 0.158035 2.56066 0.43934C2.84196 0.720644 3 1.10218 3 1.5ZM14 1.5C14 1.89782 13.842 2.27936 13.5607 2.56066C13.2794 2.84196 12.8978 3 12.5 3C12.1022 3 11.7206 2.84196 11.4393 2.56066C11.158 2.27936 11 1.89782 11 1.5C11 1.10218 11.158 0.720644 11.4393 0.43934C11.7206 0.158035 12.1022 0 12.5 0C12.8978 0 13.2794 0.158035 13.5607 0.43934C13.842 0.720644 14 1.10218 14 1.5ZM3 12.5C3 12.8978 2.84196 13.2794 2.56066 13.5607C2.27936 13.842 1.89782 14 1.5 14C1.10218 14 0.720644 13.842 0.43934 13.5607C0.158035 13.2794 0 12.8978 0 12.5C0 12.1022 0.158035 11.7206 0.43934 11.4393C0.720644 11.158 1.10218 11 1.5 11C1.89782 11 2.27936 11.158 2.56066 11.4393C2.84196 11.7206 3 12.1022 3 12.5ZM14 12.5C14 12.8978 13.842 13.2794 13.5607 13.5607C13.2794 13.842 12.8978 14 12.5 14C12.1022 14 11.7206 13.842 11.4393 13.5607C11.158 13.2794 11 12.8978 11 12.5C11 12.1022 11.158 11.7206 11.4393 11.4393C11.7206 11.158 12.1022 11 12.5 11C12.8978 11 13.2794 11.158 13.5607 11.4393C13.842 11.7206 14 12.1022 14 12.5ZM4 1.5C4 1.36739 4.05268 1.24021 4.14645 1.14645C4.24021 1.05268 4.36739 1 4.5 1H9.5C9.63261 1 9.75979 1.05268 9.85355 1.14645C9.94732 1.24021 10 1.36739 10 1.5C10 1.63261 9.94732 1.75979 9.85355 1.85355C9.75979 1.94732 9.63261 2 9.5 2H4.5C4.36739 2 4.24021 1.94732 4.14645 1.85355C4.05268 1.75979 4 1.63261 4 1.5ZM4 12.5C4 12.3674 4.05268 12.2402 4.14645 12.1464C4.24021 12.0527 4.36739 12 4.5 12H9.5C9.63261 12 9.75979 12.0527 9.85355 12.1464C9.94732 12.2402 10 12.3674 10 12.5C10 12.6326 9.94732 12.7598 9.85355 12.8536C9.75979 12.9473 9.63261 13 9.5 13H4.5C4.36739 13 4.24021 12.9473 4.14645 12.8536C4.05268 12.7598 4 12.6326 4 12.5ZM1 4.5C1 4.36739 1.05268 4.24021 1.14645 4.14645C1.24021 4.05268 1.36739 4 1.5 4C1.63261 4 1.75979 4.05268 1.85355 4.14645C1.94732 4.24021 2 4.36739 2 4.5V9.5C2 9.63261 1.94732 9.75979 1.85355 9.85355C1.75979 9.94732 1.63261 10 1.5 10C1.36739 10 1.24021 9.94732 1.14645 9.85355C1.05268 9.75979 1 9.63261 1 9.5V4.5ZM12 4.5C12 4.36739 12.0527 4.24021 12.1464 4.14645C12.2402 4.05268 12.3674 4 12.5 4C12.6326 4 12.7598 4.05268 12.8536 4.14645C12.9473 4.24021 13 4.36739 13 4.5V9.5C13 9.63261 12.9473 9.75979 12.8536 9.85355C12.7598 9.94732 12.6326 10 12.5 10C12.3674 10 12.2402 9.94732 12.1464 9.85355C12.0527 9.75979 12 9.63261 12 9.5V4.5Z" fill="#707070"/>
</svg>
