<svg width="32" height="32" viewBox="0 0 32 32" fill="none" xmlns="http://www.w3.org/2000/svg">
<path d="M27.3998 5.5H18.1998L16.0998 9.7H4.2998V26.5H29.4998V5.5H27.3998ZM27.3998 24.2H6.5998V11.8H27.3998V24.2ZM27.3998 9.7H19.1998L20.1998 7.6H27.2998V9.7H27.3998Z" fill="#7AC1DD"/>
<path d="M25.7 13.6992H0.5L4.3 26.4992H29.5L25.7 13.6992Z" fill="#7AC1DD"/>
<path d="M26.0494 26.7855L26.7244 26.1145C29.8474 26.2145 29.8954 26.1065 30.0324 25.7855L30.8904 23.7005L30.9544 23.5005L30.8844 23.3275C30.8474 23.2355 30.7344 22.9625 28.7844 21.1035V20.1255C31.0344 17.9575 30.9844 17.8465 30.8584 17.5255L30.0004 15.4185C29.8724 15.1015 29.8234 14.9785 26.7224 15.0625L26.0474 14.3625C26.117 13.3349 26.0815 12.3029 25.9414 11.2825L25.8544 11.0825L23.6234 10.1075C23.2944 9.95749 23.1794 9.90749 21.0734 12.1975L20.1264 12.1835C17.9584 9.86849 17.8554 9.91049 17.5264 10.0425L15.4524 10.8815C15.1274 11.0125 15.0124 11.0595 15.1384 14.2095L14.4684 14.8775C11.3464 14.7775 11.2984 14.8865 11.1634 15.2065L10.3034 17.2965L10.2354 17.4965L10.3064 17.6705C10.3434 17.7605 10.4524 18.0305 12.4064 19.8925V20.8675C10.1564 23.0355 10.2064 23.1465 10.3344 23.4675L11.1884 25.5805C11.3194 25.9035 11.3654 26.0185 14.4654 25.9375L15.1404 26.6375C15.0695 27.6632 15.103 28.6935 15.2404 29.7125L15.3274 29.9125L17.5724 30.8935C17.8984 31.0305 18.0124 31.0785 20.1124 28.7935L21.0594 28.8055C23.2304 31.1235 23.3414 31.0785 23.6594 30.9495L25.7284 30.1135C26.0664 29.9825 26.1804 29.9375 26.0494 26.7855ZM17.1554 21.8925C16.8936 21.2085 16.8396 20.4624 17.0003 19.7478C17.161 19.0333 17.5291 18.3821 18.0585 17.876C18.5879 17.3699 19.255 17.0315 19.9761 16.9031C20.6971 16.7747 21.44 16.8622 22.1116 17.1545C22.7831 17.4468 23.3534 17.9309 23.7508 18.5461C24.1482 19.1613 24.3551 19.8802 24.3454 20.6125C24.3358 21.3448 24.1101 22.058 23.6966 22.6625C23.2831 23.267 22.7003 23.736 22.0214 24.0105C21.095 24.3726 20.063 24.353 19.1511 23.9561C18.2392 23.5592 17.5216 22.8172 17.1554 21.8925Z" fill="#1B7692"/>
</svg>
