<svg width="222" height="222" viewBox="0 0 222 222" fill="none" xmlns="http://www.w3.org/2000/svg">
<path d="M39.8999 32.0004C37.8047 32.0004 35.7953 32.8327 34.3138 34.3142C32.8322 35.7958 31.9999 37.8052 31.9999 39.9004C31.9999 41.9956 32.8322 44.005 34.3138 45.4865C35.7953 46.9681 37.8047 47.8004 39.8999 47.8004H182.1C184.195 47.8004 186.205 46.9681 187.686 45.4865C189.168 44.005 190 41.9956 190 39.9004C190 37.8052 189.168 35.7958 187.686 34.3142C186.205 32.8327 184.195 32.0004 182.1 32.0004H39.8999ZM55.6999 126.8C61.9855 126.8 68.0137 124.303 72.4583 119.859C76.9029 115.414 79.3999 109.386 79.3999 103.1C79.3999 96.8148 76.9029 90.7866 72.4583 86.342C68.0137 81.8973 61.9855 79.4004 55.6999 79.4004C49.4143 79.4004 43.3861 81.8973 38.9415 86.342C34.4969 90.7866 31.9999 96.8148 31.9999 103.1C31.9999 109.386 34.4969 115.414 38.9415 119.859C43.3861 124.303 49.4143 126.8 55.6999 126.8ZM55.6999 111C53.6047 111 51.5953 110.168 50.1138 108.687C48.6322 107.205 47.7999 105.196 47.7999 103.1C47.7999 101.005 48.6322 98.9958 50.1138 97.5142C51.5953 96.0327 53.6047 95.2004 55.6999 95.2004C57.7951 95.2004 59.8045 96.0327 61.286 97.5142C62.7676 98.9958 63.5999 101.005 63.5999 103.1C63.5999 105.196 62.7676 107.205 61.286 108.687C59.8045 110.168 57.7951 111 55.6999 111ZM79.3999 166.3C79.3999 172.586 76.9029 178.614 72.4583 183.059C68.0137 187.503 61.9855 190 55.6999 190C49.4143 190 43.3861 187.503 38.9415 183.059C34.4969 178.614 31.9999 172.586 31.9999 166.3C31.9999 160.015 34.4969 153.987 38.9415 149.542C43.3861 145.097 49.4143 142.6 55.6999 142.6C61.9855 142.6 68.0137 145.097 72.4583 149.542C76.9029 153.987 79.3999 160.015 79.3999 166.3ZM63.5999 166.3C63.5999 164.205 62.7676 162.196 61.286 160.714C59.8045 159.233 57.7951 158.4 55.6999 158.4C53.6047 158.4 51.5953 159.233 50.1138 160.714C48.6322 162.196 47.7999 164.205 47.7999 166.3C47.7999 168.396 48.6322 170.405 50.1138 171.887C51.5953 173.368 53.6047 174.2 55.6999 174.2C57.7951 174.2 59.8045 173.368 61.286 171.887C62.7676 170.405 63.5999 168.396 63.5999 166.3ZM95.1999 103.1C95.1999 101.005 96.0322 98.9958 97.5138 97.5142C98.9953 96.0327 101.005 95.2004 103.1 95.2004H182.1C184.195 95.2004 186.205 96.0327 187.686 97.5142C189.168 98.9958 190 101.005 190 103.1C190 105.196 189.168 107.205 187.686 108.687C186.205 110.168 184.195 111 182.1 111H103.1C101.005 111 98.9953 110.168 97.5138 108.687C96.0322 107.205 95.1999 105.196 95.1999 103.1ZM103.1 158.4C101.005 158.4 98.9953 159.233 97.5138 160.714C96.0322 162.196 95.1999 164.205 95.1999 166.3C95.1999 168.396 96.0322 170.405 97.5138 171.887C98.9953 173.368 101.005 174.2 103.1 174.2H182.1C184.195 174.2 186.205 173.368 187.686 171.887C189.168 170.405 190 168.396 190 166.3C190 164.205 189.168 162.196 187.686 160.714C186.205 159.233 184.195 158.4 182.1 158.4H103.1ZM47.7999 0.400391C35.2286 0.400391 23.1723 5.39431 14.283 14.2835C5.39382 23.1728 0.399902 35.2291 0.399902 47.8004V174.2C0.399902 186.772 5.39382 198.828 14.283 207.717C23.1723 216.606 35.2286 221.6 47.7999 221.6H174.2C186.771 221.6 198.828 216.606 207.717 207.717C216.606 198.828 221.6 186.772 221.6 174.2V47.8004C221.6 35.2291 216.606 23.1728 207.717 14.2835C198.828 5.39431 186.771 0.400391 174.2 0.400391H47.7999ZM16.1999 47.8004C16.1999 39.4195 19.5292 31.382 25.4553 25.4558C31.3815 19.5297 39.4191 16.2004 47.7999 16.2004H174.2C182.581 16.2004 190.618 19.5297 196.544 25.4558C202.471 31.382 205.8 39.4195 205.8 47.8004V174.2C205.8 182.581 202.471 190.619 196.544 196.545C190.618 202.471 182.581 205.8 174.2 205.8H47.7999C39.4191 205.8 31.3815 202.471 25.4553 196.545C19.5292 190.619 16.1999 182.581 16.1999 174.2V47.8004Z" fill="#E4E4E4"/>
</svg>
