<svg width="17" height="17" viewBox="0 0 17 17" fill="none" xmlns="http://www.w3.org/2000/svg">
<path d="M8.5 0C3.80558 0 0 3.80558 0 8.5C0 13.1944 3.80558 17 8.5 17C13.1944 17 17 13.1944 17 8.5C17 3.80558 13.1944 0 8.5 0ZM8.5 15.4062C4.68579 15.4062 1.59375 12.3142 1.59375 8.5C1.59375 4.68579 4.68579 1.59375 8.5 1.59375C12.3142 1.59375 15.4063 4.68579 15.4063 8.5C15.4063 12.3142 12.3142 15.4062 8.5 15.4062ZM11.1563 4.25L8.5 6.90625L5.84375 4.25L4.25 5.84375L6.90625 8.5L4.25 11.1562L5.84375 12.75L8.5 10.0937L11.1563 12.75L12.75 11.1562L10.0938 8.5L12.75 5.84375L11.1563 4.25Z" fill="#1B7692"/>
</svg>
