<svg width="21" height="21" viewBox="0 0 21 21" fill="none" xmlns="http://www.w3.org/2000/svg">
<g clip-path="url(#clip0_2885_6531)">
<path d="M0.875 2.625C0.875 2.16087 1.05937 1.71575 1.38756 1.38756C1.71575 1.05937 2.16087 0.875 2.625 0.875H8.3125C8.77663 0.875 9.22175 1.05937 9.54994 1.38756C9.87813 1.71575 10.0625 2.16087 10.0625 2.625V8.3125C10.0625 8.77663 9.87813 9.22175 9.54994 9.54994C9.22175 9.87813 8.77663 10.0625 8.3125 10.0625H6.125V13.6176C6.125 14.3106 6.6885 14.875 7.38325 14.875H10.9375V12.6875C10.9375 12.2234 11.1219 11.7783 11.4501 11.4501C11.7783 11.1219 12.2234 10.9375 12.6875 10.9375H18.375C18.8391 10.9375 19.2842 11.1219 19.6124 11.4501C19.9406 11.7783 20.125 12.2234 20.125 12.6875V18.375C20.125 18.8391 19.9406 19.2842 19.6124 19.6124C19.2842 19.9406 18.8391 20.125 18.375 20.125H12.6875C12.2234 20.125 11.7783 19.9406 11.4501 19.6124C11.1219 19.2842 10.9375 18.8391 10.9375 18.375V16.1875H7.38238C6.70086 16.1868 6.04748 15.9157 5.56566 15.4337C5.08384 14.9517 4.81296 14.2983 4.8125 13.6168V10.0625H2.625C2.16087 10.0625 1.71575 9.87813 1.38756 9.54994C1.05937 9.22175 0.875 8.77663 0.875 8.3125V2.625ZM2.625 2.1875C2.50897 2.1875 2.39769 2.23359 2.31564 2.31564C2.23359 2.39769 2.1875 2.50897 2.1875 2.625V8.3125C2.1875 8.42853 2.23359 8.53981 2.31564 8.62186C2.39769 8.70391 2.50897 8.75 2.625 8.75H8.3125C8.42853 8.75 8.53981 8.70391 8.62186 8.62186C8.70391 8.53981 8.75 8.42853 8.75 8.3125V2.625C8.75 2.50897 8.70391 2.39769 8.62186 2.31564C8.53981 2.23359 8.42853 2.1875 8.3125 2.1875H2.625ZM12.6875 12.25C12.5715 12.25 12.4602 12.2961 12.3781 12.3781C12.2961 12.4602 12.25 12.5715 12.25 12.6875V18.375C12.25 18.491 12.2961 18.6023 12.3781 18.6844C12.4602 18.7664 12.5715 18.8125 12.6875 18.8125H18.375C18.491 18.8125 18.6023 18.7664 18.6844 18.6844C18.7664 18.6023 18.8125 18.491 18.8125 18.375V12.6875C18.8125 12.5715 18.7664 12.4602 18.6844 12.3781C18.6023 12.2961 18.491 12.25 18.375 12.25H12.6875Z" stroke="#1B7692" fill="#1B7692" stroke-width="0.5" />
</g>
<defs>
<clipPath id="clip0_2885_6531">
<rect width="22" height="22" fill="white"/>
</clipPath>
</defs>
</svg>
